<svg width="951" height="549" xmlns="http://www.w3.org/2000/svg" xmlns:xlink="http://www.w3.org/1999/xlink" overflow="hidden"><defs><clipPath id="clip0"><path d="M165 75 1116 75 1116 624 165 624Z" fill-rule="evenodd" clip-rule="evenodd"/></clipPath><radialGradient cx="557213" cy="557213" r="788018" gradientUnits="userSpaceOnUse" spreadMethod="pad" id="fill1" gradientTransform="matrix(0.000104987 0 0 0.000104987 585.5 487.5)"><stop offset="0" stop-color="#DFEDED"/><stop offset="0.89" stop-color="#117877" stop-opacity="0.521569"/><stop offset="1" stop-color="#117877" stop-opacity="0.521569"/></radialGradient></defs><g clip-path="url(#clip0)" transform="translate(-165 -75)"><path d="M660.46 208.38C674.568 212.688 697.088 197.687 704.269 204.295 711.45 210.904 696.281 241.345 703.547 248.031 710.813 254.718 740.596 237.695 747.866 244.416 755.135 251.137 739.963 281.637 747.164 288.357 754.365 295.077 783.641 277.961 791.07 284.735 798.499 291.51 785.563 314.336 789.901 327.594" stroke="#C35861" stroke-width="3" stroke-miterlimit="8" fill="none" fill-rule="evenodd"/><path d="M747.741 288.801C761.849 293.109 784.369 278.108 791.55 284.717 798.731 291.325 783.562 321.766 790.828 328.453 798.094 335.139 827.877 318.116 835.147 324.837 842.416 331.558 827.244 362.059 834.445 368.779 841.646 375.498 870.922 358.382 878.351 365.157 885.78 371.931 872.844 394.757 877.182 408.015" stroke="#C35861" stroke-width="3" stroke-miterlimit="8" fill="none" fill-rule="evenodd"/><path d="M384 208 657.908 208" stroke="#000000" stroke-width="4" stroke-miterlimit="8" fill="none" fill-rule="evenodd"/><path d="M389 517 593.213 517" stroke="#1B5968" stroke-width="4" stroke-miterlimit="8" fill="none" fill-rule="evenodd"/><path d="M0 0 195.953 1.13134" stroke="#117877" stroke-width="4" stroke-miterlimit="8" fill="none" fill-rule="evenodd" transform="matrix(1 0 0 -1 389 546.131)"/><path d="M387 575 593.773 575" stroke="#A3C2A3" stroke-width="4" stroke-miterlimit="8" fill="none" fill-rule="evenodd"/><path d="M0 0 153.919 60.4429" stroke="#000000" stroke-width="4" stroke-miterlimit="8" fill="none" fill-rule="evenodd" transform="matrix(1 0 0 -1 836 138.443)"/><path d="M12.0001-1.99999 229.351-1.99989 229.351 2.0001 12.0001 2.00001ZM12 5.49309e-06 20 10 0 0 20-9.99999Z" transform="matrix(-1 -8.74228e-08 -8.74228e-08 1 396.351 208)"/><path d="M11.8984 2.53609 186.071 71.1255 184.606 74.8474 10.4327 6.2579ZM11.1654 4.39696 14.9449 16.6328 0 0 22.2732-1.97626Z" transform="matrix(-1 -8.74228e-08 -8.74228e-08 1 842.338 135)"/><path d="M833 567 990.622 589.3" stroke="#117877" stroke-width="4" stroke-miterlimit="8" fill="none" fill-rule="evenodd"/><path d="M836 599 991.351 621.298" stroke="#A3C2A3" stroke-width="4" stroke-miterlimit="8" fill="none" fill-rule="evenodd"/><path d="M703.28 546.02 838.92 565.21 838.36 569.17 702.72 549.98ZM838.64 567.19 832.12 556.168 850.522 568.871 829.318 575.971Z" fill="#117877"/><path d="M691.28 576.02 838.177 596.802 837.616 600.763 690.72 579.98ZM837.896 598.783 831.376 587.76 849.778 600.464 828.574 607.563Z" fill="#A3C2A3"/><path d="M0 0 98.1725 50.9645" stroke="#1B5968" stroke-width="4" stroke-miterlimit="8" fill="none" fill-rule="evenodd" transform="matrix(1 0 0 -1 780 458.965)"/><path d="M0.921494-1.77506 91.4699 45.2316 89.6269 48.7817-0.921494 1.77506ZM90.5485 47.0067 88.0557 34.4454 101.199 52.5356 78.8407 52.196Z" fill="#1B5968" transform="matrix(1 0 0 -1 689 506.536)"/><path d="M585.5 546C585.5 513.691 611.691 487.5 644 487.5 676.309 487.5 702.5 513.691 702.5 546 702.5 578.309 676.309 604.5 644 604.5 611.691 604.5 585.5 578.309 585.5 546Z" stroke="#117877" stroke-width="3" stroke-miterlimit="8" fill="url(#fill1)" fill-rule="evenodd"/><path d="M1000 408 1114 408" stroke="#1B5968" stroke-width="4" stroke-miterlimit="8" fill="none" fill-rule="evenodd"/><path d="M0.00512021-1.99999 118.823-1.69581 118.813 2.30418-0.00512021 1.99999ZM118.818 0.304187 110.843-9.71626 130.818 0.334908 110.792 10.2837Z" fill="#1B5968" transform="matrix(1 0 0 -1 877 408.335)"/><path d="M694.205 329.248C693.675 325.55 691.132 315 682.974 315 675.45 315 671 322.613 671 324.789 671 325.659 671.742 325.659 672.272 325.659 672.801 325.659 673.225 325.659 673.543 325.006 674.709 321.526 679.053 320.982 681.808 320.982 684.775 320.982 688.272 321.634 690.073 324.245 691.45 326.42 691.874 330.879 691.874 333.163 691.874 335.338 691.768 335.665 691.45 336.861 689.967 341.211 688.378 347.085 688.378 349.042 688.378 349.477 688.378 351 689.649 351 690.921 351 691.556 348.934 691.768 348.281 692.192 346.976 693.57 342.082 694.205 336.535 694.311 335.882 694.311 335.773 694.417 335.338 695.795 331.314 698.338 325.006 702.152 318.045 702.47 317.502 703 316.414 703 316.196 703 315.435 702.258 315.435 701.834 315.435 701.305 315.435 701.093 315.435 700.775 315.653 700.669 315.761 697.914 320.438 694.205 329.248" fill="#C35861" fill-rule="evenodd"/><path d="M710.945 306.406C710.509 306.097 710.4 305.994 709.855 305.994 708.764 305.994 708 307.026 708 307.852 708 308.987 708.873 309.297 709.418 309.503L714.655 311.052 709.855 312.497C708.873 312.806 708 313.013 708 314.148 708 314.974 708.764 316.006 709.855 316.006 710.291 316.006 710.4 316.006 711.491 315.284L716.073 312.394C715.964 313.116 715.091 317.142 715.091 317.452 715.091 318.381 716.073 319 717.055 319 717.927 319 718.909 318.484 718.909 317.452 718.909 317.142 718.036 313.013 717.927 312.394L722.618 315.387C723.6 316.006 723.709 316.006 724.145 316.006 725.236 316.006 726 314.974 726 314.148 726 313.013 725.127 312.703 724.582 312.6L719.345 311.052 724.145 309.606C725.236 309.297 726 308.987 726 307.852 726 307.026 725.236 305.994 724.145 305.994 723.709 305.994 723.6 305.994 722.618 306.716L717.927 309.606C718.036 308.987 718.909 304.858 718.909 304.548 718.909 303.516 717.818 303 717.055 303 716.073 303 715.091 303.619 715.091 304.548 715.091 304.755 715.2 304.961 715.636 307.129L716.073 309.606 710.945 306.406" fill="#C35861" fill-rule="evenodd"/><path d="M836 265.536C836 265.322 835.893 265 835.463 265 834.927 265 832.781 267.145 831.815 268.754 830.634 265.858 828.595 265 826.878 265 820.546 265 814 272.937 814 280.659 814 285.915 817.112 289.24 821.083 289.24 823.337 289.24 825.483 287.953 827.415 286.022 826.878 287.953 825.161 295.139 824.946 295.568 824.517 297.069 824.088 297.284 821.083 297.391 820.439 297.391 819.902 297.391 819.902 298.464 819.902 298.464 819.902 299 820.546 299 822.263 299 824.195 298.893 825.912 298.893 827.737 298.893 829.668 299 831.385 299 831.707 299 832.351 299 832.351 297.927 832.351 297.391 831.815 297.391 830.956 297.391 828.488 297.391 828.488 296.962 828.488 296.533 828.488 296.104 828.595 295.782 828.702 295.353L836 265.536ZM821.19 288.06C817.971 288.06 817.756 283.984 817.756 283.019 817.756 280.445 819.366 274.653 820.224 272.401 821.941 268.432 824.732 266.18 826.878 266.18 830.312 266.18 831.063 270.47 831.063 270.899 831.063 271.221 828.166 282.912 828.059 283.126 827.2 284.628 824.195 288.06 821.19 288.06" fill="#C35861" fill-rule="evenodd"/><path d="M889.202 272.051C890.048 272.051 891 272.051 891 271.026 891 270 890.048 270 889.308 270L857.692 270C856.952 270 856 270 856 271.026 856 272.051 856.952 272.051 857.798 272.051L889.202 272.051ZM889.308 282C890.048 282 891 282 891 280.974 891 279.949 890.048 279.949 889.202 279.949L857.798 279.949C856.952 279.949 856 279.949 856 280.974 856 282 856.952 282 857.692 282L889.308 282" fill="#C35861" fill-rule="evenodd"/><path d="M924.319 252.631C924.319 252.526 924.319 252 923.575 252 922.407 252 918.478 252.42 917.097 252.526 916.673 252.631 916.142 252.631 916.142 253.577 916.142 254.207 916.566 254.207 917.416 254.207 919.965 254.207 920.071 254.628 920.071 255.153L919.858 256.205 912.212 286.372C912 287.108 912 287.213 912 287.528 912 288.685 913.062 289 913.593 289 914.23 289 914.973 288.474 915.292 287.949 915.611 287.423 917.947 277.753 918.266 276.386 920.071 276.597 924.425 277.438 924.425 280.906 924.425 281.222 924.425 281.432 924.319 281.957 924.212 282.588 924.106 283.219 924.106 283.849 924.106 286.898 926.23 289 928.991 289 930.584 289 931.965 288.159 933.133 286.267 934.513 283.955 935.044 281.011 935.044 280.906 935.044 280.381 934.619 280.381 934.407 280.381 933.876 280.381 933.876 280.591 933.664 281.327 932.602 285.216 931.434 287.844 929.097 287.844 928.035 287.844 927.398 287.318 927.398 285.426 927.398 284.48 927.611 283.324 927.823 282.483 928.035 281.537 928.035 281.327 928.035 280.801 928.035 277.438 924.637 275.861 920.177 275.335 921.77 274.389 923.469 272.707 924.743 271.446 927.292 268.608 929.734 266.401 932.283 266.401 932.602 266.401 932.708 266.401 932.814 266.401 933.451 266.506 933.451 266.506 933.876 266.821 933.982 266.926 933.982 266.926 934.089 267.031 931.54 267.241 931.115 269.239 931.115 269.869 931.115 270.71 931.646 271.761 933.133 271.761 934.513 271.761 936 270.605 936 268.503 936 266.926 934.832 265.244 932.389 265.244 930.903 265.244 928.46 265.665 924.637 269.869 922.832 271.866 920.814 273.969 918.796 274.705L924.319 252.631" fill="#C35861" fill-rule="evenodd"/><path d="M985.155 277C986.023 277 987 277 987 276 987 275 986.023 275 985.155 275L955.845 275C954.977 275 954 275 954 276 954 277 954.977 277 955.845 277L985.155 277" fill="#C35861" fill-rule="evenodd"/><path d="M1018.32 252.631C1018.32 252.526 1018.32 252 1017.58 252 1016.41 252 1012.48 252.42 1011.1 252.526 1010.67 252.631 1010.14 252.631 1010.14 253.577 1010.14 254.207 1010.57 254.207 1011.42 254.207 1013.96 254.207 1014.07 254.628 1014.07 255.153L1013.86 256.205 1006.21 286.372C1006 287.108 1006 287.213 1006 287.528 1006 288.685 1007.06 289 1007.49 289 1008.23 289 1008.97 288.474 1009.29 287.949 1009.61 287.423 1011.95 277.753 1012.27 276.386 1014.07 276.597 1018.42 277.438 1018.42 280.906 1018.42 281.222 1018.42 281.432 1018.32 281.957 1018.21 282.588 1018.11 283.219 1018.11 283.849 1018.11 286.898 1020.23 289 1022.88 289 1024.48 289 1025.96 288.159 1027.13 286.267 1028.41 283.955 1029.04 281.011 1029.04 280.906 1029.04 280.381 1028.51 280.381 1028.41 280.381 1027.88 280.381 1027.77 280.591 1027.66 281.327 1026.6 285.216 1025.33 287.844 1022.99 287.844 1022.04 287.844 1021.4 287.318 1021.4 285.426 1021.4 284.48 1021.61 283.324 1021.82 282.483 1022.04 281.537 1022.04 281.327 1022.04 280.801 1022.04 277.438 1018.64 275.861 1014.18 275.335 1015.77 274.389 1017.47 272.707 1018.74 271.446 1021.29 268.608 1023.63 266.401 1026.28 266.401 1026.6 266.401 1026.6 266.401 1026.71 266.401 1027.35 266.506 1027.45 266.506 1027.88 266.821 1027.98 266.926 1027.98 266.926 1028.09 267.031 1025.54 267.241 1025.01 269.239 1025.01 269.869 1025.01 270.71 1025.65 271.761 1027.03 271.761 1028.41 271.761 1030 270.605 1030 268.503 1030 266.926 1028.73 265.244 1026.39 265.244 1024.9 265.244 1022.46 265.665 1018.64 269.869 1016.83 271.866 1014.81 273.969 1012.8 274.705L1018.32 252.631" fill="#C35861" fill-rule="evenodd"/><path d="M1042.69 252.254C1043 251.624 1043 251.309 1043 251.099 1043 249.945 1041.98 249 1040.85 249 1039.52 249 1039.11 250.155 1038.91 250.785L1034.2 266.635C1034.2 266.74 1034 267.16 1034 267.265 1034 267.685 1035.13 268 1035.43 268 1035.64 268 1035.74 268 1035.94 267.37L1042.69 252.254" fill="#C35861" fill-rule="evenodd"/><path d="M395.319 146.54C395.319 146.54 395.319 146 394.575 146 393.407 146 389.584 146.432 388.204 146.54 387.779 146.54 387.142 146.648 387.142 147.619 387.142 148.267 387.673 148.267 388.416 148.267 390.965 148.267 391.071 148.591 391.071 149.131L390.858 150.21 383.212 181.301C383 182.057 383 182.165 383 182.489 383 183.784 384.062 184 384.593 184 385.23 184 386.08 183.568 386.398 182.92 386.611 182.381 389.053 172.449 389.265 171.045 391.071 171.261 395.425 172.125 395.425 175.688 395.425 176.011 395.425 176.227 395.319 176.767 395.212 177.415 395.106 178.063 395.106 178.71 395.106 181.841 397.23 184 399.991 184 401.584 184 402.965 183.136 404.133 181.193 405.513 178.818 406.044 175.795 406.044 175.688 406.044 175.148 405.619 175.148 405.407 175.148 404.876 175.148 404.876 175.364 404.664 176.119 403.602 180.114 402.434 182.813 400.097 182.813 399.035 182.813 398.398 182.273 398.398 180.33 398.398 179.358 398.611 178.17 398.823 177.307 399.035 176.335 399.035 176.119 399.035 175.58 399.035 172.125 395.637 170.506 391.177 169.966 392.77 168.994 394.469 167.267 395.743 165.972 398.292 163.057 400.734 160.79 403.283 160.79 403.602 160.79 403.708 160.79 403.814 160.79 404.451 160.898 404.451 160.898 404.876 161.222 404.982 161.33 404.982 161.33 405.089 161.438 402.54 161.653 402.115 163.705 402.115 164.352 402.115 165.216 402.646 166.295 404.133 166.295 405.513 166.295 407 165.108 407 162.949 407 161.33 405.832 159.602 403.389 159.602 401.903 159.602 399.46 160.034 395.637 164.352 393.832 166.403 391.814 168.563 389.796 169.318L395.319 146.54" fill-rule="evenodd"/><path d="M810.832 80.6477C810.832 80.5398 810.832 80 810.057 80 808.841 80 804.858 80.4318 803.42 80.5398 802.978 80.6477 802.314 80.6477 802.314 81.6193 802.314 82.267 802.867 82.267 803.642 82.267 806.296 82.267 806.407 82.6989 806.407 83.2386L806.186 84.3182 798.221 115.301C798 116.057 798 116.165 798 116.489 798 117.784 799.106 118 799.659 118 800.323 118 801.208 117.568 801.54 116.92 801.761 116.381 804.305 106.449 804.527 105.045 806.407 105.261 810.943 106.125 810.943 109.688 810.943 110.011 810.943 110.227 810.832 110.767 810.721 111.415 810.611 112.063 810.611 112.71 810.611 115.841 812.823 118 815.699 118 817.358 118 818.796 117.136 820.013 115.193 821.451 112.818 822.004 109.795 822.004 109.688 822.004 109.148 821.562 109.148 821.341 109.148 820.788 109.148 820.788 109.364 820.566 110.119 819.46 114.114 818.243 116.813 815.81 116.813 814.704 116.813 814.04 116.273 814.04 114.33 814.04 113.358 814.261 112.17 814.482 111.307 814.704 110.335 814.704 110.119 814.704 109.58 814.704 106.125 811.164 104.506 806.518 103.966 808.177 102.994 809.947 101.267 811.274 99.9716 813.929 97.0568 816.473 94.7898 819.128 94.7898 819.46 94.7898 819.571 94.7898 819.681 94.7898 820.345 94.8977 820.345 94.8977 820.788 95.2216 820.898 95.3295 820.898 95.3295 821.009 95.4375 818.354 95.6534 817.911 97.7045 817.911 98.3523 817.911 99.2159 818.465 100.295 820.013 100.295 821.451 100.295 823 99.108 823 96.9489 823 95.3295 821.783 93.6023 819.239 93.6023 817.69 93.6023 815.146 94.0341 811.164 98.3523 809.283 100.403 807.181 102.563 805.08 103.318L810.832 80.6477" fill-rule="evenodd"/><path d="M835.693 80.4254C836 79.7624 836 79.4309 836 79.0994 836 77.9945 834.977 77 833.852 77 832.523 77 832.114 78.2155 831.909 78.8785L827.205 95.5635C827.205 95.674 827 96.116 827 96.116 827 96.6685 828.125 97 828.432 97 828.739 97 828.739 96.8895 828.943 96.337L835.693 80.4254" fill-rule="evenodd"/><path d="M167 515 384.351 515 384.351 519 167 519ZM384.351 517 376.351 507 396.351 517 376.351 527Z" fill="#1B5968"/><path d="M167 544 384.351 544 384.351 548 167 548ZM384.351 546 376.351 536 396.351 546 376.351 556Z" fill="#117877"/><path d="M167 573 384.351 573 384.351 577 167 577ZM384.351 575 376.351 565 396.351 575 376.351 585Z" fill="#A3C2A3"/><path d="M383.983 469.32 393.056 469.32C400.635 469.32 408 463.83 408 457.918 408 453.906 404.478 450 397.539 450L380.247 450C379.287 450 378.646 450 378.646 450.95 378.646 451.584 379.18 451.584 380.247 451.584 380.888 451.584 381.848 451.689 382.489 451.689 383.343 451.795 383.663 452.006 383.663 452.534 383.663 452.745 383.663 452.956 383.449 453.589L376.298 481.883C375.764 483.994 375.657 484.416 371.494 484.416 370.534 484.416 370 484.416 370 485.367 370 486 370.64 486 370.747 486 372.242 486 376.084 485.789 377.579 485.789 378.646 485.789 379.82 485.894 380.994 485.894 382.169 485.894 383.343 486 384.41 486 384.837 486 385.478 486 385.478 484.944 385.478 484.416 385.051 484.416 383.983 484.416 382.062 484.416 380.567 484.416 380.567 483.466 380.567 483.15 380.674 482.833 380.674 482.516L383.983 469.32ZM387.826 453.589C388.36 451.795 388.466 451.584 390.708 451.584L395.831 451.584C400.208 451.584 403.09 453.062 403.09 456.651 403.09 458.762 402.022 463.302 399.888 465.202 397.326 467.525 394.124 467.947 391.775 467.947L384.197 467.947 387.826 453.589" fill="#1B5968" fill-rule="evenodd"/><path d="M738.092 447.151C737.662 448.969 737.554 449.396 735.185 449.396 734.538 449.396 734 449.396 734 450.358 734 450.786 734.215 451 734.646 451 736.154 451 737.662 450.893 739.169 450.893 741 450.893 742.831 451 744.554 451 744.769 451 745.523 451 745.523 449.931 745.523 449.396 744.985 449.396 744.231 449.396 741.538 449.396 741.538 448.969 741.538 448.541 741.538 447.899 743.8 439.132 744.123 437.849 744.877 439.346 746.385 441.27 749.077 441.27 755.323 441.27 762 433.465 762 425.553 762 420.528 758.985 417 754.892 417 752.2 417 749.615 418.925 747.892 421.063 747.354 418.176 744.985 417 743.046 417 740.569 417 739.492 419.138 739.062 420.101 738.092 421.918 737.338 425.126 737.338 425.233 737.338 425.767 737.877 425.767 737.985 425.767 738.523 425.767 738.631 425.767 738.954 424.591 739.815 420.742 740.892 418.176 742.831 418.176 743.8 418.176 744.554 418.604 744.554 420.635 744.554 421.918 744.338 422.453 744.123 423.415L738.092 447.151ZM747.569 423.95C748 422.56 749.4 421.063 750.369 420.208 752.2 418.604 753.815 418.176 754.677 418.176 756.831 418.176 758.123 420.101 758.123 423.201 758.123 426.409 756.4 432.503 755.431 434.535 753.6 438.277 751.015 440.094 749.077 440.094 745.523 440.094 744.769 435.604 744.769 435.283 744.769 435.176 744.769 435.069 744.985 434.428L747.569 423.95" fill="#1B5968" fill-rule="evenodd"/><path d="M940.092 385.252C939.662 387.022 939.554 387.438 937.185 387.438 936.538 387.438 936 387.438 936 388.375 936 388.792 936.215 389 936.646 389 938.154 389 939.662 388.896 941.169 388.896 943 388.896 944.831 389 946.554 389 946.769 389 947.523 389 947.523 387.959 947.523 387.438 946.985 387.438 946.231 387.438 943.538 387.438 943.538 387.022 943.538 386.606 943.538 385.981 945.8 377.549 946.123 376.196 946.877 377.757 948.385 379.527 951.077 379.527 957.323 379.527 964 371.927 964 364.328 964 359.435 960.985 356 956.892 356 954.2 356 951.615 357.874 949.892 359.956 949.354 357.145 946.985 356 945.046 356 942.569 356 941.492 358.082 941.062 359.019 940.092 360.789 939.338 363.808 939.338 364.016 939.338 364.536 939.877 364.536 939.985 364.536 940.523 364.536 940.631 364.432 940.954 363.391 941.815 359.644 942.892 357.145 944.831 357.145 945.8 357.145 946.554 357.562 946.554 359.539 946.554 360.789 946.338 361.309 946.123 362.246L940.092 385.252ZM949.569 362.767C950 361.413 951.4 359.956 952.369 359.123 954.308 357.562 955.815 357.145 956.785 357.145 958.831 357.145 960.123 359.019 960.123 362.038 960.123 365.057 958.4 371.095 957.431 373.073 955.6 376.716 953.015 378.382 951.077 378.382 947.523 378.382 946.769 374.114 946.769 373.801 946.769 373.697 946.769 373.593 946.985 372.968L949.569 362.767" fill="#1B5968" fill-rule="evenodd"/><path d="M998.084 367.084 1013.27 367.084C1014.02 367.084 1015 367.084 1015 366 1015 364.916 1014.02 364.916 1013.27 364.916L998.084 364.916 998.084 349.735C998.084 348.976 998.084 348 997 348 995.916 348 995.916 348.976 995.916 349.735L995.916 364.916 980.843 364.916C980.084 364.916 979 364.916 979 366 979 367.084 980.084 367.084 980.843 367.084L995.916 367.084 995.916 382.265C995.916 383.024 995.916 384 997 384 998.084 384 998.084 383.024 998.084 382.265L998.084 367.084" fill="#1B5968" fill-rule="evenodd"/><path d="M1054 356.625C1054 356.416 1053.89 356.104 1053.46 356.104 1052.93 356.104 1050.78 358.186 1049.81 359.644 1048.63 356.833 1046.6 356 1044.88 356 1038.55 356 1032 363.703 1032 371.199 1032 376.3 1035.11 379.527 1039.08 379.527 1041.34 379.527 1043.48 378.278 1045.31 376.404 1044.88 378.278 1043.16 385.252 1042.95 385.669 1042.52 387.126 1042.09 387.334 1039.08 387.438 1038.44 387.438 1037.9 387.438 1037.9 388.479 1037.9 388.479 1037.9 389 1038.55 389 1040.26 389 1042.2 388.896 1043.91 388.896 1045.74 388.896 1047.67 389 1049.39 389 1049.71 389 1050.35 389 1050.35 387.959 1050.35 387.438 1049.81 387.438 1048.96 387.438 1046.38 387.438 1046.38 387.022 1046.38 386.606 1046.38 386.189 1046.49 385.877 1046.6 385.461L1054 356.625ZM1039.19 378.382C1035.97 378.382 1035.76 374.426 1035.76 373.489 1035.76 370.991 1037.37 365.369 1038.22 363.183 1039.94 359.331 1042.73 357.145 1044.88 357.145 1048.31 357.145 1049.06 361.413 1049.06 361.726 1049.06 362.038 1046.17 373.385 1045.95 373.593 1045.2 375.05 1042.2 378.382 1039.19 378.382" fill="#1B5968" fill-rule="evenodd"/></g></svg>