<svg width="376" height="224" xmlns="http://www.w3.org/2000/svg" xmlns:xlink="http://www.w3.org/1999/xlink" overflow="hidden"><defs><clipPath id="clip0"><path d="M477 162 853 162 853 386 477 386Z" fill-rule="evenodd" clip-rule="evenodd"/></clipPath></defs><g clip-path="url(#clip0)" transform="translate(-477 -162)"><path d="M0 0 30.6383 164.373" stroke="#117877" stroke-width="2.33333" stroke-miterlimit="8" fill="none" fill-rule="evenodd" transform="matrix(1 0 0 -1 636 362.373)"/><path d="M0.5-2.77004e-07 0.500101 182.838-0.499899 182.838-0.5 2.77004e-07ZM4.0001 181.504 0.000104987 189.504-3.9999 181.504Z" fill="#777777" transform="matrix(1 0 0 -1 636.5 381.005)"/><path d="M617.5 363 816.661 363 816.661 364 617.5 364ZM815.327 359.5 823.327 363.5 815.327 367.5Z" fill="#777777"/><path d="M656.564 385.506 504.743 233.685 505.685 232.743 657.506 384.564ZM503.328 236.985 500.5 228.5 508.985 231.328Z"/><path d="M0.471404-0.471404 152.292 151.35 151.35 152.292-0.471404 0.471404ZM153.707 148.05 156.535 156.535 148.05 153.707Z" transform="matrix(1 0 0 -1 615.5 385.035)"/><path d="M506 234.533C549.889 278.401 593.734 326.089 637.067 326 680.401 325.911 747.755 251.985 766 234" stroke="#C35861" stroke-width="2.33333" stroke-miterlimit="8" fill="none" fill-rule="evenodd"/><path d="M690.786 191.677C690.893 191.187 691 190.807 691 190.154 691 187.653 688.918 187 686.996 187 686.463 187 684.488 187 682.619 189.066 682.246 187.707 680.751 187 679.363 187 678.349 187 677.601 187.544 677.014 188.523 676.374 189.61 676 191.079 676 191.242 676 191.622 676.427 191.622 676.641 191.622 676.961 191.622 677.068 191.622 677.174 191.459 677.228 191.405 677.228 191.35 677.388 190.698 677.922 188.523 678.562 187.979 679.203 187.979 679.523 187.979 679.843 188.088 679.843 188.958 679.843 189.447 679.737 189.882 679.47 190.97 679.256 191.731 678.989 192.819 678.883 193.417L677.922 197.169C677.815 197.55 677.708 198.094 677.708 198.257 677.708 198.855 678.135 199.453 678.936 199.453 680.324 199.453 680.644 198.202 680.804 197.387 681.071 196.408 681.285 195.538 681.552 194.396 681.658 194.015 682.352 191.242 682.406 191.133 682.406 190.97 683.153 189.773 684.06 189.012 684.808 188.414 685.662 187.979 686.783 187.979 687.477 187.979 688.117 188.251 688.117 189.556 688.117 190.263 688.011 190.644 687.904 191.133L684.968 203.097C684.861 203.532 684.861 203.695 684.861 203.804 684.861 204.674 685.555 205 686.089 205 686.409 205 687.477 204.946 687.904 203.314L690.786 191.677" fill="#117877" fill-rule="evenodd"/><path d="M710.076 191.026C710.511 191.026 711 191.026 711 190.513 711 190 710.511 190 710.13 190L693.87 190C693.489 190 693 190 693 190.513 693 191.026 693.489 191.026 693.924 191.026L710.076 191.026ZM710.13 196C710.511 196 711 196 711 195.487 711 194.974 710.511 194.974 710.076 194.974L693.924 194.974C693.489 194.974 693 194.974 693 195.487 693 196 693.489 196 693.87 196L710.13 196" fill="#117877" fill-rule="evenodd"/><path d="M715.432 193.528C715.432 188.873 717.805 187.681 719.311 187.681 719.542 187.681 721.395 187.738 722.379 188.76 721.221 188.817 721.047 189.668 721.047 190.066 721.047 190.803 721.568 191.371 722.379 191.371 723.132 191.371 723.711 190.86 723.711 190.009 723.711 188.079 721.51 187 719.253 187 715.663 187 713 190.066 713 193.585 713 197.162 715.895 200 719.195 200 723.074 200 724 196.594 724 196.31 724 196.026 723.711 196.026 723.653 196.026 723.363 196.026 723.305 196.14 723.247 196.31 722.437 198.921 720.526 199.262 719.484 199.262 717.979 199.262 715.432 198.07 715.432 193.528" fill="#117877" fill-rule="evenodd"/><path d="M737 193.642C737 190.009 734.285 187 731.027 187 727.606 187 725 190.066 725 193.642 725 197.275 727.824 200 730.973 200 734.231 200 737 197.218 737 193.642ZM731.027 199.262C729.833 199.262 728.638 198.694 727.932 197.389 727.226 196.14 727.226 194.437 727.226 193.415 727.226 192.279 727.226 190.747 727.878 189.498 728.638 188.192 729.887 187.624 730.973 187.624 732.167 187.624 733.308 188.249 734.014 189.441 734.719 190.69 734.719 192.336 734.719 193.415 734.719 194.437 734.719 195.913 734.122 197.162 733.525 198.467 732.33 199.262 731.027 199.262" fill="#117877" fill-rule="evenodd"/><path d="M740.175 190.45 740.175 197.1C740.175 198.25 739.841 198.25 738 198.25L738 199C738.948 199 740.398 198.95 741.124 198.95 741.849 198.95 743.299 199 744.247 199L744.247 198.25C742.406 198.25 742.072 198.25 742.072 197.1L742.072 192.55C742.072 189.95 744.08 188.55 745.865 188.55 747.594 188.55 747.928 189.9 747.928 191.3L747.928 197.1C747.928 198.25 747.594 198.25 745.753 198.25L745.753 199C746.701 199 748.151 198.95 748.876 198.95 749.602 198.95 751.052 199 752 199L752 198.25C750.55 198.25 749.825 198.25 749.825 197.5L749.825 192.75C749.825 190.6 749.825 189.8 748.988 188.9 748.598 188.5 747.649 188 746.032 188 744.024 188 742.685 189.05 741.904 190.6L741.904 188 738 188.25 738 189.05C739.952 189.05 740.175 189.2 740.175 190.45" fill="#117877" fill-rule="evenodd"/><path d="M757.829 194.21C758.433 194.323 760.683 194.777 760.683 196.764 760.683 198.24 759.695 199.376 757.555 199.376 755.25 199.376 754.262 197.729 753.768 195.345 753.659 195.004 753.659 194.891 753.384 194.891 753 194.891 753 195.061 753 195.572L753 199.319C753 199.773 753 200 753.329 200 753.439 200 753.494 199.943 753.988 199.432 754.043 199.376 754.043 199.319 754.537 198.751 755.744 199.943 757.006 200 757.555 200 760.738 200 762 198.07 762 196.026 762 194.55 761.177 193.699 760.848 193.358 759.915 192.45 758.872 192.223 757.719 191.996 756.183 191.712 754.317 191.314 754.317 189.668 754.317 188.703 755.031 187.511 757.39 187.511 760.409 187.511 760.573 190.066 760.628 190.974 760.628 191.201 760.902 191.201 760.957 191.201 761.287 191.201 761.287 191.087 761.287 190.52L761.287 187.681C761.287 187.17 761.287 187 761.012 187 760.848 187 760.793 187 760.463 187.341 760.354 187.454 760.079 187.681 759.969 187.795 758.927 187 757.829 187 757.39 187 754.043 187 753 188.873 753 190.463 753 191.485 753.439 192.279 754.207 192.904 755.085 193.642 755.854 193.812 757.829 194.21" fill="#117877" fill-rule="evenodd"/><path d="M767.442 188.866 771.538 188.866 771.538 187.997 767.442 187.997 767.442 183 766.692 183C766.692 185.227 765.827 188.16 763 188.268L763 188.866 765.423 188.866 765.423 196.307C765.423 199.674 768.135 200 769.173 200 771.192 200 772 198.045 772 196.307L772 194.786 771.308 194.786 771.308 196.252C771.308 198.262 770.442 199.294 769.346 199.294 767.442 199.294 767.442 196.85 767.442 196.361L767.442 188.866" fill="#117877" fill-rule="evenodd"/><path d="M776 198C776 197.448 776.448 197 777 197 777.552 197 778 197.448 778 198 778 198.552 777.552 199 777 199 776.448 199 776 198.552 776 198Z" fill="#117877" fill-rule="evenodd"/><path d="M741.839 281.526 747.042 281.526C747.601 281.526 747.993 281.526 748.441 281.105 749 280.684 749 280.053 749 280 749 279 747.993 279 747.49 279L738.315 279C737.699 279 736.524 279 735.07 280.263 734.063 281.105 733 282.421 733 282.684 733 283.053 733.336 283.053 733.615 283.053 734.063 283.053 734.063 283.053 734.343 282.737 735.406 281.526 737.252 281.526 737.755 281.526L740.273 281.526 739.266 284.316C738.986 284.947 738.371 286.632 738.147 287.316 737.867 288.158 737.364 289.526 737.364 289.842 737.364 290.579 737.923 291 738.65 291 738.818 291 740.273 291 740.552 289.263L741.839 281.526" fill="#C35861" fill-rule="evenodd"/><path d="M768.078 282.197C768.458 282.197 769 282.197 769 281.598 769 281 768.458 281 768.078 281L751.867 281C751.488 281 751 281 751 281.598 751 282.197 751.488 282.197 751.922 282.197L768.078 282.197ZM768.078 288C768.458 288 769 288 769 287.402 769 286.803 768.458 286.803 768.078 286.803L751.922 286.803C751.488 286.803 751 286.803 751 287.402 751 288 751.488 288 751.867 288L768.078 288" fill="#C35861" fill-rule="evenodd"/><path d="M773.374 285.026C773.374 280.729 775.747 279.629 777.253 279.629 777.542 279.629 779.337 279.681 780.379 280.624 779.163 280.677 778.99 281.463 778.99 281.83 778.99 282.511 779.51 283.035 780.321 283.035 781.074 283.035 781.653 282.563 781.653 281.777 781.653 279.996 779.453 279 777.253 279 773.605 279 771 281.83 771 285.079 771 288.432 773.837 291 777.195 291 781.074 291 782 287.856 782 287.594 782 287.332 781.711 287.332 781.595 287.332 781.363 287.332 781.305 287.437 781.247 287.594 780.379 290.057 778.526 290.371 777.426 290.371 775.921 290.371 773.374 289.218 773.374 285.026" fill="#C35861" fill-rule="evenodd"/><path d="M795 285.131C795 281.777 792.285 279 789.027 279 785.606 279 783 281.83 783 285.131 783 288.485 785.824 291 788.973 291 792.285 291 795 288.432 795 285.131ZM789.027 290.371C787.833 290.371 786.638 289.795 785.932 288.59 785.226 287.437 785.226 285.865 785.226 284.921 785.226 283.873 785.226 282.459 785.878 281.306 786.638 280.1 787.887 279.576 788.973 279.576 790.167 279.576 791.362 280.153 792.068 281.253 792.774 282.406 792.774 283.926 792.774 284.921 792.774 285.865 792.774 287.279 792.176 288.432 791.579 289.585 790.385 290.371 789.027 290.371" fill="#C35861" fill-rule="evenodd"/><path d="M799.02 281.661 799.02 288.937C799.02 290.131 798.761 290.131 797 290.131L797 291C797.932 290.946 799.227 290.891 799.952 290.891 800.574 290.891 801.92 290.946 802.801 291L802.801 290.131C801.092 290.131 800.781 290.131 800.781 288.937L800.781 283.941C800.781 281.118 802.645 279.597 804.303 279.597 805.908 279.597 806.219 281.063 806.219 282.584L806.219 288.937C806.219 290.131 805.908 290.131 804.199 290.131L804.199 291C805.08 290.946 806.426 290.891 807.1 290.891 807.773 290.891 809.12 290.946 810 291L810 290.131C808.653 290.131 808.032 290.131 807.98 289.317L807.98 284.158C807.98 281.824 807.98 280.955 807.203 279.977 806.841 279.543 805.96 279 804.458 279 802.594 279 801.351 280.14 800.625 281.824L800.625 279 797 279.271 797 280.14C798.813 280.14 799.02 280.303 799.02 281.661" fill="#C35861" fill-rule="evenodd"/><path d="M815.804 285.655C816.411 285.76 818.675 286.179 818.675 288.065 818.675 289.376 817.681 290.424 815.528 290.424 813.264 290.424 812.27 288.956 811.718 286.703 811.663 286.389 811.607 286.284 811.331 286.284 811 286.284 811 286.441 811 286.913L811 290.371C811 290.843 811 291 811.276 291 811.442 291 811.442 291 811.994 290.476 812.049 290.424 812.049 290.371 812.546 289.9 813.706 291 814.975 291 815.528 291 818.73 291 820 289.271 820 287.384 820 285.969 819.172 285.183 818.841 284.869 817.902 284.031 816.853 283.821 815.693 283.611 814.147 283.349 812.325 282.983 812.325 281.463 812.325 280.572 813.043 279.472 815.362 279.472 818.399 279.472 818.564 281.83 818.62 282.668 818.62 282.878 818.896 282.878 818.951 282.878 819.282 282.878 819.282 282.773 819.282 282.249L819.282 279.629C819.282 279.157 819.282 279 819.006 279 818.841 279 818.785 279 818.454 279.314 818.344 279.419 818.068 279.629 817.957 279.734 816.908 279 815.804 279 815.362 279 812.049 279 811 280.729 811 282.197 811 283.14 811.442 283.873 812.159 284.45 813.043 285.131 813.816 285.288 815.804 285.655" fill="#C35861" fill-rule="evenodd"/><path d="M825.442 280.487 829.538 280.487 829.538 279.667 825.442 279.667 825.442 275 824.692 275C824.692 277.103 823.827 279.821 821 279.923L821 280.487 823.481 280.487 823.481 287.564C823.481 290.692 826.135 291 827.173 291 829.192 291 830 289.205 830 287.564L830 286.077 829.308 286.077 829.308 287.513C829.308 289.41 828.442 290.385 827.346 290.385 825.442 290.385 825.442 288.026 825.442 287.615L825.442 280.487" fill="#C35861" fill-rule="evenodd"/><path d="M834 289.5C834 288.672 834.448 288 835 288 835.552 288 836 288.672 836 289.5 836 290.328 835.552 291 835 291 834.448 291 834 290.328 834 289.5Z" fill="#C35861" fill-rule="evenodd"/><path d="M636.581 176.717C636.75 176.027 637.371 173.584 639.347 173.584 639.516 173.584 640.137 173.584 640.758 173.903 639.968 174.062 639.403 174.699 639.403 175.336 639.403 175.761 639.742 176.292 640.476 176.292 641.097 176.292 642 175.814 642 174.752 642 173.372 640.306 173 639.403 173 637.766 173 636.75 174.381 636.411 175.018 635.734 173.265 634.21 173 633.363 173 630.427 173 628.847 176.398 628.847 177.089 628.847 177.354 629.129 177.354 629.185 177.354 629.411 177.354 629.524 177.301 629.581 177.035 630.484 174.221 632.347 173.584 633.306 173.584 633.871 173.584 634.831 173.796 634.831 175.336 634.831 176.186 634.379 177.938 633.306 181.655 632.855 183.301 631.895 184.416 630.653 184.416 630.484 184.416 629.806 184.416 629.242 184.097 629.976 183.938 630.54 183.407 630.54 182.664 630.54 181.92 629.976 181.708 629.524 181.708 628.677 181.708 628 182.398 628 183.248 628 184.469 629.411 185 630.597 185 632.46 185 633.476 183.142 633.589 182.982 633.927 183.991 634.944 185 636.637 185 639.516 185 641.097 181.602 641.097 180.911 641.097 180.646 640.871 180.646 640.758 180.646 640.532 180.646 640.476 180.752 640.419 180.965 639.516 183.779 637.597 184.416 636.694 184.416 635.565 184.416 635.113 183.566 635.113 182.664 635.113 182.08 635.282 181.496 635.621 180.327L636.581 176.717" fill="#777777" fill-rule="evenodd"/><path d="M652 169.555C652 167.479 651.753 165.95 650.963 164.639 650.42 163.765 649.383 163 648 163 644 163 644 168.189 644 169.555 644 170.92 644 176 648 176 652 176 652 170.92 652 169.555ZM648 175.508C647.21 175.508 646.173 174.962 645.827 173.433 645.58 172.286 645.58 170.702 645.58 169.336 645.58 167.916 645.58 166.496 645.827 165.403 646.173 163.929 647.309 163.492 648 163.492 648.938 163.492 649.827 164.147 650.123 165.24 650.42 166.277 650.42 167.643 650.42 169.336 650.42 170.702 650.42 172.122 650.173 173.324 649.877 175.071 648.691 175.508 648 175.508" fill="#777777" fill-rule="evenodd"/><path d="M835.968 362.717C836.125 362.027 836.702 359.584 838.536 359.584 838.694 359.584 839.27 359.584 839.847 359.903 839.113 360.062 838.589 360.699 838.589 361.336 838.589 361.761 838.903 362.292 839.585 362.292 840.161 362.292 841 361.814 841 360.752 841 359.372 839.427 359 838.589 359 837.069 359 836.125 360.381 835.81 361.018 835.181 359.265 833.766 359 832.98 359 830.254 359 828.786 362.398 828.786 363.089 828.786 363.354 829.048 363.354 829.101 363.354 829.31 363.354 829.415 363.301 829.468 363.035 830.306 360.221 832.036 359.584 832.927 359.584 833.452 359.584 834.343 359.796 834.343 361.336 834.343 362.186 833.923 363.938 832.927 367.655 832.508 369.301 831.617 370.416 830.464 370.416 830.306 370.416 829.677 370.416 829.153 370.097 829.835 369.938 830.359 369.407 830.359 368.664 830.359 367.92 829.835 367.708 829.415 367.708 828.629 367.708 828 368.398 828 369.248 828 370.469 829.31 371 830.411 371 832.141 371 833.085 369.142 833.19 368.982 833.504 369.991 834.448 371 836.02 371 838.694 371 840.161 367.602 840.161 366.911 840.161 366.646 839.952 366.646 839.847 366.646 839.637 366.646 839.585 366.752 839.532 366.965 838.694 369.779 836.911 370.416 836.073 370.416 835.024 370.416 834.605 369.566 834.605 368.664 834.605 368.08 834.762 367.496 835.077 366.327L835.968 362.717" fill="#777777" fill-rule="evenodd"/><path d="M847.275 355.282C848.794 355.282 849.919 356.319 849.919 358.34 849.919 360.689 848.513 361.399 847.331 361.399 846.544 361.399 844.856 361.181 844.013 360.088 844.969 360.034 845.138 359.433 845.138 358.996 845.138 358.395 844.688 357.958 844.069 357.958 843.506 357.958 843 358.286 843 359.05 843 360.853 845.025 362 847.388 362 850.144 362 852 360.252 852 358.34 852 356.866 850.763 355.391 848.569 354.954 850.65 354.189 851.381 352.769 851.381 351.622 851.381 350.092 849.638 349 847.444 349 845.25 349 843.563 350.038 843.563 351.513 843.563 352.168 844.013 352.55 844.631 352.55 845.194 352.55 845.588 352.113 845.588 351.567 845.588 351.021 845.194 350.639 844.631 350.584 845.306 349.765 846.656 349.546 847.388 349.546 848.231 349.546 849.469 349.929 849.469 351.622 849.469 352.387 849.244 353.315 848.681 353.861 848.063 354.626 847.5 354.626 846.544 354.681 846.037 354.735 845.981 354.735 845.925 354.735 845.869 354.735 845.7 354.79 845.7 355.008 845.7 355.282 845.869 355.282 846.206 355.282L847.275 355.282" fill="#777777" fill-rule="evenodd"/><path d="M786.581 219.717C786.75 219.027 787.371 216.584 789.347 216.584 789.516 216.584 790.194 216.584 790.758 216.956 789.968 217.062 789.403 217.752 789.403 218.389 789.403 218.814 789.742 219.292 790.476 219.292 791.097 219.292 792 218.814 792 217.752 792 216.372 790.363 216 789.403 216 787.766 216 786.75 217.434 786.411 218.018 785.734 216.265 784.21 216 783.363 216 780.484 216 778.847 219.451 778.847 220.089 778.847 220.354 779.129 220.354 779.185 220.354 779.411 220.354 779.524 220.301 779.581 220.035 780.54 217.274 782.347 216.584 783.306 216.584 783.871 216.584 784.831 216.85 784.831 218.389 784.831 219.186 784.379 220.938 783.306 224.655 782.855 226.301 781.895 227.416 780.653 227.416 780.484 227.416 779.863 227.416 779.242 227.097 779.976 226.938 780.597 226.407 780.597 225.664 780.597 224.92 779.976 224.708 779.524 224.708 778.677 224.708 778 225.398 778 226.248 778 227.469 779.411 228 780.597 228 782.46 228 783.476 226.142 783.589 225.982 783.927 226.991 784.944 228 786.637 228 789.516 228 791.153 224.602 791.153 223.911 791.153 223.646 790.871 223.646 790.815 223.646 790.532 223.646 790.476 223.752 790.419 223.965 789.516 226.779 787.597 227.416 786.694 227.416 785.565 227.416 785.113 226.566 785.113 225.664 785.113 225.08 785.282 224.496 785.621 223.327L786.581 219.717" fill-rule="evenodd"/><path d="M801.492 213.93 807.289 213.93C807.563 213.93 808 213.93 808 213.525 808 213.07 807.563 213.07 807.289 213.07L801.492 213.07 801.492 207.658C801.492 207.405 801.492 207 801 207 800.563 207 800.563 207.405 800.563 207.658L800.563 213.07 794.656 213.07C794.438 213.07 794 213.07 794 213.475 794 213.93 794.438 213.93 794.656 213.93L800.563 213.93 800.563 219.342C800.563 219.595 800.563 220 801 220 801.492 220 801.492 219.595 801.492 219.342L801.492 213.93" fill-rule="evenodd"/><path d="M485.581 218.717C485.75 218.027 486.371 215.584 488.347 215.584 488.516 215.584 489.194 215.584 489.758 215.903 488.968 216.062 488.403 216.699 488.403 217.336 488.403 217.761 488.742 218.292 489.476 218.292 490.097 218.292 491 217.814 491 216.752 491 215.372 489.363 215 488.403 215 486.766 215 485.75 216.381 485.411 217.018 484.734 215.265 483.21 215 482.363 215 479.484 215 477.847 218.398 477.847 219.089 477.847 219.354 478.129 219.354 478.185 219.354 478.411 219.354 478.524 219.301 478.581 219.035 479.54 216.221 481.347 215.584 482.306 215.584 482.871 215.584 483.831 215.796 483.831 217.336 483.831 218.186 483.379 219.938 482.306 223.655 481.855 225.301 480.895 226.416 479.653 226.416 479.484 226.416 478.863 226.416 478.242 226.097 478.976 225.938 479.597 225.407 479.597 224.664 479.597 223.92 478.976 223.708 478.524 223.708 477.677 223.708 477 224.398 477 225.248 477 226.469 478.411 227 479.597 227 481.46 227 482.476 225.142 482.589 224.982 482.927 225.991 483.944 227 485.637 227 488.516 227 490.153 223.602 490.153 222.911 490.153 222.646 489.871 222.646 489.815 222.646 489.532 222.646 489.476 222.752 489.419 222.965 488.516 225.779 486.597 226.416 485.694 226.416 484.565 226.416 484.113 225.566 484.113 224.664 484.113 224.08 484.282 223.496 484.621 222.327L485.581 218.717" fill-rule="evenodd"/><path d="M506.229 213C506.504 213 507 213 507 212.471 507 212 506.559 212 506.229 212L494.771 212C494.441 212 494 212 494 212.471 494 213 494.441 213 494.771 213L506.229 213" fill-rule="evenodd"/></g></svg>