<svg width="425" height="278" xmlns="http://www.w3.org/2000/svg" xmlns:xlink="http://www.w3.org/1999/xlink" overflow="hidden"><defs><clipPath id="clip0"><path d="M430 222 855 222 855 500 430 500Z" fill-rule="evenodd" clip-rule="evenodd"/></clipPath><linearGradient x1="597.5" y1="314" x2="597.5" y2="480" gradientUnits="userSpaceOnUse" spreadMethod="reflect" id="fill1"><stop offset="0" stop-color="#FFFFFF"/><stop offset="0.00421941" stop-color="#FEFEFE"/><stop offset="0.00843882" stop-color="#FEFEFE"/><stop offset="0.0126582" stop-color="#FEFEFE"/><stop offset="0.0168776" stop-color="#FEFEFE"/><stop offset="0.021097" stop-color="#FEFEFE"/><stop offset="0.0253165" stop-color="#FEFEFE"/><stop offset="0.0295359" stop-color="#FEFEFE"/><stop offset="0.0337553" stop-color="#FEFEFE"/><stop offset="0.0379747" stop-color="#FEFEFE"/><stop offset="0.0421941" stop-color="#FEFEFE"/><stop offset="0.0464135" stop-color="#FEFEFE"/><stop offset="0.0506329" stop-color="#FEFEFE"/><stop offset="0.0548523" stop-color="#FDFEFE"/><stop offset="0.0590717" stop-color="#FDFEFE"/><stop offset="0.0632911" stop-color="#FDFEFE"/><stop offset="0.0675105" stop-color="#FDFEFE"/><stop offset="0.07173" stop-color="#FDFEFE"/><stop offset="0.0759494" stop-color="#FDFDFD"/><stop offset="0.0801688" stop-color="#FCFDFD"/><stop offset="0.0843882" stop-color="#FCFDFD"/><stop offset="0.0886076" stop-color="#FCFDFD"/><stop offset="0.092827" stop-color="#FCFDFD"/><stop offset="0.0970464" stop-color="#FBFDFD"/><stop offset="0.101266" stop-color="#FBFDFD"/><stop offset="0.105485" stop-color="#FBFDFC"/><stop offset="0.109705" stop-color="#FBFCFC"/><stop offset="0.113924" stop-color="#FAFCFC"/><stop offset="0.118143" stop-color="#FAFCFC"/><stop offset="0.122363" stop-color="#FAFCFC"/><stop offset="0.126582" stop-color="#FAFCFC"/><stop offset="0.130802" stop-color="#F9FCFB"/><stop offset="0.135021" stop-color="#F9FBFB"/><stop offset="0.139241" stop-color="#F9FBFB"/><stop offset="0.14346" stop-color="#F8FBFB"/><stop offset="0.147679" stop-color="#F8FBFB"/><stop offset="0.151899" stop-color="#F8FBFB"/><stop offset="0.156118" stop-color="#F7FAFA"/><stop offset="0.160338" stop-color="#F7FAFA"/><stop offset="0.164557" stop-color="#F6FAFA"/><stop offset="0.168776" stop-color="#F6FAFA"/><stop offset="0.172996" stop-color="#F6F9F9"/><stop offset="0.177215" stop-color="#F5F9F9"/><stop offset="0.181435" stop-color="#F5F9F9"/><stop offset="0.185654" stop-color="#F4F9F9"/><stop offset="0.189873" stop-color="#F4F9F8"/><stop offset="0.194093" stop-color="#F3F8F8"/><stop offset="0.198312" stop-color="#F3F8F8"/><stop offset="0.202532" stop-color="#F3F8F8"/><stop offset="0.206751" stop-color="#F2F7F7"/><stop offset="0.21097" stop-color="#F2F7F7"/><stop offset="0.21519" stop-color="#F1F7F7"/><stop offset="0.219409" stop-color="#F1F7F7"/><stop offset="0.223629" stop-color="#F0F6F6"/><stop offset="0.227848" stop-color="#F0F6F6"/><stop offset="0.232068" stop-color="#EFF6F6"/><stop offset="0.236287" stop-color="#EFF5F5"/><stop offset="0.240506" stop-color="#EEF5F5"/><stop offset="0.244726" stop-color="#EEF5F5"/><stop offset="0.248945" stop-color="#EDF5F4"/><stop offset="0.253165" stop-color="#ECF4F4"/><stop offset="0.257384" stop-color="#ECF4F4"/><stop offset="0.261603" stop-color="#EBF4F3"/><stop offset="0.265823" stop-color="#EBF3F3"/><stop offset="0.270042" stop-color="#EAF3F3"/><stop offset="0.274262" stop-color="#E9F3F2"/><stop offset="0.278481" stop-color="#E9F2F2"/><stop offset="0.2827" stop-color="#E8F2F2"/><stop offset="0.28692" stop-color="#E8F2F1"/><stop offset="0.291139" stop-color="#E7F1F1"/><stop offset="0.295359" stop-color="#E6F1F1"/><stop offset="0.299578" stop-color="#E6F0F0"/><stop offset="0.303797" stop-color="#E5F0F0"/><stop offset="0.308017" stop-color="#E4F0F0"/><stop offset="0.312236" stop-color="#E4EFEF"/><stop offset="0.316456" stop-color="#E3EFEF"/><stop offset="0.320675" stop-color="#E2EEEE"/><stop offset="0.324895" stop-color="#E2EEEE"/><stop offset="0.329114" stop-color="#E1EEEE"/><stop offset="0.333333" stop-color="#E0EDED"/><stop offset="0.337553" stop-color="#DFEDED"/><stop offset="0.341772" stop-color="#DFECEC"/><stop offset="0.345992" stop-color="#DEECEC"/><stop offset="0.350211" stop-color="#DDECEB"/><stop offset="0.35443" stop-color="#DCEBEB"/><stop offset="0.35865" stop-color="#DCEBEB"/><stop offset="0.362869" stop-color="#DBEAEA"/><stop offset="0.367089" stop-color="#DAEAEA"/><stop offset="0.371308" stop-color="#D9E9E9"/><stop offset="0.375527" stop-color="#D9E9E9"/><stop offset="0.379747" stop-color="#D8E9E8"/><stop offset="0.383966" stop-color="#D7E8E8"/><stop offset="0.388186" stop-color="#D6E8E7"/><stop offset="0.392405" stop-color="#D5E7E7"/><stop offset="0.396624" stop-color="#D4E7E6"/><stop offset="0.400844" stop-color="#D4E6E6"/><stop offset="0.405063" stop-color="#D3E6E6"/><stop offset="0.409283" stop-color="#D2E5E5"/><stop offset="0.413502" stop-color="#D1E5E5"/><stop offset="0.417722" stop-color="#D0E4E4"/><stop offset="0.421941" stop-color="#CFE4E4"/><stop offset="0.42616" stop-color="#CEE3E3"/><stop offset="0.43038" stop-color="#CEE3E3"/><stop offset="0.434599" stop-color="#CDE2E2"/><stop offset="0.438819" stop-color="#CCE2E1"/><stop offset="0.443038" stop-color="#CBE1E1"/><stop offset="0.447257" stop-color="#CAE1E0"/><stop offset="0.451477" stop-color="#C9E0E0"/><stop offset="0.455696" stop-color="#C8E0DF"/><stop offset="0.459916" stop-color="#C7DFDF"/><stop offset="0.464135" stop-color="#C6DEDE"/><stop offset="0.468354" stop-color="#C5DEDE"/><stop offset="0.472574" stop-color="#C4DDDD"/><stop offset="0.476793" stop-color="#C3DDDD"/><stop offset="0.481013" stop-color="#C2DCDC"/><stop offset="0.485232" stop-color="#C1DCDB"/><stop offset="0.489451" stop-color="#C0DBDB"/><stop offset="0.493671" stop-color="#BFDBDA"/><stop offset="0.49789" stop-color="#BEDADA"/><stop offset="0.50211" stop-color="#BDD9D9"/><stop offset="0.506329" stop-color="#BCD9D9"/><stop offset="0.510549" stop-color="#BBD8D8"/><stop offset="0.514768" stop-color="#BAD8D7"/><stop offset="0.518987" stop-color="#B9D7D7"/><stop offset="0.523207" stop-color="#B8D6D6"/><stop offset="0.527426" stop-color="#B7D6D6"/><stop offset="0.531646" stop-color="#B6D5D5"/><stop offset="0.535865" stop-color="#B5D5D4"/><stop offset="0.540084" stop-color="#B4D4D4"/><stop offset="0.544304" stop-color="#B2D3D3"/><stop offset="0.548523" stop-color="#B1D3D2"/><stop offset="0.552743" stop-color="#B0D2D2"/><stop offset="0.556962" stop-color="#AFD1D1"/><stop offset="0.561181" stop-color="#AED1D0"/><stop offset="0.565401" stop-color="#ADD0D0"/><stop offset="0.56962" stop-color="#ACD0CF"/><stop offset="0.57384" stop-color="#AACFCE"/><stop offset="0.578059" stop-color="#A9CECE"/><stop offset="0.582278" stop-color="#A8CECD"/><stop offset="0.586498" stop-color="#A7CDCC"/><stop offset="0.590717" stop-color="#A6CCCC"/><stop offset="0.594937" stop-color="#A5CCCB"/><stop offset="0.599156" stop-color="#A3CBCA"/><stop offset="0.603376" stop-color="#A2CACA"/><stop offset="0.607595" stop-color="#A1C9C9"/><stop offset="0.611814" stop-color="#A0C9C8"/><stop offset="0.616034" stop-color="#9FC8C8"/><stop offset="0.620253" stop-color="#9DC7C7"/><stop offset="0.624473" stop-color="#9CC7C6"/><stop offset="0.628692" stop-color="#9BC6C6"/><stop offset="0.632911" stop-color="#9AC5C5"/><stop offset="0.637131" stop-color="#98C5C4"/><stop offset="0.64135" stop-color="#97C4C3"/><stop offset="0.64557" stop-color="#96C3C3"/><stop offset="0.649789" stop-color="#94C2C2"/><stop offset="0.654008" stop-color="#93C2C1"/><stop offset="0.658228" stop-color="#92C1C0"/><stop offset="0.662447" stop-color="#91C0C0"/><stop offset="0.666667" stop-color="#8FBFBF"/><stop offset="0.670886" stop-color="#8EBFBE"/><stop offset="0.675106" stop-color="#8DBEBD"/><stop offset="0.679325" stop-color="#8BBDBD"/><stop offset="0.683544" stop-color="#8ABCBC"/><stop offset="0.687764" stop-color="#89BCBB"/><stop offset="0.691983" stop-color="#87BBBA"/><stop offset="0.696203" stop-color="#86BABA"/><stop offset="0.700422" stop-color="#84B9B9"/><stop offset="0.704641" stop-color="#83B8B8"/><stop offset="0.708861" stop-color="#82B8B7"/><stop offset="0.71308" stop-color="#80B7B6"/><stop offset="0.7173" stop-color="#7FB6B6"/><stop offset="0.721519" stop-color="#7DB5B5"/><stop offset="0.725738" stop-color="#7CB4B4"/><stop offset="0.729958" stop-color="#7BB4B3"/><stop offset="0.734177" stop-color="#79B3B2"/><stop offset="0.738397" stop-color="#78B2B1"/><stop offset="0.742616" stop-color="#76B1B1"/><stop offset="0.746835" stop-color="#75B0B0"/><stop offset="0.751055" stop-color="#73B0AF"/><stop offset="0.755274" stop-color="#72AFAE"/><stop offset="0.759494" stop-color="#70AEAD"/><stop offset="0.763713" stop-color="#6FADAC"/><stop offset="0.767932" stop-color="#6DACAC"/><stop offset="0.772152" stop-color="#6CABAB"/><stop offset="0.776371" stop-color="#6AABAA"/><stop offset="0.780591" stop-color="#69AAA9"/><stop offset="0.78481" stop-color="#67A9A8"/><stop offset="0.78903" stop-color="#66A8A7"/><stop offset="0.793249" stop-color="#64A7A6"/><stop offset="0.797468" stop-color="#63A6A6"/><stop offset="0.801688" stop-color="#61A5A5"/><stop offset="0.805907" stop-color="#60A4A4"/><stop offset="0.810127" stop-color="#5EA4A3"/><stop offset="0.814346" stop-color="#5DA3A2"/><stop offset="0.818565" stop-color="#5BA2A1"/><stop offset="0.822785" stop-color="#59A1A0"/><stop offset="0.827004" stop-color="#58A09F"/><stop offset="0.831224" stop-color="#569F9E"/><stop offset="0.835443" stop-color="#559E9D"/><stop offset="0.839662" stop-color="#539D9C"/><stop offset="0.843882" stop-color="#519C9C"/><stop offset="0.848101" stop-color="#509B9B"/><stop offset="0.852321" stop-color="#4E9A9A"/><stop offset="0.85654" stop-color="#4C9A99"/><stop offset="0.860759" stop-color="#4B9998"/><stop offset="0.864979" stop-color="#499897"/><stop offset="0.869198" stop-color="#489796"/><stop offset="0.873418" stop-color="#469695"/><stop offset="0.877637" stop-color="#449594"/><stop offset="0.881857" stop-color="#429493"/><stop offset="0.886076" stop-color="#419392"/><stop offset="0.890295" stop-color="#3F9291"/><stop offset="0.894515" stop-color="#3D9190"/><stop offset="0.898734" stop-color="#3C908F"/><stop offset="0.902954" stop-color="#3A8F8E"/><stop offset="0.907173" stop-color="#388E8D"/><stop offset="0.911392" stop-color="#378D8C"/><stop offset="0.915612" stop-color="#358C8B"/><stop offset="0.919831" stop-color="#338B8A"/><stop offset="0.924051" stop-color="#318A89"/><stop offset="0.92827" stop-color="#308988"/><stop offset="0.932489" stop-color="#2E8887"/><stop offset="0.936709" stop-color="#2C8786"/><stop offset="0.940928" stop-color="#2A8685"/><stop offset="0.945148" stop-color="#288584"/><stop offset="0.949367" stop-color="#278483"/><stop offset="0.953587" stop-color="#258382"/><stop offset="0.957806" stop-color="#238281"/><stop offset="0.962025" stop-color="#218180"/><stop offset="0.966245" stop-color="#1F807F"/><stop offset="0.970464" stop-color="#1E7F7E"/><stop offset="0.974684" stop-color="#1C7E7D"/><stop offset="0.978903" stop-color="#1A7D7C"/><stop offset="0.983122" stop-color="#187C7B"/><stop offset="0.987342" stop-color="#167B7A"/><stop offset="0.991561" stop-color="#147A79"/><stop offset="0.995781" stop-color="#127978"/><stop offset="1" stop-color="#117877"/></linearGradient></defs><g clip-path="url(#clip0)" transform="translate(-430 -222)"><path d="M764 314 597.5 480 431 314Z" fill="url(#fill1)" fill-rule="evenodd"/><path d="M764.198 320.31C763.244 320.572 762.767 321.463 762.767 322.144 762.767 322.721 763.191 323.349 764.092 323.349 764.993 323.349 766 322.563 766 321.306 766 319.891 764.569 319 762.979 319 761.442 319 760.488 320.1 760.117 320.572 759.481 319.472 757.996 319 756.512 319 753.173 319 751.371 322.197 751.371 323.087 751.371 323.454 751.742 323.454 752.007 323.454 752.325 323.454 752.484 323.454 752.59 323.087 753.385 320.729 755.293 319.943 756.353 319.943 757.36 319.943 757.837 320.415 757.837 321.253 757.837 321.725 757.466 323.192 757.254 324.135L756.353 327.699C755.929 329.271 754.975 330.057 754.074 330.057 753.968 330.057 753.332 330.057 752.802 329.69 753.756 329.428 754.233 328.537 754.233 327.856 754.233 327.332 753.809 326.703 752.908 326.703 752.007 326.703 751 327.437 751 328.694 751 330.109 752.431 331 754.021 331 755.558 331 756.512 329.9 756.883 329.428 757.519 330.528 759.004 331 760.488 331 763.827 331 765.629 327.803 765.629 326.965 765.629 326.598 765.258 326.598 764.993 326.598 764.675 326.598 764.516 326.598 764.41 326.913 763.615 329.271 761.707 330.057 760.647 330.057 759.64 330.057 759.163 329.585 759.163 328.747 759.163 328.223 759.481 326.86 759.746 325.865 759.905 325.183 760.541 322.721 760.647 322.301 761.071 320.729 761.972 319.943 762.926 319.943 763.032 319.943 763.668 319.943 764.198 320.31" fill="#117877" fill-rule="evenodd"/><path d="M777.131 317.727 783.192 317.727C783.343 317.727 784 317.727 784 317.027 784 316.327 783.394 316.327 783.192 316.327L777.131 316.327 777.131 309.916C777.131 309.7 777.131 309 776.525 309 775.869 309 775.869 309.7 775.869 309.916L775.869 316.327 769.859 316.327C769.657 316.327 769 316.327 769 317.027 769 317.727 769.657 317.727 769.859 317.727L775.869 317.727 775.869 324.138C775.869 324.3 775.869 325 776.525 325 777.131 325 777.131 324.354 777.131 324.138L777.131 317.727" fill="#117877" fill-rule="evenodd"/><path d="M443.198 320.31C442.244 320.572 441.767 321.463 441.767 322.144 441.767 322.721 442.191 323.349 443.092 323.349 443.993 323.349 445 322.563 445 321.306 445 319.891 443.569 319 441.979 319 440.442 319 439.488 320.1 439.117 320.572 438.481 319.472 436.996 319 435.459 319 432.173 319 430.371 322.197 430.371 323.087 430.371 323.454 430.742 323.454 431.007 323.454 431.325 323.454 431.484 323.454 431.59 323.087 432.385 320.729 434.293 319.943 435.353 319.943 436.36 319.943 436.837 320.415 436.837 321.253 436.837 321.725 436.466 323.192 436.201 324.135L435.3 327.699C434.929 329.271 433.975 330.057 433.074 330.057 432.968 330.057 432.332 330.057 431.802 329.69 432.756 329.428 433.233 328.537 433.233 327.856 433.233 327.279 432.809 326.651 431.908 326.651 431.007 326.651 430 327.437 430 328.694 430 330.109 431.431 331 433.021 331 434.558 331 435.512 329.9 435.83 329.428 436.519 330.528 438.004 331 439.488 331 442.827 331 444.629 327.803 444.629 326.913 444.629 326.546 444.258 326.546 443.993 326.546 443.675 326.546 443.516 326.546 443.41 326.913 442.615 329.271 440.707 330.057 439.647 330.057 438.64 330.057 438.163 329.585 438.163 328.747 438.163 328.223 438.481 326.808 438.746 325.865 438.905 325.183 439.541 322.721 439.647 322.301 440.071 320.729 440.972 319.943 441.926 319.943 442.032 319.943 442.668 319.943 443.198 320.31" fill="#117877" fill-rule="evenodd"/><path d="M462.128 317C462.333 317 463 317 463 316.52 463 316 462.333 316 462.128 316L449.923 316C449.667 316 449 316 449 316.48 449 317 449.667 317 449.923 317L462.128 317" fill="#117877" fill-rule="evenodd"/><path d="M0.666667-2.849e-07 0.666769 239.003-0.666565 239.003-0.666667 2.849e-07ZM4.0001 237.669 0.000104987 245.669-3.9999 237.669Z" transform="matrix(1 0 0 -1 597.5 498.169)"/><path d="M578.5 479.833 817.503 479.833 817.503 481.167 578.5 481.167ZM816.169 476.5 824.169 480.5 816.169 484.5Z"/><path d="M1.0617-1.05962 161.445 159.64 159.322 161.759-1.0617 1.05962ZM162.509 156.459 165.682 166.008 156.139 162.816Z" fill="#117877" transform="matrix(1 0 0 -1 579.5 498.508)"/><path d="M613.523 498.559 455.686 337.901 457.826 335.799 615.663 496.457ZM454.597 341.074 451.5 331.5 461.017 334.766Z" fill="#117877"/><path d="M838.581 477.717C838.75 477.027 839.371 474.584 841.347 474.584 841.516 474.584 842.137 474.584 842.758 474.956 841.968 475.062 841.403 475.752 841.403 476.389 841.403 476.814 841.742 477.292 842.476 477.292 843.097 477.292 844 476.814 844 475.752 844 474.372 842.306 474 841.403 474 839.766 474 838.75 475.434 838.411 476.018 837.734 474.265 836.21 474 835.363 474 832.427 474 830.847 477.451 830.847 478.089 830.847 478.354 831.129 478.354 831.185 478.354 831.411 478.354 831.524 478.301 831.581 478.089 832.484 475.274 834.347 474.584 835.306 474.584 835.871 474.584 836.831 474.85 836.831 476.389 836.831 477.186 836.379 478.938 835.306 482.655 834.855 484.301 833.895 485.416 832.653 485.416 832.484 485.416 831.806 485.416 831.242 485.097 831.976 484.938 832.54 484.407 832.54 483.664 832.54 482.92 831.976 482.708 831.524 482.708 830.677 482.708 830 483.398 830 484.248 830 485.469 831.411 486 832.597 486 834.46 486 835.476 484.142 835.589 483.982 835.927 484.991 836.944 486 838.637 486 841.516 486 843.097 482.602 843.097 481.911 843.097 481.646 842.871 481.646 842.758 481.646 842.532 481.646 842.476 481.752 842.419 481.965 841.516 484.779 839.597 485.416 838.694 485.416 837.565 485.416 837.113 484.566 837.113 483.664 837.113 483.08 837.282 482.496 837.621 481.327L838.581 477.717" fill-rule="evenodd"/><path d="M850.275 470.255C851.794 470.255 852.919 471.289 852.919 473.301 852.919 475.695 851.513 476.402 850.331 476.402 849.544 476.402 847.856 476.184 847.013 475.042 847.969 474.987 848.138 474.389 848.138 474.008 848.138 473.356 847.688 472.921 847.069 472.921 846.506 472.921 846 473.247 846 474.063 846 475.803 848.025 477 850.388 477 853.144 477 855 475.205 855 473.301 855 471.833 853.763 470.364 851.569 469.929 853.65 469.222 854.381 467.753 854.381 466.611 854.381 465.142 852.638 464 850.444 464 848.25 464 846.563 465.033 846.563 466.556 846.563 467.209 847.013 467.536 847.631 467.536 848.194 467.536 848.588 467.1 848.588 466.556 848.588 466.013 848.194 465.632 847.631 465.577 848.306 464.762 849.656 464.544 850.388 464.544 851.231 464.544 852.469 464.979 852.469 466.611 852.469 467.427 852.244 468.297 851.681 468.895 851.063 469.603 850.5 469.657 849.544 469.711 849.037 469.711 848.981 469.711 848.925 469.766 848.869 469.766 848.7 469.766 848.7 469.983 848.7 470.255 848.869 470.255 849.206 470.255L850.275 470.255" fill-rule="evenodd"/><path d="M597.968 236.717C598.125 236.027 598.702 233.584 600.536 233.584 600.694 233.584 601.27 233.584 601.847 233.956 601.113 234.062 600.589 234.752 600.589 235.389 600.589 235.814 600.903 236.292 601.585 236.292 602.161 236.292 603 235.814 603 234.752 603 233.372 601.427 233 600.589 233 599.069 233 598.125 234.434 597.81 235.018 597.181 233.265 595.766 233 594.98 233 592.254 233 590.786 236.451 590.786 237.089 590.786 237.354 591.048 237.354 591.101 237.354 591.31 237.354 591.415 237.301 591.468 237.089 592.306 234.274 594.036 233.584 594.927 233.584 595.452 233.584 596.343 233.85 596.343 235.389 596.343 236.186 595.923 237.938 594.927 241.655 594.508 243.301 593.617 244.416 592.464 244.416 592.306 244.416 591.677 244.416 591.153 244.097 591.835 243.938 592.359 243.407 592.359 242.664 592.359 241.92 591.835 241.708 591.415 241.708 590.629 241.708 590 242.398 590 243.248 590 244.469 591.31 245 592.411 245 594.141 245 595.085 243.142 595.19 242.982 595.504 243.991 596.448 245 598.02 245 600.694 245 602.161 241.602 602.161 240.911 602.161 240.646 601.952 240.646 601.847 240.646 601.637 240.646 601.585 240.752 601.532 240.965 600.694 243.779 598.911 244.416 598.073 244.416 597.024 244.416 596.605 243.566 596.605 242.664 596.605 242.08 596.762 241.496 597.077 240.327L597.968 236.717" fill-rule="evenodd"/><path d="M614 229.527C614 227.46 613.722 225.937 612.833 224.632 612.222 223.762 611.056 223 609.5 223 605 223 605 228.167 605 229.527 605 230.941 605 236 609.5 236 614 236 614 230.941 614 229.527ZM609.5 235.456C608.611 235.456 607.444 234.967 607.056 233.389 606.778 232.247 606.778 230.724 606.778 229.31 606.778 227.895 606.778 226.481 607.056 225.448 607.444 223.925 608.722 223.544 609.5 223.544 610.556 223.544 611.556 224.142 611.889 225.285 612.222 226.264 612.222 227.678 612.222 229.31 612.222 230.724 612.222 232.138 611.944 233.335 611.611 235.021 610.278 235.456 609.5 235.456" fill-rule="evenodd"/></g></svg>