<svg width="754" height="361" xmlns="http://www.w3.org/2000/svg" xmlns:xlink="http://www.w3.org/1999/xlink" overflow="hidden"><defs><clipPath id="clip0"><path d="M263 180 1017 180 1017 541 263 541Z" fill-rule="evenodd" clip-rule="evenodd"/></clipPath><linearGradient x1="274.214" y1="0.000104987" x2="-6.07749e-07" y2="0.000104987" gradientUnits="userSpaceOnUse" spreadMethod="reflect" id="fill1"><stop offset="0" stop-color="#A3C2A3"/><stop offset="0.7" stop-color="#117877"/><stop offset="1" stop-color="#117877"/></linearGradient><linearGradient x1="274.214" y1="0.000104987" x2="-6.07749e-07" y2="0.000104987" gradientUnits="userSpaceOnUse" spreadMethod="reflect" id="fill2"><stop offset="0" stop-color="#A3C2A3"/><stop offset="0.7" stop-color="#117877"/><stop offset="1" stop-color="#117877"/></linearGradient><linearGradient x1="415" y1="389" x2="824" y2="389" gradientUnits="userSpaceOnUse" spreadMethod="reflect" id="fill3"><stop offset="0" stop-color="#A3C2A3" stop-opacity="0.2"/><stop offset="0.00689655" stop-color="#A2C1A2" stop-opacity="0.200703"/><stop offset="0.0137931" stop-color="#A2C1A2" stop-opacity="0.201406"/><stop offset="0.0206897" stop-color="#A2C1A2" stop-opacity="0.20211"/><stop offset="0.0275862" stop-color="#A2C1A2" stop-opacity="0.202813"/><stop offset="0.0344828" stop-color="#A2C1A2" stop-opacity="0.203516"/><stop offset="0.0413793" stop-color="#A2C1A2" stop-opacity="0.204219"/><stop offset="0.0482759" stop-color="#A2C1A2" stop-opacity="0.204922"/><stop offset="0.0551724" stop-color="#A2C1A2" stop-opacity="0.205625"/><stop offset="0.062069" stop-color="#A2C1A2" stop-opacity="0.206329"/><stop offset="0.0689655" stop-color="#A2C1A2" stop-opacity="0.207032"/><stop offset="0.0758621" stop-color="#A1C1A2" stop-opacity="0.207735"/><stop offset="0.0827586" stop-color="#A1C1A2" stop-opacity="0.208438"/><stop offset="0.0896552" stop-color="#A1C1A2" stop-opacity="0.209141"/><stop offset="0.0965517" stop-color="#A1C1A2" stop-opacity="0.209844"/><stop offset="0.103448" stop-color="#A0C0A2" stop-opacity="0.210548"/><stop offset="0.110345" stop-color="#A0C0A2" stop-opacity="0.211251"/><stop offset="0.117241" stop-color="#A0C0A2" stop-opacity="0.211954"/><stop offset="0.124138" stop-color="#A0C0A2" stop-opacity="0.212657"/><stop offset="0.131034" stop-color="#9FC0A2" stop-opacity="0.21336"/><stop offset="0.137931" stop-color="#9FC0A1" stop-opacity="0.214064"/><stop offset="0.144828" stop-color="#9FC0A1" stop-opacity="0.214767"/><stop offset="0.151724" stop-color="#9EBFA1" stop-opacity="0.21547"/><stop offset="0.158621" stop-color="#9EBFA1" stop-opacity="0.216173"/><stop offset="0.165517" stop-color="#9DBFA1" stop-opacity="0.216876"/><stop offset="0.172414" stop-color="#9DBFA1" stop-opacity="0.217579"/><stop offset="0.17931" stop-color="#9DBFA1" stop-opacity="0.218283"/><stop offset="0.186207" stop-color="#9CBEA1" stop-opacity="0.218986"/><stop offset="0.193103" stop-color="#9CBEA0" stop-opacity="0.219689"/><stop offset="0.2" stop-color="#9BBEA0" stop-opacity="0.220392"/><stop offset="0.206897" stop-color="#9BBEA0" stop-opacity="0.221095"/><stop offset="0.213793" stop-color="#9ABDA0" stop-opacity="0.221799"/><stop offset="0.22069" stop-color="#9ABDA0" stop-opacity="0.222502"/><stop offset="0.227586" stop-color="#99BDA0" stop-opacity="0.223205"/><stop offset="0.234483" stop-color="#99BDA0" stop-opacity="0.223908"/><stop offset="0.241379" stop-color="#98BC9F" stop-opacity="0.224611"/><stop offset="0.248276" stop-color="#98BC9F" stop-opacity="0.225314"/><stop offset="0.255172" stop-color="#97BC9F" stop-opacity="0.226018"/><stop offset="0.262069" stop-color="#97BB9F" stop-opacity="0.226721"/><stop offset="0.268966" stop-color="#96BB9F" stop-opacity="0.227424"/><stop offset="0.275862" stop-color="#95BB9F" stop-opacity="0.228127"/><stop offset="0.282759" stop-color="#95BB9E" stop-opacity="0.22883"/><stop offset="0.289655" stop-color="#94BA9E" stop-opacity="0.229533"/><stop offset="0.296552" stop-color="#94BA9E" stop-opacity="0.230237"/><stop offset="0.303448" stop-color="#93BA9E" stop-opacity="0.23094"/><stop offset="0.310345" stop-color="#92B99E" stop-opacity="0.231643"/><stop offset="0.317241" stop-color="#92B99D" stop-opacity="0.232346"/><stop offset="0.324138" stop-color="#91B99D" stop-opacity="0.233049"/><stop offset="0.331034" stop-color="#90B89D" stop-opacity="0.233753"/><stop offset="0.337931" stop-color="#8FB89D" stop-opacity="0.234456"/><stop offset="0.344828" stop-color="#8FB79D" stop-opacity="0.235159"/><stop offset="0.351724" stop-color="#8EB79C" stop-opacity="0.235862"/><stop offset="0.358621" stop-color="#8DB79C" stop-opacity="0.236565"/><stop offset="0.365517" stop-color="#8CB69C" stop-opacity="0.237268"/><stop offset="0.372414" stop-color="#8CB69C" stop-opacity="0.237972"/><stop offset="0.37931" stop-color="#8BB59B" stop-opacity="0.238675"/><stop offset="0.386207" stop-color="#8AB59B" stop-opacity="0.239378"/><stop offset="0.393103" stop-color="#89B59B" stop-opacity="0.240081"/><stop offset="0.4" stop-color="#88B49B" stop-opacity="0.240784"/><stop offset="0.406897" stop-color="#87B49A" stop-opacity="0.241488"/><stop offset="0.413793" stop-color="#87B39A" stop-opacity="0.242191"/><stop offset="0.42069" stop-color="#86B39A" stop-opacity="0.242894"/><stop offset="0.427586" stop-color="#85B29A" stop-opacity="0.243597"/><stop offset="0.434483" stop-color="#84B299" stop-opacity="0.2443"/><stop offset="0.441379" stop-color="#83B299" stop-opacity="0.245003"/><stop offset="0.448276" stop-color="#82B199" stop-opacity="0.245707"/><stop offset="0.455172" stop-color="#81B198" stop-opacity="0.24641"/><stop offset="0.462069" stop-color="#80B098" stop-opacity="0.247113"/><stop offset="0.468966" stop-color="#7FB098" stop-opacity="0.247816"/><stop offset="0.475862" stop-color="#7EAF98" stop-opacity="0.248519"/><stop offset="0.482759" stop-color="#7DAF97" stop-opacity="0.249222"/><stop offset="0.489655" stop-color="#7CAE97" stop-opacity="0.249926"/><stop offset="0.496552" stop-color="#7BAE97" stop-opacity="0.250629"/><stop offset="0.503448" stop-color="#7AAD96" stop-opacity="0.251332"/><stop offset="0.510345" stop-color="#79AD96" stop-opacity="0.252035"/><stop offset="0.517241" stop-color="#78AC96" stop-opacity="0.252738"/><stop offset="0.524138" stop-color="#77AB95" stop-opacity="0.253442"/><stop offset="0.531034" stop-color="#76AB95" stop-opacity="0.254145"/><stop offset="0.537931" stop-color="#75AA95" stop-opacity="0.254848"/><stop offset="0.544828" stop-color="#74AA94" stop-opacity="0.255551"/><stop offset="0.551724" stop-color="#73A994" stop-opacity="0.256254"/><stop offset="0.558621" stop-color="#71A994" stop-opacity="0.256957"/><stop offset="0.565517" stop-color="#70A893" stop-opacity="0.257661"/><stop offset="0.572414" stop-color="#6FA893" stop-opacity="0.258364"/><stop offset="0.57931" stop-color="#6EA793" stop-opacity="0.259067"/><stop offset="0.586207" stop-color="#6DA692" stop-opacity="0.25977"/><stop offset="0.593103" stop-color="#6CA692" stop-opacity="0.260473"/><stop offset="0.6" stop-color="#6AA592" stop-opacity="0.261176"/><stop offset="0.606897" stop-color="#69A491" stop-opacity="0.26188"/><stop offset="0.613793" stop-color="#68A491" stop-opacity="0.262583"/><stop offset="0.62069" stop-color="#67A391" stop-opacity="0.263286"/><stop offset="0.627586" stop-color="#66A390" stop-opacity="0.263989"/><stop offset="0.634483" stop-color="#64A290" stop-opacity="0.264692"/><stop offset="0.641379" stop-color="#63A18F" stop-opacity="0.265396"/><stop offset="0.648276" stop-color="#62A18F" stop-opacity="0.266099"/><stop offset="0.655172" stop-color="#60A08F" stop-opacity="0.266802"/><stop offset="0.662069" stop-color="#5F9F8E" stop-opacity="0.267505"/><stop offset="0.668966" stop-color="#5E9F8E" stop-opacity="0.268208"/><stop offset="0.675862" stop-color="#5C9E8D" stop-opacity="0.268911"/><stop offset="0.682759" stop-color="#5B9D8D" stop-opacity="0.269615"/><stop offset="0.689655" stop-color="#5A9D8D" stop-opacity="0.270318"/><stop offset="0.696552" stop-color="#589C8C" stop-opacity="0.271021"/><stop offset="0.703448" stop-color="#579B8C" stop-opacity="0.271724"/><stop offset="0.710345" stop-color="#569B8B" stop-opacity="0.272427"/><stop offset="0.717241" stop-color="#549A8B" stop-opacity="0.273131"/><stop offset="0.724138" stop-color="#53998A" stop-opacity="0.273834"/><stop offset="0.731034" stop-color="#51988A" stop-opacity="0.274537"/><stop offset="0.737931" stop-color="#50988A" stop-opacity="0.27524"/><stop offset="0.744828" stop-color="#4E9789" stop-opacity="0.275943"/><stop offset="0.751724" stop-color="#4D9689" stop-opacity="0.276646"/><stop offset="0.758621" stop-color="#4C9588" stop-opacity="0.27735"/><stop offset="0.765517" stop-color="#4A9588" stop-opacity="0.278053"/><stop offset="0.772414" stop-color="#499487" stop-opacity="0.278756"/><stop offset="0.77931" stop-color="#479387" stop-opacity="0.279459"/><stop offset="0.786207" stop-color="#459286" stop-opacity="0.280162"/><stop offset="0.793103" stop-color="#449286" stop-opacity="0.280865"/><stop offset="0.8" stop-color="#429186" stop-opacity="0.281569"/><stop offset="0.806897" stop-color="#419085" stop-opacity="0.282272"/><stop offset="0.813793" stop-color="#3F8F85" stop-opacity="0.282975"/><stop offset="0.82069" stop-color="#3E8E84" stop-opacity="0.283678"/><stop offset="0.827586" stop-color="#3C8E84" stop-opacity="0.284381"/><stop offset="0.834483" stop-color="#3B8D83" stop-opacity="0.285085"/><stop offset="0.841379" stop-color="#398C83" stop-opacity="0.285788"/><stop offset="0.848276" stop-color="#378B82" stop-opacity="0.286491"/><stop offset="0.855172" stop-color="#368A82" stop-opacity="0.287194"/><stop offset="0.862069" stop-color="#348981" stop-opacity="0.287897"/><stop offset="0.868966" stop-color="#328981" stop-opacity="0.2886"/><stop offset="0.875862" stop-color="#318880" stop-opacity="0.289304"/><stop offset="0.882759" stop-color="#2F8780" stop-opacity="0.290007"/><stop offset="0.889655" stop-color="#2D867F" stop-opacity="0.29071"/><stop offset="0.896552" stop-color="#2C857F" stop-opacity="0.291413"/><stop offset="0.903448" stop-color="#2A847E" stop-opacity="0.292116"/><stop offset="0.910345" stop-color="#28837E" stop-opacity="0.292819"/><stop offset="0.917241" stop-color="#26837D" stop-opacity="0.293523"/><stop offset="0.924138" stop-color="#25827D" stop-opacity="0.294226"/><stop offset="0.931035" stop-color="#23817C" stop-opacity="0.294929"/><stop offset="0.937931" stop-color="#21807B" stop-opacity="0.295632"/><stop offset="0.944828" stop-color="#1F7F7B" stop-opacity="0.296335"/><stop offset="0.951724" stop-color="#1D7E7A" stop-opacity="0.297039"/><stop offset="0.958621" stop-color="#1C7D7A" stop-opacity="0.297742"/><stop offset="0.965517" stop-color="#1A7C79" stop-opacity="0.298445"/><stop offset="0.972414" stop-color="#187B79" stop-opacity="0.299148"/><stop offset="0.97931" stop-color="#167A78" stop-opacity="0.299851"/><stop offset="0.986207" stop-color="#147978" stop-opacity="0.300554"/><stop offset="0.993103" stop-color="#127877" stop-opacity="0.301258"/><stop offset="1" stop-color="#117877" stop-opacity="0.301961"/></linearGradient></defs><g clip-path="url(#clip0)" transform="translate(-263 -180)"><path d="M264.5 388.833 965.488 388.833 965.488 390.167 264.5 390.167ZM964.154 385.5 972.154 389.5 964.154 393.5Z"/><path d="M0.666667-2.17274e-07 0.66677 315.468-0.666564 315.468-0.666667 2.17274e-07ZM4.0001 314.133 0.000104987 322.133-3.9999 314.133Z" transform="matrix(1 0 0 -1 641.5 540.633)"/><path d="M0 0 153.333 0.000104987" stroke="#A3C2A3" stroke-width="3" stroke-miterlimit="8" stroke-dasharray="9 3" fill="none" fill-rule="evenodd" transform="matrix(-1 -8.74228e-08 -8.74228e-08 1 566.833 465.5)"/><path d="M6.07749e-07-1.5 250.121-1.4999 250.121 1.5001-6.07749e-07 1.5ZM250.121 0.00010134 244.121-7.4999 259.121 0.000104987 244.121 7.5001Z" fill="url(#fill1)" transform="matrix(-1 -8.74228e-08 -8.74228e-08 1 824.621 314.5)"/><path d="M0 0 153.333 0.000104987" stroke="#A3C2A3" stroke-width="3" stroke-miterlimit="8" stroke-dasharray="9 3" fill="none" fill-rule="evenodd" transform="matrix(-1 -8.74228e-08 -8.74228e-08 1 566.833 314.5)"/><path d="M415.5 313.5 415.5 466.181" stroke="#A3C2A3" stroke-width="3" stroke-miterlimit="8" fill="none" fill-rule="evenodd"/><path d="M6.07749e-07-1.5 250.121-1.4999 250.121 1.5001-6.07749e-07 1.5ZM250.121 0.00010134 244.121-7.4999 259.121 0.000104987 244.121 7.5001Z" fill="url(#fill2)" transform="matrix(-1 -8.74228e-08 -8.74228e-08 1 824.621 465.5)"/><path d="M665.564 290.069C665.3 288.275 664.033 283 659.967 283 656.218 283 654 286.807 654 287.894 654 288.329 654.37 288.329 654.634 288.329 654.898 288.329 655.109 288.329 655.267 288.003 655.848 286.263 658.013 285.991 659.386 285.991 660.865 285.991 662.607 286.317 663.505 287.622 664.191 288.71 664.403 290.94 664.403 292.027 664.403 293.115 664.35 293.332 664.191 293.876 663.452 296.106 662.66 299.042 662.66 300.021 662.66 300.239 662.66 301 663.294 301 663.927 301 664.244 299.967 664.35 299.64 664.561 298.988 665.247 296.541 665.564 293.767 665.617 293.441 665.617 293.387 665.67 293.169 666.409 291.103 667.677 288.003 669.525 284.523 669.683 284.196 670 283.707 670 283.598 670 283.218 669.63 283.218 669.366 283.218 669.102 283.218 668.997 283.218 668.891 283.326 668.838 283.381 667.413 285.719 665.564 290.069" fill="#37777D" fill-rule="evenodd"/><path d="M994.968 387.717C995.125 387.027 995.702 384.584 997.536 384.584 997.694 384.584 998.323 384.584 998.847 384.903 998.113 385.062 997.589 385.699 997.589 386.336 997.589 386.761 997.903 387.292 998.585 387.292 999.161 387.292 1000 386.814 1000 385.752 1000 384.372 998.48 384 997.589 384 996.069 384 995.125 385.381 994.81 386.018 994.181 384.265 992.766 384 991.98 384 989.306 384 987.786 387.398 987.786 388.089 987.786 388.354 988.048 388.354 988.101 388.354 988.31 388.354 988.415 388.301 988.468 388.035 989.359 385.221 991.036 384.584 991.927 384.584 992.452 384.584 993.343 384.796 993.343 386.336 993.343 387.186 992.923 388.938 991.927 392.655 991.508 394.301 990.617 395.416 989.464 395.416 989.306 395.416 988.73 395.416 988.153 395.097 988.835 394.938 989.411 394.407 989.411 393.664 989.411 392.92 988.835 392.708 988.415 392.708 987.629 392.708 987 393.398 987 394.248 987 395.469 988.31 396 989.411 396 991.141 396 992.085 394.142 992.19 393.982 992.504 394.991 993.448 396 995.02 396 997.694 396 999.214 392.602 999.214 391.911 999.214 391.646 998.952 391.646 998.899 391.646 998.637 391.646 998.585 391.752 998.532 391.965 997.694 394.779 995.911 395.416 995.073 395.416 994.024 395.416 993.605 394.566 993.605 393.664 993.605 393.08 993.762 392.496 994.077 391.327L994.968 387.717" fill-rule="evenodd"/><path d="M1015.23 382C1015.5 382 1016 382 1016 381.471 1016 381 1015.56 381 1015.23 381L1003.77 381C1003.44 381 1003 381 1003 381.471 1003 382 1003.44 382 1003.77 382L1015.23 382" fill-rule="evenodd"/><path d="M645.82 182.98C645.473 183.333 644.631 184.04 644.631 184.495 644.631 184.747 644.878 185 645.126 185 645.374 185 645.473 184.798 645.622 184.646 645.919 184.293 646.464 183.586 647.554 183.03 647.752 182.929 648 182.778 648 182.475 648 182.222 647.802 182.121 647.653 181.97 647.108 181.616 646.811 181.162 646.613 180.556 646.563 180.354 646.464 180 646.117 180 645.77 180 645.622 180.354 645.622 180.556 645.622 180.657 645.82 181.465 646.216 181.97L637.892 181.97C637.446 181.97 637 181.97 637 182.475 637 182.98 637.446 182.98 637.892 182.98L645.82 182.98" fill-rule="evenodd"/><path d="M640.988 191.027C641.145 190.279 641.719 187.633 643.546 187.633 643.703 187.633 644.329 187.633 644.851 187.978 644.12 188.15 643.598 188.841 643.598 189.531 643.598 189.991 643.912 190.566 644.59 190.566 645.165 190.566 646 190.049 646 188.898 646 187.403 644.486 187 643.598 187 642.084 187 641.145 188.496 640.831 189.186 640.205 187.288 638.795 187 638.012 187 635.297 187 633.835 190.681 633.835 191.429 633.835 191.717 634.096 191.717 634.149 191.717 634.357 191.717 634.41 191.659 634.462 191.372 635.349 188.323 637.072 187.633 637.96 187.633 638.482 187.633 639.37 187.863 639.37 189.531 639.37 190.451 638.952 192.35 637.96 196.376 637.542 198.159 636.655 199.367 635.506 199.367 635.349 199.367 634.723 199.367 634.201 198.965 634.827 198.85 635.402 198.217 635.402 197.469 635.402 196.664 634.827 196.434 634.462 196.434 633.679 196.434 633 197.181 633 198.102 633 199.425 634.305 200 635.454 200 637.177 200 638.116 197.987 638.221 197.814 638.534 198.85 639.474 200 641.04 200 643.703 200 645.217 196.319 645.217 195.571 645.217 195.283 644.956 195.283 644.904 195.283 644.643 195.283 644.59 195.398 644.538 195.628 643.703 198.677 641.928 199.367 641.092 199.367 640.048 199.367 639.63 198.447 639.63 197.469 639.63 196.836 639.787 196.204 640.1 194.938L640.988 191.027" fill-rule="evenodd"/><path d="M655.953 190.752C655.953 190.43 655.953 190 655.5 190 655.097 190 655.097 190.43 655.097 190.752L655.097 202.087 649.705 202.087C649.453 202.087 649 202.087 649 202.517 649 203 649.403 203 649.705 203L661.295 203C661.597 203 662 203 662 202.57 662 202.087 661.597 202.087 661.295 202.087L655.953 202.087 655.953 190.752" fill-rule="evenodd"/><path d="M845 477.729C845 477.675 845 477.62 844.534 477.133 841.328 473.771 840.5 468.62 840.5 464.5 840.5 459.783 841.483 455.12 844.638 451.705 845 451.38 845 451.325 845 451.271 845 451.054 844.897 451 844.741 451 844.483 451 842.155 452.843 840.603 456.259 839.31 459.241 839 462.223 839 464.5 839 466.614 839.31 469.867 840.707 472.958 842.259 476.265 844.483 478 844.741 478 844.897 478 845 477.946 845 477.729" fill="#37777D" fill-rule="evenodd"/><path d="M858.896 460.728C859 460.337 859 460.282 859 460.059 859 459.557 858.635 459.334 858.217 459.334 857.957 459.334 857.539 459.502 857.33 459.892 857.278 460.059 857.07 460.895 856.965 461.396 856.757 462.121 856.6 462.901 856.443 463.625L855.243 468.641C855.139 469.031 854.043 470.981 852.322 470.981 851.017 470.981 850.704 469.755 850.704 468.752 850.704 467.471 851.174 465.743 852.061 463.291 852.478 462.176 852.583 461.842 852.583 461.285 852.583 460.059 851.748 459 850.443 459 847.939 459 847 463.068 847 463.291 847 463.57 847.261 463.57 847.313 463.57 847.574 463.57 847.574 463.514 847.73 463.068 848.409 460.449 849.452 459.613 850.339 459.613 850.548 459.613 851.017 459.613 851.017 460.505 851.017 461.229 850.757 461.954 850.548 462.455 849.504 465.409 849.035 466.969 849.035 468.306 849.035 470.759 850.704 471.594 852.217 471.594 853.261 471.594 854.148 471.149 854.826 470.368 854.513 471.817 854.2 473.155 853.156 474.659 852.478 475.607 851.487 476.387 850.287 476.387 849.922 476.387 848.774 476.276 848.304 475.217 848.722 475.217 849.087 475.217 849.452 474.882 849.713 474.659 849.974 474.269 849.974 473.768 849.974 472.876 849.243 472.765 848.983 472.765 848.409 472.765 847.522 473.211 847.522 474.604 847.522 475.941 848.67 477 850.287 477 853 477 855.661 474.492 856.391 471.316L858.896 460.728" fill="#37777D" fill-rule="evenodd"/><path d="M874.229 458C874.559 458 875 458 875 457.529 875 457 874.559 457 874.229 457L862.771 457C862.496 457 862 457 862 457.471 862 458 862.441 458 862.771 458L874.229 458" fill="#37777D" fill-rule="evenodd"/><path d="M883 471.792C883 470.02 882.586 469 881.897 469 881.345 469 881 469.644 881 470.396 881 471.148 881.345 471.846 881.897 471.846 882.103 471.846 882.345 471.738 882.517 471.47 882.552 471.416 882.586 471.416 882.586 471.416 882.621 471.416 882.621 471.416 882.621 471.792 882.621 473.779 882.034 475.389 881.448 476.248 881.276 476.57 881.276 476.624 881.276 476.678 881.276 476.893 881.345 477 881.448 477 881.621 477 883 474.96 883 471.792" fill="#37777D" fill-rule="evenodd"/><path d="M903.81 455.01C903.462 455.367 902.615 456.031 902.615 456.49 902.615 456.745 902.864 457 903.113 457 903.362 457 903.462 456.847 903.611 456.694 903.909 456.286 904.457 455.622 905.552 455.061 905.751 454.959 906 454.806 906 454.5 906 454.245 905.801 454.143 905.652 453.99 905.104 453.633 904.805 453.173 904.606 452.561 904.557 452.306 904.457 452 904.109 452 903.76 452 903.611 452.306 903.611 452.51 903.611 452.663 903.81 453.48 904.208 453.99L895.846 453.99C895.448 453.99 895 453.99 895 454.5 895 455.01 895.448 455.01 895.846 455.01L903.81 455.01" fill="#37777D" fill-rule="evenodd"/><path d="M902.896 460.728C903 460.337 903 460.282 903 460.059 903 459.557 902.635 459.334 902.217 459.334 901.957 459.334 901.539 459.502 901.33 459.892 901.278 460.059 901.07 460.895 900.965 461.396 900.757 462.121 900.6 462.901 900.443 463.625L899.296 468.641C899.191 469.031 898.043 470.981 896.322 470.981 895.017 470.981 894.704 469.755 894.704 468.752 894.704 467.471 895.174 465.743 896.061 463.291 896.478 462.176 896.583 461.842 896.583 461.285 896.583 460.059 895.748 459 894.443 459 891.939 459 891 463.068 891 463.291 891 463.57 891.261 463.57 891.313 463.57 891.574 463.57 891.574 463.514 891.73 463.068 892.409 460.449 893.452 459.613 894.339 459.613 894.548 459.613 895.017 459.613 895.017 460.505 895.017 461.229 894.757 461.954 894.548 462.455 893.504 465.409 893.035 466.969 893.035 468.306 893.035 470.759 894.704 471.594 896.217 471.594 897.261 471.594 898.148 471.149 898.878 470.368 898.513 471.817 898.2 473.155 897.156 474.659 896.478 475.607 895.487 476.387 894.287 476.387 893.922 476.387 892.774 476.276 892.304 475.217 892.722 475.217 893.087 475.217 893.452 474.882 893.713 474.659 893.974 474.269 893.974 473.768 893.974 472.876 893.243 472.765 892.983 472.765 892.409 472.765 891.522 473.211 891.522 474.604 891.522 475.941 892.67 477 894.287 477 897 477 899.661 474.492 900.391 471.316L902.896 460.728" fill="#37777D" fill-rule="evenodd"/><path d="M911.93 462.698C911.93 462.43 911.93 462 911.525 462 911.07 462 911.07 462.43 911.07 462.698L911.07 474.033 905.708 474.033C905.405 474.033 905 474.033 905 474.517 905 475 905.405 475 905.708 475L917.292 475C917.595 475 918 475 918 474.517 918 474.033 917.595 474.033 917.292 474.033L911.93 474.033 911.93 462.698" fill="#37777D" fill-rule="evenodd"/><path d="M929 464.5C929 462.386 928.698 459.133 927.009 456.096 925.198 452.735 922.603 451 922.302 451 922.121 451 922 451.108 922 451.271 922 451.325 922 451.38 922.603 451.867 925.56 454.578 927.25 458.861 927.25 464.5 927.25 469.108 926.164 473.88 922.422 477.295 922 477.62 922 477.675 922 477.729 922 477.892 922.121 478 922.302 478 922.603 478 925.319 476.157 927.129 472.741 928.638 469.759 929 466.777 929 464.5" fill="#37777D" fill-rule="evenodd"/><path d="M845 324.729C845 324.675 845 324.62 844.534 324.133 841.328 320.771 840.5 315.62 840.5 311.5 840.5 306.783 841.483 302.12 844.638 298.705 845 298.38 845 298.325 845 298.271 845 298.054 844.897 298 844.741 298 844.483 298 842.155 299.843 840.603 303.259 839.31 306.241 839 309.223 839 311.5 839 313.614 839.31 316.867 840.707 319.958 842.259 323.265 844.483 325 844.741 325 844.897 325 845 324.946 845 324.729" fill="#37777D" fill-rule="evenodd"/><path d="M854.968 309.717C855.125 309.027 855.702 306.584 857.536 306.584 857.694 306.584 858.323 306.584 858.847 306.956 858.113 307.062 857.589 307.752 857.589 308.389 857.589 308.814 857.903 309.292 858.585 309.292 859.161 309.292 860 308.814 860 307.752 860 306.372 858.48 306 857.589 306 856.069 306 855.125 307.434 854.81 308.018 854.181 306.265 852.766 306 852.032 306 849.306 306 847.786 309.451 847.786 310.089 847.786 310.354 848.048 310.354 848.101 310.354 848.31 310.354 848.415 310.301 848.468 310.089 849.359 307.274 851.089 306.584 851.98 306.584 852.452 306.584 853.395 306.85 853.395 308.389 853.395 309.186 852.923 310.991 851.98 314.655 851.56 316.301 850.617 317.416 849.464 317.416 849.306 317.416 848.73 317.416 848.153 317.097 848.835 316.938 849.411 316.407 849.411 315.664 849.411 314.92 848.835 314.708 848.415 314.708 847.629 314.708 847 315.398 847 316.248 847 317.469 848.31 318 849.464 318 851.194 318 852.137 316.142 852.19 315.982 852.504 316.991 853.448 318 855.02 318 857.694 318 859.214 314.602 859.214 313.911 859.214 313.646 858.952 313.646 858.899 313.646 858.637 313.646 858.585 313.752 858.532 313.965 857.694 316.779 855.911 317.416 855.073 317.416 854.077 317.416 853.657 316.566 853.657 315.664 853.657 315.08 853.815 314.496 854.077 313.327L854.968 309.717" fill="#37777D" fill-rule="evenodd"/><path d="M875.229 304C875.504 304 876 304 876 303.529 876 303 875.559 303 875.229 303L863.771 303C863.441 303 863 303 863 303.471 863 304 863.441 304 863.771 304L875.229 304" fill="#37777D" fill-rule="evenodd"/><path d="M885 317.792C885 316.02 884.339 315 883.373 315 882.508 315 882 315.644 882 316.396 882 317.148 882.508 317.846 883.373 317.846 883.678 317.846 883.983 317.738 884.237 317.47 884.339 317.416 884.339 317.416 884.39 317.416 884.39 317.416 884.441 317.416 884.441 317.792 884.441 319.779 883.525 321.389 882.712 322.248 882.407 322.57 882.407 322.624 882.407 322.678 882.407 322.893 882.559 323 882.661 323 882.966 323 885 320.96 885 317.792" fill="#37777D" fill-rule="evenodd"/><path d="M904.81 302.01C904.462 302.367 903.615 303.031 903.615 303.49 903.615 303.745 903.864 304 904.113 304 904.362 304 904.462 303.847 904.611 303.694 904.909 303.286 905.457 302.622 906.552 302.061 906.751 301.959 907 301.806 907 301.5 907 301.245 906.801 301.143 906.652 300.99 906.104 300.633 905.805 300.173 905.606 299.561 905.557 299.306 905.457 299 905.109 299 904.76 299 904.611 299.306 904.611 299.51 904.611 299.663 904.81 300.48 905.208 300.99L896.846 300.99C896.448 300.99 896 300.99 896 301.5 896 302.01 896.448 302.01 896.846 302.01L904.81 302.01" fill="#37777D" fill-rule="evenodd"/><path d="M899.968 309.717C900.125 309.027 900.702 306.584 902.536 306.584 902.694 306.584 903.323 306.584 903.847 306.956 903.113 307.062 902.589 307.752 902.589 308.389 902.589 308.814 902.903 309.292 903.585 309.292 904.161 309.292 905 308.814 905 307.752 905 306.372 903.427 306 902.589 306 901.069 306 900.125 307.434 899.81 308.018 899.181 306.265 897.766 306 896.98 306 894.254 306 892.786 309.451 892.786 310.089 892.786 310.354 893.048 310.354 893.101 310.354 893.31 310.354 893.363 310.301 893.415 310.089 894.306 307.274 896.036 306.584 896.927 306.584 897.452 306.584 898.343 306.85 898.343 308.389 898.343 309.186 897.923 310.991 896.927 314.655 896.508 316.301 895.617 317.416 894.464 317.416 894.306 317.416 893.677 317.416 893.153 317.097 893.782 316.938 894.359 316.407 894.359 315.664 894.359 314.92 893.782 314.708 893.415 314.708 892.629 314.708 892 315.398 892 316.248 892 317.469 893.258 318 894.411 318 896.141 318 897.085 316.142 897.19 315.982 897.504 316.991 898.448 318 900.02 318 902.694 318 904.161 314.602 904.161 313.911 904.161 313.646 903.952 313.646 903.847 313.646 903.637 313.646 903.585 313.752 903.532 313.965 902.694 316.779 900.911 317.416 900.073 317.416 899.024 317.416 898.605 316.566 898.605 315.664 898.605 315.08 898.762 314.496 899.077 313.327L899.968 309.717" fill="#37777D" fill-rule="evenodd"/><path d="M915.463 309.698C915.463 309.43 915.463 309 915.027 309 914.537 309 914.537 309.43 914.537 309.698L914.537 321.033 908.763 321.033C908.436 321.033 908 321.033 908 321.517 908 322 908.436 322 908.763 322L921.237 322C921.564 322 922 322 922 321.517 922 321.033 921.564 321.033 921.237 321.033L915.463 321.033 915.463 309.698" fill="#37777D" fill-rule="evenodd"/><path d="M932 311.5C932 309.386 931.739 306.133 930.278 303.096 928.713 299.735 926.522 298 926.261 298 926.104 298 926 298.108 926 298.271 926 298.325 926 298.38 926.47 298.867 929.026 301.578 930.487 305.861 930.487 311.5 930.487 316.108 929.548 320.88 926.313 324.295 926 324.62 926 324.675 926 324.729 926 324.892 926.104 325 926.261 325 926.522 325 928.817 323.157 930.383 319.741 931.687 316.759 932 313.777 932 311.5" fill="#37777D" fill-rule="evenodd"/><rect x="415" y="314" width="409" height="150" fill="url(#fill3)"/><path d="M297 326.729C297 326.675 297 326.62 296.534 326.133 293.328 322.771 292.5 317.62 292.5 313.5 292.5 308.783 293.483 304.12 296.638 300.705 297 300.38 297 300.325 297 300.271 297 300.054 296.897 300 296.741 300 296.483 300 294.155 301.843 292.603 305.259 291.31 308.241 291 311.223 291 313.5 291 315.614 291.31 318.867 292.707 321.958 294.259 325.265 296.483 327 296.741 327 296.897 327 297 326.946 297 326.729" fill="#A3C2A3" fill-rule="evenodd"/><path d="M316.056 314C316.528 314 317 314 317 313.5 317 313 316.528 313 316.056 313L301.892 313C301.472 313 301 313 301 313.5 301 314 301.472 314 301.892 314L316.056 314" fill="#A3C2A3" fill-rule="evenodd"/><path d="M333.216 312.947C331.757 310.991 331.432 310.531 330.622 309.841 329.108 308.518 327.595 308 326.243 308 323.054 308 321 311.164 321 314.558 321 317.836 323 321 326.135 321 329.216 321 331.432 318.411 332.784 316.111 334.243 318.066 334.568 318.469 335.378 319.217 336.892 320.482 338.405 321 339.757 321 342.946 321 345 317.836 345 314.5 345 311.221 343 308 339.865 308 336.784 308 334.568 310.646 333.216 312.947ZM333.919 313.925C335.054 311.854 337.054 308.92 340.081 308.92 342.946 308.92 344.405 311.911 344.405 314.5 344.405 317.319 342.568 319.619 340.189 319.619 338.622 319.619 337.432 318.411 336.892 317.836 336.189 317.031 335.595 316.168 333.919 313.925ZM332.081 315.133C330.946 317.204 328.946 320.08 325.919 320.08 323.054 320.08 321.595 317.089 321.595 314.558 321.595 311.739 323.432 309.381 325.811 309.381 327.378 309.381 328.568 310.589 329.108 311.221 329.811 311.969 330.405 312.889 332.081 315.133" fill="#A3C2A3" fill-rule="evenodd"/><path d="M351 320.792C351 319.02 350.379 318 349.397 318 348.517 318 348 318.644 348 319.396 348 320.148 348.517 320.846 349.397 320.846 349.707 320.846 350.017 320.738 350.276 320.47 350.328 320.416 350.379 320.416 350.379 320.416 350.431 320.416 350.431 320.416 350.431 320.792 350.431 322.779 349.552 324.389 348.724 325.248 348.414 325.57 348.414 325.624 348.414 325.678 348.414 325.893 348.569 326 348.672 326 348.983 326 351 323.96 351 320.792" fill="#A3C2A3" fill-rule="evenodd"/><path d="M371.611 304.01C371.231 304.367 370.308 305.031 370.308 305.49 370.308 305.745 370.579 306 370.851 306 371.122 306 371.231 305.847 371.394 305.694 371.719 305.286 372.317 304.622 373.511 304.061 373.729 303.959 374 303.806 374 303.5 374 303.245 373.783 303.143 373.62 302.99 373.023 302.633 372.697 302.173 372.48 301.561 372.425 301.306 372.317 301 371.937 301 371.557 301 371.394 301.306 371.394 301.51 371.394 301.663 371.611 302.48 372.045 302.99L362.923 302.99C362.489 302.99 362 302.99 362 303.5 362 304.01 362.489 304.01 362.923 304.01L371.611 304.01" fill="#A3C2A3" fill-rule="evenodd"/><path d="M366.936 312.027C367.092 311.279 367.719 308.633 369.546 308.633 369.651 308.633 370.277 308.633 370.851 309.035 370.12 309.15 369.598 309.898 369.598 310.589 369.598 311.049 369.859 311.566 370.59 311.566 371.165 311.566 372 311.049 372 309.898 372 308.403 370.434 308 369.546 308 368.032 308 367.145 309.553 366.831 310.186 366.153 308.288 364.795 308 364.012 308 361.297 308 359.835 311.739 359.835 312.429 359.835 312.717 360.096 312.717 360.149 312.717 360.357 312.717 360.41 312.659 360.462 312.429 361.349 309.381 363.072 308.633 363.96 308.633 364.482 308.633 365.369 308.92 365.369 310.589 365.369 311.451 364.952 313.407 363.96 317.376 363.542 319.159 362.655 320.367 361.506 320.367 361.349 320.367 360.723 320.367 360.201 320.022 360.827 319.85 361.402 319.274 361.402 318.469 361.402 317.664 360.827 317.434 360.462 317.434 359.679 317.434 359 318.181 359 319.102 359 320.425 360.305 321 361.454 321 363.177 321 364.116 318.987 364.221 318.814 364.534 319.907 365.474 321 366.988 321 369.703 321 371.165 317.319 371.165 316.571 371.165 316.283 370.956 316.283 370.851 316.283 370.643 316.283 370.59 316.398 370.538 316.628 369.651 319.677 367.875 320.367 367.04 320.367 366.048 320.367 365.631 319.447 365.631 318.469 365.631 317.836 365.787 317.204 366.048 315.938L366.936 312.027" fill="#A3C2A3" fill-rule="evenodd"/><path d="M381.488 311.698C381.488 311.43 381.488 311 381 311 380.566 311 380.566 311.43 380.566 311.698L380.566 323.033 374.76 323.033C374.488 323.033 374 323.033 374 323.517 374 324 374.434 324 374.76 324L387.24 324C387.566 324 388 324 388 323.517 388 323.033 387.566 323.033 387.24 323.033L381.488 323.033 381.488 311.698" fill="#A3C2A3" fill-rule="evenodd"/><path d="M399 313.5C399 311.386 398.69 308.133 397.293 305.096 395.741 301.735 393.517 300 393.259 300 393.103 300 393 300.108 393 300.271 393 300.325 393 300.38 393.517 300.867 396 303.578 397.5 307.861 397.5 313.5 397.5 318.108 396.517 322.88 393.362 326.295 393 326.62 393 326.675 393 326.729 393 326.892 393.103 327 393.259 327 393.517 327 395.845 325.157 397.345 321.741 398.69 318.759 399 315.777 399 313.5" fill="#A3C2A3" fill-rule="evenodd"/><path d="M299 477.739C299 477.687 299 477.635 298.534 477.165 295.328 473.928 294.5 468.968 294.5 465 294.5 460.458 295.483 455.968 298.638 452.679 299 452.365 299 452.313 299 452.261 299 452.052 298.897 452 298.741 452 298.483 452 296.155 453.775 294.603 457.064 293.31 459.936 293 462.807 293 465 293 467.036 293.31 470.169 294.707 473.145 296.259 476.329 298.483 478 298.741 478 298.897 478 299 477.948 299 477.739" fill="#A3C2A3" fill-rule="evenodd"/><path d="M318.105 465C318.526 465 319 465 319 464.5 319 464 318.526 464 318.105 464L303.895 464C303.474 464 303 464 303 464.5 303 465 303.474 465 303.895 465L318.105 465" fill="#A3C2A3" fill-rule="evenodd"/><path d="M335.244 464.566C333.781 462.761 333.456 462.336 332.643 461.699 331.126 460.478 329.609 460 328.201 460 325.059 460 323 462.92 323 466.053 323 469.08 325.005 472 328.093 472 331.235 472 333.456 469.611 334.81 467.487 336.273 469.292 336.544 469.664 337.411 470.354 338.928 471.522 340.445 472 341.799 472 344.995 472 347 469.08 347 466 347 462.973 345.05 460 341.907 460 338.819 460 336.544 462.442 335.244 464.566ZM335.948 465.469C337.032 463.558 339.036 460.85 342.124 460.85 344.995 460.85 346.404 463.611 346.404 466 346.404 468.602 344.616 470.726 342.233 470.726 340.661 470.726 339.47 469.611 338.874 469.08 338.223 468.336 337.573 467.54 335.948 465.469ZM334.106 466.584C332.968 468.496 330.964 471.15 327.93 471.15 325.059 471.15 323.596 468.389 323.596 466.053 323.596 463.451 325.438 461.274 327.767 461.274 329.339 461.274 330.585 462.389 331.126 462.973 331.831 463.664 332.427 464.513 334.106 466.584" fill="#A3C2A3" fill-rule="evenodd"/><path d="M353 471.792C353 470.02 352.379 469 351.345 469 350.517 469 350 469.644 350 470.396 350 471.148 350.517 471.846 351.345 471.846 351.655 471.846 352.017 471.738 352.276 471.47 352.328 471.416 352.379 471.416 352.379 471.416 352.431 471.416 352.431 471.416 352.431 471.792 352.431 473.779 351.552 475.389 350.672 476.248 350.414 476.57 350.414 476.624 350.414 476.678 350.414 476.893 350.517 477 350.672 477 350.931 477 353 474.96 353 471.792" fill="#A3C2A3" fill-rule="evenodd"/><path d="M373.81 455.612C373.462 456.041 372.615 456.837 372.615 457.388 372.615 457.694 372.864 458 373.113 458 373.362 458 373.462 457.816 373.611 457.633 373.91 457.143 374.457 456.347 375.552 455.673 375.751 455.551 376 455.367 376 455 376 454.694 375.801 454.571 375.652 454.388 375.104 453.959 374.805 453.408 374.606 452.673 374.557 452.367 374.457 452 374.109 452 373.76 452 373.611 452.367 373.611 452.612 373.611 452.796 373.81 453.776 374.208 454.388L365.846 454.388C365.448 454.388 365 454.388 365 455 365 455.612 365.448 455.612 365.846 455.612L373.81 455.612" fill="#A3C2A3" fill-rule="evenodd"/><path d="M372.896 461.632C373 461.263 373 461.211 373 461 373 460.526 372.635 460.316 372.217 460.316 371.957 460.316 371.539 460.474 371.33 460.842 371.278 461 371.07 461.789 370.965 462.263 370.757 462.947 370.6 463.684 370.443 464.368L369.296 469.105C369.191 469.474 368.043 471.316 366.322 471.316 365.017 471.316 364.704 470.158 364.704 469.211 364.704 468 365.174 466.368 366.061 464.053 366.478 463 366.583 462.684 366.583 462.158 366.583 461 365.748 460 364.443 460 361.939 460 361 463.842 361 464.053 361 464.316 361.261 464.316 361.313 464.316 361.574 464.316 361.574 464.263 361.73 463.842 362.409 461.368 363.452 460.579 364.339 460.579 364.548 460.579 365.017 460.579 365.017 461.421 365.017 462.105 364.757 462.789 364.548 463.263 363.504 466.053 363.035 467.526 363.035 468.789 363.035 471.105 364.704 471.895 366.217 471.895 367.261 471.895 368.148 471.474 368.878 470.737 368.513 472.105 368.2 473.368 367.157 474.789 366.478 475.684 365.487 476.421 364.287 476.421 363.922 476.421 362.774 476.316 362.304 475.316 362.722 475.316 363.087 475.316 363.452 475 363.713 474.789 363.974 474.421 363.974 473.947 363.974 473.105 363.243 473 362.983 473 362.409 473 361.522 473.421 361.522 474.737 361.522 476 362.67 477 364.287 477 367 477 369.661 474.632 370.391 471.632L372.896 461.632" fill="#A3C2A3" fill-rule="evenodd"/><path d="M381.488 463.645C381.488 463.397 381.488 463 381 463 380.566 463 380.566 463.397 380.566 463.645L380.566 474.107 374.76 474.107C374.488 474.107 374 474.107 374 474.554 374 475 374.434 475 374.76 475L387.24 475C387.566 475 388 475 388 474.554 388 474.107 387.566 474.107 387.24 474.107L381.488 474.107 381.488 463.645" fill="#A3C2A3" fill-rule="evenodd"/><path d="M399 465C399 462.964 398.638 459.831 397.009 456.908 395.198 453.671 392.603 452 392.302 452 392.121 452 392 452.104 392 452.261 392 452.313 392 452.365 392.603 452.835 395.56 455.446 397.25 459.57 397.25 465 397.25 469.438 396.103 474.032 392.422 477.321 392 477.635 392 477.687 392 477.739 392 477.896 392.121 478 392.302 478 392.603 478 395.319 476.225 397.069 472.936 398.638 470.064 399 467.193 399 465" fill="#A3C2A3" fill-rule="evenodd"/></g></svg>