<svg width="268" height="200" xmlns="http://www.w3.org/2000/svg" xmlns:xlink="http://www.w3.org/1999/xlink" overflow="hidden"><defs><clipPath id="clip0"><path d="M153 48 421 48 421 248 153 248Z" fill-rule="evenodd" clip-rule="evenodd"/></clipPath><radialGradient cx="581025" cy="576263" r="818333" gradientUnits="userSpaceOnUse" spreadMethod="pad" id="fill1" gradientTransform="matrix(0.000104987 0 0 0.000104987 204 92)"><stop offset="0" stop-color="#F6F8FC" stop-opacity="0.2"/><stop offset="0.00438596" stop-color="#F5F7FB" stop-opacity="0.203509"/><stop offset="0.00877193" stop-color="#F5F7FB" stop-opacity="0.207018"/><stop offset="0.0131579" stop-color="#F5F7FB" stop-opacity="0.210526"/><stop offset="0.0175439" stop-color="#F5F7FB" stop-opacity="0.214035"/><stop offset="0.0219298" stop-color="#F5F7FB" stop-opacity="0.217544"/><stop offset="0.0263158" stop-color="#F5F7FB" stop-opacity="0.221053"/><stop offset="0.0307018" stop-color="#F5F7FB" stop-opacity="0.224561"/><stop offset="0.0350877" stop-color="#F5F7FB" stop-opacity="0.22807"/><stop offset="0.0394737" stop-color="#F5F7FB" stop-opacity="0.231579"/><stop offset="0.0438596" stop-color="#F5F7FB" stop-opacity="0.235088"/><stop offset="0.0482456" stop-color="#F5F7FB" stop-opacity="0.238596"/><stop offset="0.0526316" stop-color="#F5F7FB" stop-opacity="0.242105"/><stop offset="0.0570175" stop-color="#F4F7FB" stop-opacity="0.245614"/><stop offset="0.0614035" stop-color="#F4F7FB" stop-opacity="0.249123"/><stop offset="0.0657895" stop-color="#F4F7FB" stop-opacity="0.252632"/><stop offset="0.0701754" stop-color="#F4F7FB" stop-opacity="0.25614"/><stop offset="0.0745614" stop-color="#F4F7FA" stop-opacity="0.259649"/><stop offset="0.0789474" stop-color="#F4F6FA" stop-opacity="0.263158"/><stop offset="0.0833333" stop-color="#F3F6FA" stop-opacity="0.266667"/><stop offset="0.0877193" stop-color="#F3F6FA" stop-opacity="0.270175"/><stop offset="0.0921053" stop-color="#F3F6FA" stop-opacity="0.273684"/><stop offset="0.0964912" stop-color="#F3F6FA" stop-opacity="0.277193"/><stop offset="0.100877" stop-color="#F2F6FA" stop-opacity="0.280702"/><stop offset="0.105263" stop-color="#F2F6FA" stop-opacity="0.284211"/><stop offset="0.109649" stop-color="#F2F5F9" stop-opacity="0.287719"/><stop offset="0.114035" stop-color="#F2F5F9" stop-opacity="0.291228"/><stop offset="0.118421" stop-color="#F1F5F9" stop-opacity="0.294737"/><stop offset="0.122807" stop-color="#F1F5F9" stop-opacity="0.298246"/><stop offset="0.127193" stop-color="#F1F5F9" stop-opacity="0.301754"/><stop offset="0.131579" stop-color="#F0F5F9" stop-opacity="0.305263"/><stop offset="0.135965" stop-color="#F0F4F8" stop-opacity="0.308772"/><stop offset="0.140351" stop-color="#F0F4F8" stop-opacity="0.312281"/><stop offset="0.144737" stop-color="#EFF4F8" stop-opacity="0.315789"/><stop offset="0.149123" stop-color="#EFF4F8" stop-opacity="0.319298"/><stop offset="0.153509" stop-color="#EFF4F8" stop-opacity="0.322807"/><stop offset="0.157895" stop-color="#EEF3F7" stop-opacity="0.326316"/><stop offset="0.162281" stop-color="#EEF3F7" stop-opacity="0.329825"/><stop offset="0.166667" stop-color="#EEF3F7" stop-opacity="0.333333"/><stop offset="0.171053" stop-color="#EDF3F7" stop-opacity="0.336842"/><stop offset="0.175439" stop-color="#EDF3F6" stop-opacity="0.340351"/><stop offset="0.179825" stop-color="#ECF2F6" stop-opacity="0.34386"/><stop offset="0.184211" stop-color="#ECF2F6" stop-opacity="0.347368"/><stop offset="0.188596" stop-color="#EBF2F6" stop-opacity="0.350877"/><stop offset="0.192982" stop-color="#EBF2F5" stop-opacity="0.354386"/><stop offset="0.197368" stop-color="#EBF1F5" stop-opacity="0.357895"/><stop offset="0.201754" stop-color="#EAF1F5" stop-opacity="0.361404"/><stop offset="0.20614" stop-color="#EAF1F5" stop-opacity="0.364912"/><stop offset="0.210526" stop-color="#E9F1F4" stop-opacity="0.368421"/><stop offset="0.214912" stop-color="#E9F0F4" stop-opacity="0.37193"/><stop offset="0.219298" stop-color="#E8F0F4" stop-opacity="0.375439"/><stop offset="0.223684" stop-color="#E8F0F3" stop-opacity="0.378947"/><stop offset="0.22807" stop-color="#E7EFF3" stop-opacity="0.382456"/><stop offset="0.232456" stop-color="#E7EFF3" stop-opacity="0.385965"/><stop offset="0.236842" stop-color="#E6EFF3" stop-opacity="0.389474"/><stop offset="0.241228" stop-color="#E6EFF2" stop-opacity="0.392982"/><stop offset="0.245614" stop-color="#E5EEF2" stop-opacity="0.396491"/><stop offset="0.25" stop-color="#E4EEF2" stop-opacity="0.4"/><stop offset="0.254386" stop-color="#E4EEF1" stop-opacity="0.403509"/><stop offset="0.258772" stop-color="#E3EDF1" stop-opacity="0.407018"/><stop offset="0.263158" stop-color="#E3EDF1" stop-opacity="0.410526"/><stop offset="0.267544" stop-color="#E2EDF0" stop-opacity="0.414035"/><stop offset="0.27193" stop-color="#E2ECF0" stop-opacity="0.417544"/><stop offset="0.276316" stop-color="#E1ECF0" stop-opacity="0.421053"/><stop offset="0.280702" stop-color="#E0ECEF" stop-opacity="0.424561"/><stop offset="0.285088" stop-color="#E0EBEF" stop-opacity="0.42807"/><stop offset="0.289474" stop-color="#DFEBEE" stop-opacity="0.431579"/><stop offset="0.29386" stop-color="#DEEBEE" stop-opacity="0.435088"/><stop offset="0.298246" stop-color="#DEEAEE" stop-opacity="0.438596"/><stop offset="0.302632" stop-color="#DDEAED" stop-opacity="0.442105"/><stop offset="0.307018" stop-color="#DCEAED" stop-opacity="0.445614"/><stop offset="0.311404" stop-color="#DCE9ED" stop-opacity="0.449123"/><stop offset="0.315789" stop-color="#DBE9EC" stop-opacity="0.452632"/><stop offset="0.320175" stop-color="#DAE8EC" stop-opacity="0.45614"/><stop offset="0.324561" stop-color="#DAE8EB" stop-opacity="0.459649"/><stop offset="0.328947" stop-color="#D9E8EB" stop-opacity="0.463158"/><stop offset="0.333333" stop-color="#D8E7EB" stop-opacity="0.466667"/><stop offset="0.337719" stop-color="#D8E7EA" stop-opacity="0.470175"/><stop offset="0.342105" stop-color="#D7E6EA" stop-opacity="0.473684"/><stop offset="0.346491" stop-color="#D6E6E9" stop-opacity="0.477193"/><stop offset="0.350877" stop-color="#D5E6E9" stop-opacity="0.480702"/><stop offset="0.355263" stop-color="#D5E5E8" stop-opacity="0.484211"/><stop offset="0.359649" stop-color="#D4E5E8" stop-opacity="0.487719"/><stop offset="0.364035" stop-color="#D3E4E8" stop-opacity="0.491228"/><stop offset="0.368421" stop-color="#D2E4E7" stop-opacity="0.494737"/><stop offset="0.372807" stop-color="#D1E3E7" stop-opacity="0.498246"/><stop offset="0.377193" stop-color="#D1E3E6" stop-opacity="0.501754"/><stop offset="0.381579" stop-color="#D0E2E6" stop-opacity="0.505263"/><stop offset="0.385965" stop-color="#CFE2E5" stop-opacity="0.508772"/><stop offset="0.390351" stop-color="#CEE2E5" stop-opacity="0.512281"/><stop offset="0.394737" stop-color="#CDE1E4" stop-opacity="0.51579"/><stop offset="0.399123" stop-color="#CDE1E4" stop-opacity="0.519298"/><stop offset="0.403509" stop-color="#CCE0E3" stop-opacity="0.522807"/><stop offset="0.407895" stop-color="#CBE0E3" stop-opacity="0.526316"/><stop offset="0.412281" stop-color="#CADFE2" stop-opacity="0.529825"/><stop offset="0.416667" stop-color="#C9DFE2" stop-opacity="0.533333"/><stop offset="0.421053" stop-color="#C8DEE1" stop-opacity="0.536842"/><stop offset="0.425439" stop-color="#C7DEE1" stop-opacity="0.540351"/><stop offset="0.429825" stop-color="#C6DDE0" stop-opacity="0.54386"/><stop offset="0.434211" stop-color="#C6DDE0" stop-opacity="0.547368"/><stop offset="0.438596" stop-color="#C5DCDF" stop-opacity="0.550877"/><stop offset="0.442982" stop-color="#C4DCDF" stop-opacity="0.554386"/><stop offset="0.447368" stop-color="#C3DBDE" stop-opacity="0.557895"/><stop offset="0.451754" stop-color="#C2DBDE" stop-opacity="0.561404"/><stop offset="0.45614" stop-color="#C1DADD" stop-opacity="0.564912"/><stop offset="0.460526" stop-color="#C0DADC" stop-opacity="0.568421"/><stop offset="0.464912" stop-color="#BFD9DC" stop-opacity="0.57193"/><stop offset="0.469298" stop-color="#BED9DB" stop-opacity="0.575439"/><stop offset="0.473684" stop-color="#BDD8DB" stop-opacity="0.578947"/><stop offset="0.47807" stop-color="#BCD7DA" stop-opacity="0.582456"/><stop offset="0.482456" stop-color="#BBD7DA" stop-opacity="0.585965"/><stop offset="0.486842" stop-color="#BAD6D9" stop-opacity="0.589474"/><stop offset="0.491228" stop-color="#B9D6D8" stop-opacity="0.592982"/><stop offset="0.495614" stop-color="#B8D5D8" stop-opacity="0.596491"/><stop offset="0.5" stop-color="#B7D5D7" stop-opacity="0.6"/><stop offset="0.504386" stop-color="#B6D4D7" stop-opacity="0.603509"/><stop offset="0.508772" stop-color="#B5D3D6" stop-opacity="0.607018"/><stop offset="0.513158" stop-color="#B4D3D5" stop-opacity="0.610526"/><stop offset="0.517544" stop-color="#B3D2D5" stop-opacity="0.614035"/><stop offset="0.52193" stop-color="#B2D2D4" stop-opacity="0.617544"/><stop offset="0.526316" stop-color="#B1D1D4" stop-opacity="0.621053"/><stop offset="0.530702" stop-color="#B0D0D3" stop-opacity="0.624561"/><stop offset="0.535088" stop-color="#AFD0D2" stop-opacity="0.62807"/><stop offset="0.539474" stop-color="#AECFD2" stop-opacity="0.631579"/><stop offset="0.54386" stop-color="#ACCFD1" stop-opacity="0.635088"/><stop offset="0.548246" stop-color="#ABCED0" stop-opacity="0.638596"/><stop offset="0.552632" stop-color="#AACDD0" stop-opacity="0.642105"/><stop offset="0.557018" stop-color="#A9CDCF" stop-opacity="0.645614"/><stop offset="0.561404" stop-color="#A8CCCE" stop-opacity="0.649123"/><stop offset="0.565789" stop-color="#A7CCCE" stop-opacity="0.652632"/><stop offset="0.570175" stop-color="#A6CBCD" stop-opacity="0.65614"/><stop offset="0.574561" stop-color="#A4CACC" stop-opacity="0.659649"/><stop offset="0.578947" stop-color="#A3CACC" stop-opacity="0.663158"/><stop offset="0.583333" stop-color="#A2C9CB" stop-opacity="0.666667"/><stop offset="0.587719" stop-color="#A1C8CA" stop-opacity="0.670175"/><stop offset="0.592105" stop-color="#A0C8CA" stop-opacity="0.673684"/><stop offset="0.596491" stop-color="#9FC7C9" stop-opacity="0.677193"/><stop offset="0.600877" stop-color="#9DC6C8" stop-opacity="0.680702"/><stop offset="0.605263" stop-color="#9CC6C8" stop-opacity="0.684211"/><stop offset="0.609649" stop-color="#9BC5C7" stop-opacity="0.687719"/><stop offset="0.614035" stop-color="#9AC4C6" stop-opacity="0.691228"/><stop offset="0.618421" stop-color="#98C4C5" stop-opacity="0.694737"/><stop offset="0.622807" stop-color="#97C3C5" stop-opacity="0.698246"/><stop offset="0.627193" stop-color="#96C2C4" stop-opacity="0.701754"/><stop offset="0.631579" stop-color="#95C1C3" stop-opacity="0.705263"/><stop offset="0.635965" stop-color="#93C1C3" stop-opacity="0.708772"/><stop offset="0.640351" stop-color="#92C0C2" stop-opacity="0.712281"/><stop offset="0.644737" stop-color="#91BFC1" stop-opacity="0.715789"/><stop offset="0.649123" stop-color="#90BFC0" stop-opacity="0.719298"/><stop offset="0.653509" stop-color="#8EBEC0" stop-opacity="0.722807"/><stop offset="0.657895" stop-color="#8DBDBF" stop-opacity="0.726316"/><stop offset="0.662281" stop-color="#8CBCBE" stop-opacity="0.729825"/><stop offset="0.666667" stop-color="#8ABCBD" stop-opacity="0.733333"/><stop offset="0.671053" stop-color="#89BBBD" stop-opacity="0.736842"/><stop offset="0.675439" stop-color="#88BABC" stop-opacity="0.740351"/><stop offset="0.679825" stop-color="#86B9BB" stop-opacity="0.74386"/><stop offset="0.684211" stop-color="#85B9BA" stop-opacity="0.747368"/><stop offset="0.688596" stop-color="#84B8B9" stop-opacity="0.750877"/><stop offset="0.692982" stop-color="#82B7B9" stop-opacity="0.754386"/><stop offset="0.697368" stop-color="#81B6B8" stop-opacity="0.757895"/><stop offset="0.701754" stop-color="#80B6B7" stop-opacity="0.761404"/><stop offset="0.70614" stop-color="#7EB5B6" stop-opacity="0.764912"/><stop offset="0.710526" stop-color="#7DB4B5" stop-opacity="0.768421"/><stop offset="0.714912" stop-color="#7BB3B5" stop-opacity="0.77193"/><stop offset="0.719298" stop-color="#7AB2B4" stop-opacity="0.775439"/><stop offset="0.723684" stop-color="#79B2B3" stop-opacity="0.778947"/><stop offset="0.72807" stop-color="#77B1B2" stop-opacity="0.782456"/><stop offset="0.732456" stop-color="#76B0B1" stop-opacity="0.785965"/><stop offset="0.736842" stop-color="#74AFB0" stop-opacity="0.789474"/><stop offset="0.741228" stop-color="#73AEB0" stop-opacity="0.792982"/><stop offset="0.745614" stop-color="#71AEAF" stop-opacity="0.796491"/><stop offset="0.75" stop-color="#70ADAE" stop-opacity="0.8"/><stop offset="0.754386" stop-color="#6FACAD" stop-opacity="0.803509"/><stop offset="0.758772" stop-color="#6DABAC" stop-opacity="0.807018"/><stop offset="0.763158" stop-color="#6CAAAB" stop-opacity="0.810526"/><stop offset="0.767544" stop-color="#6AAAAB" stop-opacity="0.814035"/><stop offset="0.77193" stop-color="#69A9AA" stop-opacity="0.817544"/><stop offset="0.776316" stop-color="#67A8A9" stop-opacity="0.821053"/><stop offset="0.780702" stop-color="#66A7A8" stop-opacity="0.824561"/><stop offset="0.785088" stop-color="#64A6A7" stop-opacity="0.82807"/><stop offset="0.789474" stop-color="#62A5A6" stop-opacity="0.831579"/><stop offset="0.79386" stop-color="#61A4A5" stop-opacity="0.835088"/><stop offset="0.798246" stop-color="#5FA4A4" stop-opacity="0.838596"/><stop offset="0.802632" stop-color="#5EA3A3" stop-opacity="0.842105"/><stop offset="0.807018" stop-color="#5CA2A3" stop-opacity="0.845614"/><stop offset="0.811404" stop-color="#5BA1A2" stop-opacity="0.849123"/><stop offset="0.815789" stop-color="#59A0A1" stop-opacity="0.852632"/><stop offset="0.820175" stop-color="#589FA0" stop-opacity="0.85614"/><stop offset="0.824561" stop-color="#569E9F" stop-opacity="0.859649"/><stop offset="0.828947" stop-color="#549D9E" stop-opacity="0.863158"/><stop offset="0.833333" stop-color="#539D9D" stop-opacity="0.866667"/><stop offset="0.837719" stop-color="#519C9C" stop-opacity="0.870175"/><stop offset="0.842105" stop-color="#509B9B" stop-opacity="0.873684"/><stop offset="0.846491" stop-color="#4E9A9A" stop-opacity="0.877193"/><stop offset="0.850877" stop-color="#4C9999" stop-opacity="0.880702"/><stop offset="0.855263" stop-color="#4B9898" stop-opacity="0.884211"/><stop offset="0.859649" stop-color="#499797" stop-opacity="0.887719"/><stop offset="0.864035" stop-color="#479696" stop-opacity="0.891228"/><stop offset="0.868421" stop-color="#469595" stop-opacity="0.894737"/><stop offset="0.872807" stop-color="#449494" stop-opacity="0.898246"/><stop offset="0.877193" stop-color="#429393" stop-opacity="0.901754"/><stop offset="0.881579" stop-color="#419292" stop-opacity="0.905263"/><stop offset="0.885965" stop-color="#3F9192" stop-opacity="0.908772"/><stop offset="0.890351" stop-color="#3D9191" stop-opacity="0.912281"/><stop offset="0.894737" stop-color="#3C9090" stop-opacity="0.915789"/><stop offset="0.899123" stop-color="#3A8F8F" stop-opacity="0.919298"/><stop offset="0.903509" stop-color="#388E8E" stop-opacity="0.922807"/><stop offset="0.907895" stop-color="#368D8D" stop-opacity="0.926316"/><stop offset="0.912281" stop-color="#358C8C" stop-opacity="0.929825"/><stop offset="0.916667" stop-color="#338B8B" stop-opacity="0.933333"/><stop offset="0.921053" stop-color="#318A8A" stop-opacity="0.936842"/><stop offset="0.925439" stop-color="#2F8988" stop-opacity="0.940351"/><stop offset="0.929825" stop-color="#2E8887" stop-opacity="0.94386"/><stop offset="0.934211" stop-color="#2C8786" stop-opacity="0.947368"/><stop offset="0.938596" stop-color="#2A8685" stop-opacity="0.950877"/><stop offset="0.942982" stop-color="#288584" stop-opacity="0.954386"/><stop offset="0.947368" stop-color="#278483" stop-opacity="0.957895"/><stop offset="0.951754" stop-color="#258382" stop-opacity="0.961403"/><stop offset="0.95614" stop-color="#238281" stop-opacity="0.964912"/><stop offset="0.960526" stop-color="#218180" stop-opacity="0.968421"/><stop offset="0.964912" stop-color="#1F807F" stop-opacity="0.97193"/><stop offset="0.969298" stop-color="#1E7F7E" stop-opacity="0.975439"/><stop offset="0.973684" stop-color="#1C7E7D" stop-opacity="0.978947"/><stop offset="0.97807" stop-color="#1A7D7C" stop-opacity="0.982456"/><stop offset="0.982456" stop-color="#187C7B" stop-opacity="0.985965"/><stop offset="0.986842" stop-color="#167B7A" stop-opacity="0.989474"/><stop offset="0.991228" stop-color="#147A79" stop-opacity="0.992982"/><stop offset="0.995614" stop-color="#127978" stop-opacity="0.996491"/><stop offset="1" stop-color="#117877"/></radialGradient></defs><g clip-path="url(#clip0)" transform="translate(-153 -48)"><path d="M0 0 39.5843 39.5843" stroke="#A3C2A3" stroke-width="2" stroke-miterlimit="8" fill="none" fill-rule="evenodd" transform="matrix(1 0 0 -1 326 214.584)"/><path d="M0 0 39.5843 39.5843" stroke="#A3C2A3" stroke-width="2" stroke-miterlimit="8" fill="none" fill-rule="evenodd" transform="matrix(1 0 0 -1 326 92.5843)"/><path d="M0 0 39.5843 39.5843" stroke="#A3C2A3" stroke-width="2" stroke-miterlimit="8" fill="none" fill-rule="evenodd" transform="matrix(1 0 0 -1 204 92.5843)"/><path d="M0 0 39.5843 39.5843" stroke="#A3C2A3" stroke-width="2" stroke-miterlimit="8" fill="none" fill-rule="evenodd" transform="matrix(1 0 0 -1 204 214.584)"/><rect x="244" y="53" width="122" height="122" stroke="#A3C2A3" stroke-width="2" stroke-miterlimit="8" fill="none"/><path d="M239 175.5C239 173.015 241.239 171 244 171 246.761 171 249 173.015 249 175.5 249 177.985 246.761 180 244 180 241.239 180 239 177.985 239 175.5Z" fill="#A3C2A3" fill-rule="evenodd"/><path d="M239 53C239 50.2386 241.239 48 244 48 246.761 48 249 50.2386 249 53 249 55.7614 246.761 58 244 58 241.239 58 239 55.7614 239 53Z" fill="#A3C2A3" fill-rule="evenodd"/><path d="M361 53C361 50.2386 363.239 48 366 48 368.761 48 371 50.2386 371 53 371 55.7614 368.761 58 366 58 363.239 58 361 55.7614 361 53Z" fill="#A3C2A3" fill-rule="evenodd"/><path d="M361 175C361 172.239 363.239 170 366 170 368.761 170 371 172.239 371 175 371 177.761 368.761 180 366 180 363.239 180 361 177.761 361 175Z" fill="#A3C2A3" fill-rule="evenodd"/><rect x="204" y="92" width="122" height="121" stroke="#117877" stroke-width="2" stroke-miterlimit="8" fill="url(#fill1)"/><path d="M321 93C321 90.2386 323.239 88 326 88 328.761 88 331 90.2386 331 93 331 95.7614 328.761 98 326 98 323.239 98 321 95.7614 321 93Z" fill="#117877" fill-rule="evenodd"/><path d="M199 93C199 90.2386 201.239 88 204 88 206.761 88 209 90.2386 209 93 209 95.7614 206.761 98 204 98 201.239 98 199 95.7614 199 93Z" fill="#117877" fill-rule="evenodd"/><path d="M322 214C322 211.239 324.015 209 326.5 209 328.985 209 331 211.239 331 214 331 216.761 328.985 219 326.5 219 324.015 219 322 216.761 322 214Z" fill="#117877" fill-rule="evenodd"/><path d="M202.553 226.092C201.83 226.31 201.447 227.052 201.447 227.576 201.447 228.057 201.787 228.581 202.468 228.581 203.234 228.581 204 227.969 204 226.878 204 225.742 202.894 225 201.617 225 200.383 225 199.617 225.917 199.319 226.31 198.809 225.393 197.617 225 196.383 225 193.745 225 192.298 227.664 192.298 228.362 192.298 228.668 192.596 228.668 192.809 228.668 193.064 228.668 193.191 228.668 193.277 228.406 193.915 226.441 195.404 225.786 196.298 225.786 197.106 225.786 197.489 226.179 197.489 226.834 197.489 227.271 197.191 228.45 196.979 229.236L196.255 232.249C195.957 233.559 195.191 234.214 194.468 234.214 194.383 234.214 193.872 234.214 193.447 233.908 194.213 233.69 194.596 232.948 194.596 232.38 194.596 231.9 194.255 231.376 193.532 231.376 192.809 231.376 192 232.031 192 233.079 192 234.258 193.149 235 194.426 235 195.617 235 196.426 234.083 196.681 233.69 197.234 234.607 198.426 235 199.617 235 202.298 235 203.745 232.336 203.745 231.594 203.745 231.288 203.404 231.288 203.234 231.288 202.979 231.288 202.809 231.288 202.723 231.594 202.128 233.559 200.596 234.214 199.745 234.214 198.936 234.214 198.553 233.821 198.553 233.122 198.553 232.686 198.809 231.507 199.021 230.721 199.149 230.153 199.66 228.1 199.745 227.751 200.085 226.441 200.809 225.786 201.574 225.786 201.66 225.786 202.17 225.786 202.553 226.092" fill-rule="evenodd"/><path d="M336.596 227.13C335.83 227.348 335.447 228.087 335.447 228.609 335.447 229.087 335.787 229.609 336.511 229.609 337.234 229.609 338 229 338 227.913 338 226.783 336.894 226 335.617 226 334.383 226 333.617 226.957 333.319 227.348 332.809 226.435 331.617 226 330.383 226 327.745 226 326.298 228.696 326.298 229.391 326.298 229.696 326.596 229.696 326.809 229.696 327.064 229.696 327.191 229.696 327.277 229.435 327.915 227.435 329.404 226.783 330.298 226.783 331.106 226.783 331.489 227.174 331.489 227.87 331.489 228.304 331.191 229.478 330.979 230.261L330.255 233.217C329.957 234.565 329.191 235.217 328.468 235.217 328.383 235.217 327.872 235.217 327.447 234.87 328.213 234.652 328.596 233.913 328.596 233.391 328.596 232.913 328.255 232.391 327.532 232.391 326.809 232.391 326 233 326 234.087 326 235.217 327.149 236 328.426 236 329.617 236 330.426 235.043 330.681 234.652 331.234 235.565 332.426 236 333.617 236 336.298 236 337.745 233.304 337.745 232.609 337.745 232.304 337.447 232.304 337.234 232.304 336.979 232.304 336.851 232.304 336.766 232.609 336.128 234.565 334.596 235.217 333.745 235.217 332.936 235.217 332.553 234.826 332.553 234.13 332.553 233.652 332.809 232.522 333.021 231.739 333.149 231.174 333.66 229.13 333.745 228.783 334.085 227.478 334.809 226.783 335.574 226.783 335.66 226.783 336.17 226.783 336.596 227.13" fill-rule="evenodd"/><path d="M352.422 230.422 358.325 230.422C358.62 230.422 359 230.422 359 230 359 229.578 358.62 229.578 358.325 229.578L352.422 229.578 352.422 223.717C352.422 223.422 352.422 223 352 223 351.578 223 351.578 223.422 351.578 223.717L351.578 229.578 345.717 229.578C345.422 229.578 345 229.578 345 230 345 230.422 345.422 230.422 345.717 230.422L351.578 230.422 351.578 236.325C351.578 236.62 351.578 237 352 237 352.422 237 352.422 236.62 352.422 236.325L352.422 230.422" fill-rule="evenodd"/><path d="M372.023 221 369 223.649 369.406 224 372.023 222.013 374.594 224 375 223.649 372.023 221" fill-rule="evenodd"/><path d="M370.074 227.957C370.156 227.489 370.359 226.681 370.359 226.596 370.359 226.213 370.115 226 369.789 226 369.707 226 369.137 226.043 368.974 226.766L366.041 239.064C366 239.319 366 239.362 366 239.404 366 239.745 366.204 240 366.57 240 366.978 240 367.222 239.617 367.263 239.532 367.344 239.362 367.63 238.255 368.363 234.979 369.015 235.532 369.952 235.617 370.359 235.617 371.785 235.617 372.559 234.681 373.048 234.085 373.252 235.021 373.985 235.617 374.881 235.617 375.615 235.617 376.063 235.149 376.389 234.468 376.715 233.702 377 232.426 377 232.383 377 232.17 376.796 232.17 376.756 232.17 376.552 232.17 376.552 232.255 376.47 232.511 376.144 233.915 375.778 235.149 374.922 235.149 374.393 235.149 374.311 234.596 374.311 234.17 374.311 233.702 374.556 232.723 374.719 232L375.289 229.702C375.37 229.362 375.574 228.553 375.656 228.255 375.737 227.745 375.941 226.936 375.941 226.809 375.941 226.426 375.656 226.255 375.37 226.255 375.248 226.255 374.719 226.255 374.556 226.979L373.619 230.979C373.374 232.043 373.13 232.894 373.089 233.106 373.048 233.234 372.07 235.149 370.441 235.149 369.422 235.149 368.933 234.468 368.933 233.319 368.933 232.681 369.056 232.128 369.219 231.532L370.074 227.957" fill-rule="evenodd"/><path d="M163.558 77.1304C162.795 77.3478 162.413 78.087 162.413 78.6087 162.413 79.087 162.753 79.6087 163.473 79.6087 164.194 79.6087 165 79 165 77.913 165 76.7826 163.855 76 162.583 76 161.353 76 160.59 76.9565 160.293 77.3478 159.784 76.4348 158.597 76 157.367 76 154.739 76 153.297 78.6957 153.297 79.3913 153.297 79.6956 153.594 79.6956 153.806 79.6956 154.06 79.6956 154.187 79.6956 154.272 79.4348 154.908 77.4348 156.392 76.7826 157.283 76.7826 158.088 76.7826 158.47 77.1739 158.47 77.8696 158.47 78.3043 158.173 79.4783 157.961 80.2609L157.24 83.2174C156.943 84.5652 156.18 85.2174 155.459 85.2174 155.375 85.2174 154.866 85.2174 154.442 84.8696 155.205 84.6522 155.587 83.913 155.587 83.3913 155.587 82.913 155.247 82.3913 154.527 82.3913 153.806 82.3913 153 83 153 84.087 153 85.2174 154.145 86 155.417 86 156.604 86 157.41 85.0435 157.664 84.6522 158.216 85.5652 159.403 86 160.59 86 163.261 86 164.703 83.3043 164.703 82.6087 164.703 82.3043 164.406 82.3043 164.194 82.3043 163.94 82.3043 163.813 82.3043 163.728 82.5652 163.092 84.5652 161.565 85.2174 160.717 85.2174 159.912 85.2174 159.53 84.8261 159.53 84.1304 159.53 83.6522 159.784 82.5217 159.996 81.6956 160.124 81.1304 160.633 79.1304 160.717 78.7826 161.057 77.4783 161.777 76.7826 162.541 76.7826 162.625 76.7826 163.134 76.7826 163.558 77.1304" fill-rule="evenodd"/><path d="M179.422 81.4217 185.325 81.4217C185.62 81.4217 186 81.4217 186 81 186 80.5783 185.62 80.5783 185.325 80.5783L179.422 80.5783 179.422 74.6747C179.422 74.3795 179.422 74 179 74 178.578 74 178.578 74.3795 178.578 74.6747L178.578 80.5783 172.717 80.5783C172.422 80.5783 172 80.5783 172 81 172 81.4217 172.422 81.4217 172.717 81.4217L178.578 81.4217 178.578 87.3253C178.578 87.6205 178.578 88 179 88 179.422 88 179.422 87.6205 179.422 87.3253L179.422 81.4217" fill-rule="evenodd"/><path d="M199.023 71 196 74.5263 196.406 75 199.023 72.3684 201.594 75 202 74.5263 199.023 71" fill-rule="evenodd"/><path d="M197.617 77.2443C197.617 77.2036 197.617 77 197.362 77 196.851 77 195.319 77.1629 194.766 77.2036 194.596 77.2443 194.383 77.2443 194.383 77.6109 194.383 77.8552 194.553 77.8552 194.894 77.8552 195.915 77.8552 195.915 78.0181 195.915 78.2217 195.915 78.3439 195.702 79.3213 195.532 79.8507L194.255 84.819C194.17 85.1448 194 85.7149 194 85.7557 194 85.9593 194.213 86 194.34 86L194.638 86C196.128 85.7557 198.426 84.9412 200.638 82.9864 203.447 80.5023 204 77.733 204 77.5701 204 77.2036 203.745 77 203.404 77 203.234 77 202.723 77.0815 202.553 77.6923 201.191 82.2941 197.957 84.5747 195.574 85.3077L197.617 77.2443" fill-rule="evenodd"/><path d="M341.596 78.1304C340.83 78.3478 340.447 79.087 340.447 79.6087 340.447 80.087 340.787 80.6087 341.511 80.6087 342.234 80.6087 343 80 343 78.913 343 77.7826 341.894 77 340.617 77 339.383 77 338.617 77.9565 338.319 78.3478 337.809 77.4348 336.617 77 335.383 77 332.745 77 331.298 79.6957 331.298 80.3913 331.298 80.6956 331.596 80.6956 331.809 80.6956 332.064 80.6956 332.191 80.6956 332.277 80.4348 332.915 78.4348 334.404 77.7826 335.298 77.7826 336.106 77.7826 336.489 78.1739 336.489 78.8696 336.489 79.3043 336.191 80.4783 335.979 81.2609L335.255 84.2174C334.957 85.5652 334.191 86.2174 333.468 86.2174 333.383 86.2174 332.872 86.2174 332.447 85.8696 333.213 85.6522 333.596 84.913 333.596 84.3913 333.596 83.913 333.255 83.3913 332.532 83.3913 331.809 83.3913 331 84 331 85.087 331 86.2174 332.149 87 333.426 87 334.617 87 335.426 86.0435 335.681 85.6522 336.234 86.5652 337.426 87 338.617 87 341.298 87 342.745 84.3043 342.745 83.6087 342.745 83.3043 342.404 83.3043 342.234 83.3043 341.979 83.3043 341.851 83.3043 341.766 83.6087 341.128 85.5652 339.596 86.2174 338.745 86.2174 337.936 86.2174 337.553 85.8261 337.553 85.1304 337.553 84.6522 337.809 83.5217 338.021 82.7391 338.149 82.1739 338.66 80.1304 338.745 79.7826 339.085 78.4783 339.809 77.7826 340.574 77.7826 340.66 77.7826 341.17 77.7826 341.596 78.1304" fill-rule="evenodd"/><path d="M357.422 81.4217 363.283 81.4217C363.578 81.4217 364 81.4217 364 81 364 80.5783 363.578 80.5783 363.283 80.5783L357.422 80.5783 357.422 74.7169C357.422 74.4217 357.422 74 357 74 356.578 74 356.578 74.4217 356.578 74.7169L356.578 80.5783 350.717 80.5783C350.422 80.5783 350 80.5783 350 81 350 81.4217 350.422 81.4217 350.717 81.4217L356.578 81.4217 356.578 87.3253C356.578 87.6205 356.578 88 357 88 357.422 88 357.422 87.6205 357.422 87.3253L357.422 81.4217" fill-rule="evenodd"/><path d="M377.023 72 374 74.6494 374.406 75 377.023 73.013 379.594 75 380 74.6494 377.023 72" fill-rule="evenodd"/><path d="M374.472 78.9574C374.561 78.4894 374.782 77.6809 374.782 77.5957 374.782 77.2128 374.517 77 374.162 77 374.074 77 373.454 77.0426 373.277 77.766L370.089 90.0638C370 90.3191 370 90.3617 370 90.4043 370 90.7447 370.266 91 370.62 91 371.107 91 371.373 90.617 371.417 90.5319 371.506 90.3617 371.771 89.2553 372.613 85.9787 373.321 86.5319 374.339 86.617 374.782 86.617 376.332 86.617 377.173 85.6808 377.705 85.0851 377.926 86.0213 378.723 86.617 379.697 86.617 380.45 86.617 380.982 86.1489 381.336 85.4681 381.69 84.7021 382 83.4255 382 83.383 382 83.1702 381.779 83.1702 381.734 83.1702 381.513 83.1702 381.469 83.2553 381.424 83.5106 381.026 84.9149 380.627 86.1489 379.742 86.1489 379.122 86.1489 379.077 85.5957 379.077 85.1702 379.077 84.7021 379.343 83.7234 379.52 83L380.14 80.7021C380.185 80.3617 380.406 79.5532 380.494 79.2553 380.627 78.7447 380.849 77.9362 380.849 77.8085 380.849 77.4255 380.539 77.2553 380.185 77.2553 380.096 77.2553 379.52 77.2553 379.343 77.9787L378.28 81.9787C378.059 83.0426 377.793 83.8936 377.749 84.1064 377.705 84.234 376.642 86.1489 374.871 86.1489 373.764 86.1489 373.232 85.4681 373.232 84.3191 373.232 83.6808 373.365 83.1277 373.542 82.5319L374.472 78.9574" fill-rule="evenodd"/><path d="M396.422 81.4217 402.325 81.4217C402.578 81.4217 403 81.4217 403 81 403 80.5783 402.578 80.5783 402.325 80.5783L396.422 80.5783 396.422 74.7169C396.422 74.4217 396.422 74 396 74 395.578 74 395.578 74.4217 395.578 74.7169L395.578 80.5783 389.717 80.5783C389.422 80.5783 389 80.5783 389 81 389 81.4217 389.422 81.4217 389.717 81.4217L395.578 81.4217 395.578 87.3253C395.578 87.6205 395.578 88 396 88 396.422 88 396.422 87.6205 396.422 87.3253L396.422 81.4217" fill-rule="evenodd"/><path d="M415.519 72 413 74.6494 413.338 75 415.519 73.013 417.662 75 418 74.6494 415.519 72" fill-rule="evenodd"/><path d="M413.617 77.2443C413.617 77.2036 413.617 77 413.362 77 412.851 77 411.319 77.1629 410.766 77.2036 410.596 77.2443 410.383 77.2443 410.383 77.6109 410.383 77.8552 410.553 77.8552 410.894 77.8552 411.915 77.8552 411.957 78.0181 411.957 78.2217 411.957 78.3439 411.702 79.3213 411.532 79.8507L410.255 84.819C410.17 85.1448 410 85.7149 410 85.7557 410 85.9593 410.213 86 410.34 86L410.638 86C412.128 85.7557 414.426 84.9412 416.638 83.0271 419.447 80.5023 420 77.733 420 77.5701 420 77.2036 419.745 77 419.404 77 419.234 77 418.723 77.0815 418.553 77.6923 417.191 82.2941 413.957 84.5747 411.574 85.3077L413.617 77.2443" fill-rule="evenodd"/><path d="M205.5 212 316.03 212 316.03 215 205.5 215ZM314.53 209 323.53 213.5 314.53 218Z" fill="#C35861"/><path d="M199 213C199 210.239 201.015 208 203.5 208 205.985 208 208 210.239 208 213 208 215.761 205.985 218 203.5 218 201.015 218 199 215.761 199 213Z" fill="#117877" fill-rule="evenodd"/><path d="M256 221 253.964 221 253.964 233.241C253.964 236.753 251.771 238.51 249.631 238.51 247.49 238.51 245.349 236.86 245.349 233.241L245.349 221 243 221 243 233.241C243 237.126 246.08 240 249.578 240 253.076 240 256 237.073 256 233.241L256 221" fill="#C35861" fill-rule="evenodd"/><path d="M269.516 236.23C268.8 236.565 268.544 237.348 268.544 237.683 268.544 238.354 269.005 238.689 269.567 238.689 270.284 238.689 271 238.075 271 237.012 271 235.727 269.874 235 268.698 235 267.777 235 267.009 235.503 266.549 236.062 265.781 235.168 264.553 235 263.888 235 261.279 235 260 237.292 260 238.075 260 238.41 260.307 238.41 260.563 238.41 260.921 238.41 261.023 238.41 261.126 238.13 261.637 236.342 263.121 235.894 263.786 235.894 264.912 235.894 264.912 236.621 264.912 236.901 264.912 237.124 264.912 237.236 264.758 237.963L264.093 240.758C263.837 241.82 263.786 242.099 263.479 242.491 263.223 242.714 262.916 243.106 262.353 243.106 262.302 243.106 261.842 243.106 261.484 242.77 262.251 242.435 262.456 241.652 262.456 241.317 262.456 240.646 261.995 240.255 261.433 240.255 260.767 240.255 260 240.925 260 241.988 260 243.273 261.126 244 262.302 244 263.377 244 264.093 243.385 264.451 242.938 265.219 243.888 266.498 244 267.163 244 269.67 244 271 241.708 271 240.925 271 240.59 270.693 240.59 270.437 240.59 270.079 240.59 269.977 240.59 269.874 240.87 269.363 242.658 267.879 243.106 267.265 243.106 266.088 243.106 266.088 242.379 266.088 242.099 266.088 241.876 266.088 241.764 266.242 241.037L266.907 238.242C267.163 237.18 267.214 236.901 267.521 236.509 267.674 236.342 268.033 235.894 268.647 235.894 268.749 235.894 269.158 235.95 269.516 236.23" fill="#C35861" fill-rule="evenodd"/><path d="M276.545 242.907C276.545 244.028 276.409 245.262 275.318 246.495 275.227 246.607 275.182 246.664 275.182 246.776 275.182 246.888 275.318 247 275.409 247 275.636 247 277 245.43 277 243.131 277 241.897 276.591 241 275.864 241 275.364 241 275 241.505 275 242.121 275 242.738 275.364 243.243 275.909 243.243 276.273 243.243 276.545 242.907 276.545 242.907" fill="#C35861" fill-rule="evenodd"/><path d="M280.106 246.921C280 247.262 280 247.319 280 247.376 280 247.773 280.37 248 280.635 248 281.322 248 281.481 247.319 281.534 246.978 281.587 246.921 281.957 245.332 282.38 243.345 282.962 243.799 283.702 243.969 284.337 243.969 285.923 243.969 286.981 242.55 287.034 242.493 287.351 243.856 288.62 243.969 288.938 243.969 289.572 243.969 290.048 243.515 290.365 242.891 290.788 242.096 291 240.961 291 240.904 291 240.677 290.788 240.677 290.736 240.677 290.471 240.677 290.471 240.734 290.313 241.245 290.101 242.21 289.731 243.402 288.99 243.402 288.514 243.402 288.356 242.948 288.356 242.437 288.356 242.096 288.514 241.358 288.62 240.847 288.779 240.336 288.938 239.485 289.043 239.087L289.466 237.271C289.572 236.817 289.784 235.908 289.784 235.852 289.784 235.454 289.466 235.17 289.149 235.17 288.99 235.17 288.62 235.284 288.409 235.681 288.356 235.795 288.197 236.419 288.144 236.817L287.721 238.463 287.139 240.961C287.034 241.472 287.034 241.472 286.875 241.755 286.293 242.607 285.5 243.402 284.442 243.402 282.909 243.402 282.909 241.983 282.909 241.642 282.909 241.131 282.962 240.847 283.226 239.769 283.438 238.917 283.438 238.747 283.649 238.009L283.913 236.873C283.966 236.476 284.178 235.738 284.178 235.624 284.178 235.284 283.913 235 283.543 235 282.856 235 282.697 235.681 282.644 235.908L280.106 246.921" fill="#C35861" fill-rule="evenodd"/><path d="M247 139 244.964 139 244.964 151.241C244.964 154.753 242.771 156.51 240.578 156.51 238.438 156.51 236.349 154.86 236.349 151.241L236.349 139 234 139 234 151.241C234 155.126 237.08 158 240.578 158 244.076 158 247 155.073 247 151.241L247 139" fill="#117877" fill-rule="evenodd"/><path d="M260.516 154.23C259.749 154.565 259.544 155.348 259.544 155.683 259.544 156.354 260.005 156.689 260.516 156.689 261.233 156.689 261.949 156.075 261.949 155.012 261.949 153.727 260.874 153 259.647 153 258.777 153 258.009 153.503 257.549 154.062 256.781 153.168 255.553 153 254.837 153 252.279 153 251 155.292 251 156.075 251 156.41 251.307 156.41 251.563 156.41 251.87 156.41 252.023 156.41 252.126 156.13 252.637 154.342 254.121 153.894 254.735 153.894 255.86 153.894 255.86 154.621 255.86 154.901 255.86 155.124 255.86 155.236 255.707 155.963L255.093 158.758C254.837 159.82 254.786 160.099 254.479 160.491 254.223 160.714 253.865 161.106 253.353 161.106 253.302 161.106 252.791 161.106 252.484 160.77 253.2 160.435 253.405 159.652 253.405 159.317 253.405 158.646 252.995 158.255 252.433 158.255 251.716 158.255 251 158.925 251 159.988 251 161.273 252.126 162 253.302 162 254.326 162 255.042 161.385 255.4 160.938 256.219 161.888 257.498 162 258.112 162 260.67 162 262 159.708 262 158.925 262 158.59 261.693 158.59 261.437 158.59 261.079 158.59 260.926 158.59 260.874 158.87 260.312 160.658 258.828 161.106 258.214 161.106 257.037 161.106 257.037 160.379 257.037 160.099 257.037 159.876 257.037 159.764 257.242 159.037L257.856 156.242C258.112 155.18 258.163 154.901 258.521 154.509 258.674 154.342 259.033 153.894 259.595 153.894 259.749 153.894 260.158 153.95 260.516 154.23" fill="#117877" fill-rule="evenodd"/><path d="M267.545 160.907C267.545 162.028 267.409 163.262 266.318 164.495 266.273 164.607 266.227 164.664 266.227 164.776 266.227 164.888 266.364 165 266.455 165 266.682 165 268 163.43 268 161.131 268 159.897 267.636 159 266.909 159 266.364 159 266 159.505 266 160.121 266 160.738 266.364 161.243 266.909 161.243 267.273 161.243 267.545 160.907 267.545 160.907" fill="#117877" fill-rule="evenodd"/><path d="M271.053 164.921C271 165.262 271 165.319 271 165.376 271 165.773 271.319 166 271.585 166 272.275 166 272.435 165.319 272.488 164.978 272.541 164.921 272.913 163.332 273.338 161.345 273.923 161.799 274.667 161.969 275.357 161.969 276.952 161.969 277.961 160.55 278.014 160.493 278.333 161.856 279.609 161.969 279.928 161.969 280.565 161.969 281.043 161.515 281.362 160.891 281.787 160.096 282 158.961 282 158.904 282 158.677 281.787 158.677 281.734 158.677 281.469 158.677 281.469 158.734 281.309 159.245 281.097 160.21 280.725 161.402 279.981 161.402 279.502 161.402 279.343 160.948 279.343 160.437 279.343 160.096 279.502 159.358 279.609 158.847 279.768 158.336 279.928 157.485 280.034 157.087L280.459 155.271C280.565 154.817 280.778 153.908 280.778 153.852 280.778 153.454 280.459 153.17 280.193 153.17 279.981 153.17 279.609 153.284 279.396 153.681 279.343 153.795 279.184 154.419 279.13 154.817L278.705 156.463 278.174 158.961C278.014 159.472 278.014 159.472 277.855 159.755 277.271 160.607 276.473 161.402 275.411 161.402 273.87 161.402 273.87 159.983 273.87 159.642 273.87 159.131 273.923 158.847 274.188 157.769 274.401 156.917 274.401 156.747 274.614 156.009L274.879 154.873C274.986 154.476 275.145 153.738 275.145 153.624 275.145 153.284 274.879 153 274.507 153 273.87 153 273.657 153.681 273.604 153.908L271.053 164.921" fill="#117877" fill-rule="evenodd"/><path d="M287.464 153.584C287.464 153.526 287.52 153.409 287.52 153.292 287.52 153.292 287.52 153 287.184 153 287.184 153 286.067 153.117 285.899 153.117 285.564 153.117 285.173 153.175 284.838 153.175 284.503 153.234 284.279 153.234 284.279 153.643 284.279 153.935 284.559 153.935 284.782 153.935 285.732 153.935 285.732 154.052 285.732 154.286 285.732 154.403 285.62 154.812 285.564 155.045L284.559 159.195C284.112 161.24 284 161.649 284 161.708 284 162 284.279 162 284.391 162L284.67 162C286.402 161.708 288.86 160.773 290.983 158.844 293.609 156.331 294 153.701 294 153.643 294 153.292 293.721 153 293.33 153 292.659 153 292.547 153.584 292.324 154.169 291.542 157.032 288.972 160.188 285.676 161.182L287.464 153.584" fill="#117877" fill-rule="evenodd"/></g></svg>