<svg width="389" height="370" xmlns="http://www.w3.org/2000/svg" xmlns:xlink="http://www.w3.org/1999/xlink" overflow="hidden"><defs><clipPath id="clip0"><path d="M364 127 753 127 753 497 364 497Z" fill-rule="evenodd" clip-rule="evenodd"/></clipPath><linearGradient x1="549" y1="163" x2="549" y2="329" gradientUnits="userSpaceOnUse" spreadMethod="reflect" id="fill1"><stop offset="0" stop-color="#FFFFFF"/><stop offset="0.0060241" stop-color="#FEFEFE"/><stop offset="0.0120482" stop-color="#FEFEFE"/><stop offset="0.0180723" stop-color="#FEFEFE"/><stop offset="0.0240964" stop-color="#FEFEFE"/><stop offset="0.0301205" stop-color="#FEFEFE"/><stop offset="0.0361446" stop-color="#FEFEFE"/><stop offset="0.0421687" stop-color="#FEFEFE"/><stop offset="0.0481928" stop-color="#FEFEFE"/><stop offset="0.0542169" stop-color="#FEFEFE"/><stop offset="0.060241" stop-color="#FEFEFE"/><stop offset="0.0662651" stop-color="#FEFDFE"/><stop offset="0.0722892" stop-color="#FEFDFD"/><stop offset="0.0783133" stop-color="#FEFDFD"/><stop offset="0.0843373" stop-color="#FEFDFD"/><stop offset="0.0903614" stop-color="#FEFDFD"/><stop offset="0.0963855" stop-color="#FEFCFD"/><stop offset="0.10241" stop-color="#FEFCFC"/><stop offset="0.108434" stop-color="#FEFCFC"/><stop offset="0.114458" stop-color="#FDFCFC"/><stop offset="0.120482" stop-color="#FDFBFC"/><stop offset="0.126506" stop-color="#FDFBFB"/><stop offset="0.13253" stop-color="#FDFBFB"/><stop offset="0.138554" stop-color="#FDFAFB"/><stop offset="0.144578" stop-color="#FDFAFA"/><stop offset="0.150602" stop-color="#FDFAFA"/><stop offset="0.156627" stop-color="#FDF9FA"/><stop offset="0.162651" stop-color="#FDF9F9"/><stop offset="0.168675" stop-color="#FCF9F9"/><stop offset="0.174699" stop-color="#FCF8F9"/><stop offset="0.180723" stop-color="#FCF8F8"/><stop offset="0.186747" stop-color="#FCF7F8"/><stop offset="0.192771" stop-color="#FCF7F7"/><stop offset="0.198795" stop-color="#FCF6F7"/><stop offset="0.204819" stop-color="#FBF6F6"/><stop offset="0.210843" stop-color="#FBF5F6"/><stop offset="0.216867" stop-color="#FBF5F6"/><stop offset="0.222892" stop-color="#FBF4F5"/><stop offset="0.228916" stop-color="#FBF4F5"/><stop offset="0.23494" stop-color="#FBF3F4"/><stop offset="0.240964" stop-color="#FAF3F4"/><stop offset="0.246988" stop-color="#FAF2F3"/><stop offset="0.253012" stop-color="#FAF2F2"/><stop offset="0.259036" stop-color="#FAF1F2"/><stop offset="0.26506" stop-color="#FAF1F1"/><stop offset="0.271084" stop-color="#F9F0F1"/><stop offset="0.277108" stop-color="#F9EFF0"/><stop offset="0.283133" stop-color="#F9EFF0"/><stop offset="0.289157" stop-color="#F9EEEF"/><stop offset="0.295181" stop-color="#F8EEEE"/><stop offset="0.301205" stop-color="#F8EDEE"/><stop offset="0.307229" stop-color="#F8ECED"/><stop offset="0.313253" stop-color="#F8ECED"/><stop offset="0.319277" stop-color="#F7EBEC"/><stop offset="0.325301" stop-color="#F7EAEB"/><stop offset="0.331325" stop-color="#F7E9EB"/><stop offset="0.337349" stop-color="#F7E9EA"/><stop offset="0.343374" stop-color="#F6E8E9"/><stop offset="0.349398" stop-color="#F6E7E9"/><stop offset="0.355422" stop-color="#F6E6E8"/><stop offset="0.361446" stop-color="#F6E6E7"/><stop offset="0.36747" stop-color="#F5E5E6"/><stop offset="0.373494" stop-color="#F5E4E6"/><stop offset="0.379518" stop-color="#F5E3E5"/><stop offset="0.385542" stop-color="#F4E3E4"/><stop offset="0.391566" stop-color="#F4E2E3"/><stop offset="0.39759" stop-color="#F4E1E2"/><stop offset="0.403614" stop-color="#F4E0E2"/><stop offset="0.409639" stop-color="#F3DFE1"/><stop offset="0.415663" stop-color="#F3DEE0"/><stop offset="0.421687" stop-color="#F3DDDF"/><stop offset="0.427711" stop-color="#F2DDDE"/><stop offset="0.433735" stop-color="#F2DCDE"/><stop offset="0.439759" stop-color="#F2DBDD"/><stop offset="0.445783" stop-color="#F1DADC"/><stop offset="0.451807" stop-color="#F1D9DB"/><stop offset="0.457831" stop-color="#F1D8DA"/><stop offset="0.463855" stop-color="#F0D7D9"/><stop offset="0.46988" stop-color="#F0D6D8"/><stop offset="0.475904" stop-color="#F0D5D7"/><stop offset="0.481928" stop-color="#EFD4D6"/><stop offset="0.487952" stop-color="#EFD3D5"/><stop offset="0.493976" stop-color="#EFD2D4"/><stop offset="0.5" stop-color="#EED1D3"/><stop offset="0.506024" stop-color="#EED0D2"/><stop offset="0.512048" stop-color="#EDCFD1"/><stop offset="0.518072" stop-color="#EDCED0"/><stop offset="0.524096" stop-color="#EDCDCF"/><stop offset="0.53012" stop-color="#ECCCCE"/><stop offset="0.536145" stop-color="#ECCBCD"/><stop offset="0.542169" stop-color="#EBCACC"/><stop offset="0.548193" stop-color="#EBC8CB"/><stop offset="0.554217" stop-color="#EBC7CA"/><stop offset="0.560241" stop-color="#EAC6C9"/><stop offset="0.566265" stop-color="#EAC5C8"/><stop offset="0.572289" stop-color="#E9C4C7"/><stop offset="0.578313" stop-color="#E9C3C6"/><stop offset="0.584337" stop-color="#E9C2C5"/><stop offset="0.590361" stop-color="#E8C0C4"/><stop offset="0.596386" stop-color="#E8BFC3"/><stop offset="0.60241" stop-color="#E7BEC1"/><stop offset="0.608434" stop-color="#E7BDC0"/><stop offset="0.614458" stop-color="#E6BBBF"/><stop offset="0.620482" stop-color="#E6BABE"/><stop offset="0.626506" stop-color="#E6B9BD"/><stop offset="0.63253" stop-color="#E5B8BC"/><stop offset="0.638554" stop-color="#E5B6BA"/><stop offset="0.644578" stop-color="#E4B5B9"/><stop offset="0.650602" stop-color="#E4B4B8"/><stop offset="0.656627" stop-color="#E3B3B7"/><stop offset="0.662651" stop-color="#E3B1B5"/><stop offset="0.668675" stop-color="#E2B0B4"/><stop offset="0.674699" stop-color="#E2AFB3"/><stop offset="0.680723" stop-color="#E1ADB2"/><stop offset="0.686747" stop-color="#E1ACB0"/><stop offset="0.692771" stop-color="#E0ABAF"/><stop offset="0.698795" stop-color="#E0A9AE"/><stop offset="0.704819" stop-color="#DFA8AD"/><stop offset="0.710843" stop-color="#DFA6AB"/><stop offset="0.716867" stop-color="#DEA5AA"/><stop offset="0.722892" stop-color="#DEA4A9"/><stop offset="0.728916" stop-color="#DDA2A7"/><stop offset="0.73494" stop-color="#DDA1A6"/><stop offset="0.740964" stop-color="#DC9FA4"/><stop offset="0.746988" stop-color="#DC9EA3"/><stop offset="0.753012" stop-color="#DB9CA2"/><stop offset="0.759036" stop-color="#DB9BA0"/><stop offset="0.76506" stop-color="#DA999F"/><stop offset="0.771084" stop-color="#DA989D"/><stop offset="0.777108" stop-color="#D9969C"/><stop offset="0.783133" stop-color="#D9959B"/><stop offset="0.789157" stop-color="#D89399"/><stop offset="0.795181" stop-color="#D79298"/><stop offset="0.801205" stop-color="#D79096"/><stop offset="0.807229" stop-color="#D68F95"/><stop offset="0.813253" stop-color="#D68D93"/><stop offset="0.819277" stop-color="#D58C92"/><stop offset="0.825301" stop-color="#D58A90"/><stop offset="0.831325" stop-color="#D4888F"/><stop offset="0.837349" stop-color="#D3878D"/><stop offset="0.843373" stop-color="#D3858C"/><stop offset="0.849398" stop-color="#D2848A"/><stop offset="0.855422" stop-color="#D28289"/><stop offset="0.861446" stop-color="#D18087"/><stop offset="0.86747" stop-color="#D17F85"/><stop offset="0.873494" stop-color="#D07D84"/><stop offset="0.879518" stop-color="#CF7B82"/><stop offset="0.885542" stop-color="#CF7A81"/><stop offset="0.891566" stop-color="#CE787F"/><stop offset="0.89759" stop-color="#CE767D"/><stop offset="0.903614" stop-color="#CD747C"/><stop offset="0.909639" stop-color="#CC737A"/><stop offset="0.915663" stop-color="#CC7179"/><stop offset="0.921687" stop-color="#CB6F77"/><stop offset="0.927711" stop-color="#CA6D75"/><stop offset="0.933735" stop-color="#CA6C74"/><stop offset="0.939759" stop-color="#C96A72"/><stop offset="0.945783" stop-color="#C86870"/><stop offset="0.951807" stop-color="#C8666E"/><stop offset="0.957831" stop-color="#C7646D"/><stop offset="0.963855" stop-color="#C7636B"/><stop offset="0.96988" stop-color="#C66169"/><stop offset="0.975904" stop-color="#C55F68"/><stop offset="0.981928" stop-color="#C55D66"/><stop offset="0.987952" stop-color="#C45B64"/><stop offset="0.993976" stop-color="#C35962"/><stop offset="1" stop-color="#C35861"/></linearGradient><linearGradient x1="715" y1="328.5" x2="549" y2="328.5" gradientUnits="userSpaceOnUse" spreadMethod="reflect" id="fill2"><stop offset="0" stop-color="#FFFFFF"/><stop offset="0.010989" stop-color="#FEFEFE"/><stop offset="0.021978" stop-color="#FEFEFE"/><stop offset="0.032967" stop-color="#FEFEFE"/><stop offset="0.043956" stop-color="#FEFEFE"/><stop offset="0.0549451" stop-color="#FEFEFE"/><stop offset="0.0659341" stop-color="#FEFEFE"/><stop offset="0.0769231" stop-color="#FEFEFE"/><stop offset="0.0879121" stop-color="#FEFEFE"/><stop offset="0.0989011" stop-color="#FDFEFD"/><stop offset="0.10989" stop-color="#FDFEFD"/><stop offset="0.120879" stop-color="#FDFDFD"/><stop offset="0.131868" stop-color="#FCFDFC"/><stop offset="0.142857" stop-color="#FCFDFC"/><stop offset="0.153846" stop-color="#FCFDFC"/><stop offset="0.164835" stop-color="#FBFCFB"/><stop offset="0.175824" stop-color="#FBFCFB"/><stop offset="0.186813" stop-color="#FBFCFB"/><stop offset="0.197802" stop-color="#FAFCFA"/><stop offset="0.208791" stop-color="#FAFBFA"/><stop offset="0.21978" stop-color="#F9FBF9"/><stop offset="0.230769" stop-color="#F9FBF9"/><stop offset="0.241758" stop-color="#F8FAF8"/><stop offset="0.252747" stop-color="#F8FAF8"/><stop offset="0.263736" stop-color="#F7F9F7"/><stop offset="0.274725" stop-color="#F6F9F6"/><stop offset="0.285714" stop-color="#F6F9F6"/><stop offset="0.296703" stop-color="#F5F8F5"/><stop offset="0.307692" stop-color="#F4F8F4"/><stop offset="0.318681" stop-color="#F4F7F4"/><stop offset="0.32967" stop-color="#F3F7F3"/><stop offset="0.340659" stop-color="#F2F6F2"/><stop offset="0.351648" stop-color="#F2F6F2"/><stop offset="0.362637" stop-color="#F1F5F1"/><stop offset="0.373626" stop-color="#F0F5F0"/><stop offset="0.384615" stop-color="#EFF4EF"/><stop offset="0.395604" stop-color="#EEF4EE"/><stop offset="0.406593" stop-color="#EDF3ED"/><stop offset="0.417582" stop-color="#EDF3ED"/><stop offset="0.428571" stop-color="#ECF2EC"/><stop offset="0.43956" stop-color="#EBF1EB"/><stop offset="0.450549" stop-color="#EAF1EA"/><stop offset="0.461538" stop-color="#E9F0E9"/><stop offset="0.472527" stop-color="#E8F0E8"/><stop offset="0.483516" stop-color="#E7EFE7"/><stop offset="0.494505" stop-color="#E6EEE6"/><stop offset="0.505495" stop-color="#E5EEE5"/><stop offset="0.516484" stop-color="#E4EDE4"/><stop offset="0.527473" stop-color="#E3ECE3"/><stop offset="0.538462" stop-color="#E2EBE2"/><stop offset="0.549451" stop-color="#E1EBE1"/><stop offset="0.56044" stop-color="#DFEADF"/><stop offset="0.571429" stop-color="#DEE9DE"/><stop offset="0.582418" stop-color="#DDE8DD"/><stop offset="0.593407" stop-color="#DCE8DC"/><stop offset="0.604396" stop-color="#DBE7DB"/><stop offset="0.615385" stop-color="#D9E6D9"/><stop offset="0.626374" stop-color="#D8E5D8"/><stop offset="0.637363" stop-color="#D7E4D7"/><stop offset="0.648352" stop-color="#D6E3D6"/><stop offset="0.659341" stop-color="#D4E3D4"/><stop offset="0.67033" stop-color="#D3E2D3"/><stop offset="0.681319" stop-color="#D2E1D2"/><stop offset="0.692308" stop-color="#D0E0D0"/><stop offset="0.703297" stop-color="#CFDFCF"/><stop offset="0.714286" stop-color="#CEDECE"/><stop offset="0.725275" stop-color="#CCDDCC"/><stop offset="0.736264" stop-color="#CBDCCB"/><stop offset="0.747253" stop-color="#C9DBC9"/><stop offset="0.758242" stop-color="#C8DAC8"/><stop offset="0.769231" stop-color="#C6D9C6"/><stop offset="0.78022" stop-color="#C5D8C5"/><stop offset="0.791209" stop-color="#C3D7C3"/><stop offset="0.802198" stop-color="#C2D6C2"/><stop offset="0.813187" stop-color="#C0D5C0"/><stop offset="0.824176" stop-color="#BED4BE"/><stop offset="0.835165" stop-color="#BDD3BD"/><stop offset="0.846154" stop-color="#BBD2BB"/><stop offset="0.857143" stop-color="#BAD1BA"/><stop offset="0.868132" stop-color="#B8D0B8"/><stop offset="0.879121" stop-color="#B6CFB6"/><stop offset="0.89011" stop-color="#B5CDB5"/><stop offset="0.901099" stop-color="#B3CCB3"/><stop offset="0.912088" stop-color="#B1CBB1"/><stop offset="0.923077" stop-color="#AFCAAF"/><stop offset="0.934066" stop-color="#AEC9AE"/><stop offset="0.945055" stop-color="#ACC8AC"/><stop offset="0.956044" stop-color="#AAC6AA"/><stop offset="0.967033" stop-color="#A8C5A8"/><stop offset="0.978022" stop-color="#A6C4A6"/><stop offset="0.989011" stop-color="#A4C3A4"/><stop offset="1" stop-color="#A3C2A3"/></linearGradient><linearGradient x1="383" y1="328.5" x2="549" y2="328.5" gradientUnits="userSpaceOnUse" spreadMethod="reflect" id="fill3"><stop offset="0" stop-color="#FFFFFF"/><stop offset="0.00421941" stop-color="#FEFEFE"/><stop offset="0.00843882" stop-color="#FEFEFE"/><stop offset="0.0126582" stop-color="#FEFEFE"/><stop offset="0.0168776" stop-color="#FEFEFE"/><stop offset="0.021097" stop-color="#FEFEFE"/><stop offset="0.0253165" stop-color="#FEFEFE"/><stop offset="0.0295359" stop-color="#FEFEFE"/><stop offset="0.0337553" stop-color="#FEFEFE"/><stop offset="0.0379747" stop-color="#FEFEFE"/><stop offset="0.0421941" stop-color="#FEFEFE"/><stop offset="0.0464135" stop-color="#FEFEFE"/><stop offset="0.0506329" stop-color="#FEFEFE"/><stop offset="0.0548523" stop-color="#FDFEFE"/><stop offset="0.0590717" stop-color="#FDFEFE"/><stop offset="0.0632911" stop-color="#FDFEFE"/><stop offset="0.0675105" stop-color="#FDFEFE"/><stop offset="0.07173" stop-color="#FDFEFE"/><stop offset="0.0759494" stop-color="#FDFDFD"/><stop offset="0.0801688" stop-color="#FCFDFD"/><stop offset="0.0843882" stop-color="#FCFDFD"/><stop offset="0.0886076" stop-color="#FCFDFD"/><stop offset="0.092827" stop-color="#FCFDFD"/><stop offset="0.0970464" stop-color="#FBFDFD"/><stop offset="0.101266" stop-color="#FBFDFD"/><stop offset="0.105485" stop-color="#FBFDFC"/><stop offset="0.109705" stop-color="#FBFCFC"/><stop offset="0.113924" stop-color="#FAFCFC"/><stop offset="0.118143" stop-color="#FAFCFC"/><stop offset="0.122363" stop-color="#FAFCFC"/><stop offset="0.126582" stop-color="#FAFCFC"/><stop offset="0.130802" stop-color="#F9FCFB"/><stop offset="0.135021" stop-color="#F9FBFB"/><stop offset="0.139241" stop-color="#F9FBFB"/><stop offset="0.14346" stop-color="#F8FBFB"/><stop offset="0.147679" stop-color="#F8FBFB"/><stop offset="0.151899" stop-color="#F8FBFB"/><stop offset="0.156118" stop-color="#F7FAFA"/><stop offset="0.160338" stop-color="#F7FAFA"/><stop offset="0.164557" stop-color="#F6FAFA"/><stop offset="0.168776" stop-color="#F6FAFA"/><stop offset="0.172996" stop-color="#F6F9F9"/><stop offset="0.177215" stop-color="#F5F9F9"/><stop offset="0.181435" stop-color="#F5F9F9"/><stop offset="0.185654" stop-color="#F4F9F9"/><stop offset="0.189873" stop-color="#F4F9F8"/><stop offset="0.194093" stop-color="#F3F8F8"/><stop offset="0.198312" stop-color="#F3F8F8"/><stop offset="0.202532" stop-color="#F3F8F8"/><stop offset="0.206751" stop-color="#F2F7F7"/><stop offset="0.21097" stop-color="#F2F7F7"/><stop offset="0.21519" stop-color="#F1F7F7"/><stop offset="0.219409" stop-color="#F1F7F7"/><stop offset="0.223629" stop-color="#F0F6F6"/><stop offset="0.227848" stop-color="#F0F6F6"/><stop offset="0.232068" stop-color="#EFF6F6"/><stop offset="0.236287" stop-color="#EFF5F5"/><stop offset="0.240506" stop-color="#EEF5F5"/><stop offset="0.244726" stop-color="#EEF5F5"/><stop offset="0.248945" stop-color="#EDF5F4"/><stop offset="0.253165" stop-color="#ECF4F4"/><stop offset="0.257384" stop-color="#ECF4F4"/><stop offset="0.261603" stop-color="#EBF4F3"/><stop offset="0.265823" stop-color="#EBF3F3"/><stop offset="0.270042" stop-color="#EAF3F3"/><stop offset="0.274262" stop-color="#E9F3F2"/><stop offset="0.278481" stop-color="#E9F2F2"/><stop offset="0.2827" stop-color="#E8F2F2"/><stop offset="0.28692" stop-color="#E8F2F1"/><stop offset="0.291139" stop-color="#E7F1F1"/><stop offset="0.295359" stop-color="#E6F1F1"/><stop offset="0.299578" stop-color="#E6F0F0"/><stop offset="0.303797" stop-color="#E5F0F0"/><stop offset="0.308017" stop-color="#E4F0F0"/><stop offset="0.312236" stop-color="#E4EFEF"/><stop offset="0.316456" stop-color="#E3EFEF"/><stop offset="0.320675" stop-color="#E2EEEE"/><stop offset="0.324895" stop-color="#E2EEEE"/><stop offset="0.329114" stop-color="#E1EEEE"/><stop offset="0.333333" stop-color="#E0EDED"/><stop offset="0.337553" stop-color="#DFEDED"/><stop offset="0.341772" stop-color="#DFECEC"/><stop offset="0.345992" stop-color="#DEECEC"/><stop offset="0.350211" stop-color="#DDECEB"/><stop offset="0.35443" stop-color="#DCEBEB"/><stop offset="0.35865" stop-color="#DCEBEB"/><stop offset="0.362869" stop-color="#DBEAEA"/><stop offset="0.367089" stop-color="#DAEAEA"/><stop offset="0.371308" stop-color="#D9E9E9"/><stop offset="0.375527" stop-color="#D9E9E9"/><stop offset="0.379747" stop-color="#D8E9E8"/><stop offset="0.383966" stop-color="#D7E8E8"/><stop offset="0.388186" stop-color="#D6E8E7"/><stop offset="0.392405" stop-color="#D5E7E7"/><stop offset="0.396624" stop-color="#D4E7E6"/><stop offset="0.400844" stop-color="#D4E6E6"/><stop offset="0.405063" stop-color="#D3E6E6"/><stop offset="0.409283" stop-color="#D2E5E5"/><stop offset="0.413502" stop-color="#D1E5E5"/><stop offset="0.417722" stop-color="#D0E4E4"/><stop offset="0.421941" stop-color="#CFE4E4"/><stop offset="0.42616" stop-color="#CEE3E3"/><stop offset="0.43038" stop-color="#CEE3E3"/><stop offset="0.434599" stop-color="#CDE2E2"/><stop offset="0.438819" stop-color="#CCE2E1"/><stop offset="0.443038" stop-color="#CBE1E1"/><stop offset="0.447257" stop-color="#CAE1E0"/><stop offset="0.451477" stop-color="#C9E0E0"/><stop offset="0.455696" stop-color="#C8E0DF"/><stop offset="0.459916" stop-color="#C7DFDF"/><stop offset="0.464135" stop-color="#C6DEDE"/><stop offset="0.468354" stop-color="#C5DEDE"/><stop offset="0.472574" stop-color="#C4DDDD"/><stop offset="0.476793" stop-color="#C3DDDD"/><stop offset="0.481013" stop-color="#C2DCDC"/><stop offset="0.485232" stop-color="#C1DCDB"/><stop offset="0.489451" stop-color="#C0DBDB"/><stop offset="0.493671" stop-color="#BFDBDA"/><stop offset="0.49789" stop-color="#BEDADA"/><stop offset="0.50211" stop-color="#BDD9D9"/><stop offset="0.506329" stop-color="#BCD9D9"/><stop offset="0.510549" stop-color="#BBD8D8"/><stop offset="0.514768" stop-color="#BAD8D7"/><stop offset="0.518987" stop-color="#B9D7D7"/><stop offset="0.523207" stop-color="#B8D6D6"/><stop offset="0.527426" stop-color="#B7D6D6"/><stop offset="0.531646" stop-color="#B6D5D5"/><stop offset="0.535865" stop-color="#B5D5D4"/><stop offset="0.540084" stop-color="#B4D4D4"/><stop offset="0.544304" stop-color="#B2D3D3"/><stop offset="0.548523" stop-color="#B1D3D2"/><stop offset="0.552743" stop-color="#B0D2D2"/><stop offset="0.556962" stop-color="#AFD1D1"/><stop offset="0.561181" stop-color="#AED1D0"/><stop offset="0.565401" stop-color="#ADD0D0"/><stop offset="0.56962" stop-color="#ACD0CF"/><stop offset="0.57384" stop-color="#AACFCE"/><stop offset="0.578059" stop-color="#A9CECE"/><stop offset="0.582278" stop-color="#A8CECD"/><stop offset="0.586498" stop-color="#A7CDCC"/><stop offset="0.590717" stop-color="#A6CCCC"/><stop offset="0.594937" stop-color="#A5CCCB"/><stop offset="0.599156" stop-color="#A3CBCA"/><stop offset="0.603376" stop-color="#A2CACA"/><stop offset="0.607595" stop-color="#A1C9C9"/><stop offset="0.611814" stop-color="#A0C9C8"/><stop offset="0.616034" stop-color="#9FC8C8"/><stop offset="0.620253" stop-color="#9DC7C7"/><stop offset="0.624473" stop-color="#9CC7C6"/><stop offset="0.628692" stop-color="#9BC6C6"/><stop offset="0.632911" stop-color="#9AC5C5"/><stop offset="0.637131" stop-color="#98C5C4"/><stop offset="0.64135" stop-color="#97C4C3"/><stop offset="0.64557" stop-color="#96C3C3"/><stop offset="0.649789" stop-color="#94C2C2"/><stop offset="0.654008" stop-color="#93C2C1"/><stop offset="0.658228" stop-color="#92C1C0"/><stop offset="0.662447" stop-color="#91C0C0"/><stop offset="0.666667" stop-color="#8FBFBF"/><stop offset="0.670886" stop-color="#8EBFBE"/><stop offset="0.675106" stop-color="#8DBEBD"/><stop offset="0.679325" stop-color="#8BBDBD"/><stop offset="0.683544" stop-color="#8ABCBC"/><stop offset="0.687764" stop-color="#89BCBB"/><stop offset="0.691983" stop-color="#87BBBA"/><stop offset="0.696203" stop-color="#86BABA"/><stop offset="0.700422" stop-color="#84B9B9"/><stop offset="0.704641" stop-color="#83B8B8"/><stop offset="0.708861" stop-color="#82B8B7"/><stop offset="0.71308" stop-color="#80B7B6"/><stop offset="0.7173" stop-color="#7FB6B6"/><stop offset="0.721519" stop-color="#7DB5B5"/><stop offset="0.725738" stop-color="#7CB4B4"/><stop offset="0.729958" stop-color="#7BB4B3"/><stop offset="0.734177" stop-color="#79B3B2"/><stop offset="0.738397" stop-color="#78B2B1"/><stop offset="0.742616" stop-color="#76B1B1"/><stop offset="0.746835" stop-color="#75B0B0"/><stop offset="0.751055" stop-color="#73B0AF"/><stop offset="0.755274" stop-color="#72AFAE"/><stop offset="0.759494" stop-color="#70AEAD"/><stop offset="0.763713" stop-color="#6FADAC"/><stop offset="0.767932" stop-color="#6DACAC"/><stop offset="0.772152" stop-color="#6CABAB"/><stop offset="0.776371" stop-color="#6AABAA"/><stop offset="0.780591" stop-color="#69AAA9"/><stop offset="0.78481" stop-color="#67A9A8"/><stop offset="0.78903" stop-color="#66A8A7"/><stop offset="0.793249" stop-color="#64A7A6"/><stop offset="0.797468" stop-color="#63A6A6"/><stop offset="0.801688" stop-color="#61A5A5"/><stop offset="0.805907" stop-color="#60A4A4"/><stop offset="0.810127" stop-color="#5EA4A3"/><stop offset="0.814346" stop-color="#5DA3A2"/><stop offset="0.818565" stop-color="#5BA2A1"/><stop offset="0.822785" stop-color="#59A1A0"/><stop offset="0.827004" stop-color="#58A09F"/><stop offset="0.831224" stop-color="#569F9E"/><stop offset="0.835443" stop-color="#559E9D"/><stop offset="0.839662" stop-color="#539D9C"/><stop offset="0.843882" stop-color="#519C9C"/><stop offset="0.848101" stop-color="#509B9B"/><stop offset="0.852321" stop-color="#4E9A9A"/><stop offset="0.85654" stop-color="#4C9A99"/><stop offset="0.860759" stop-color="#4B9998"/><stop offset="0.864979" stop-color="#499897"/><stop offset="0.869198" stop-color="#489796"/><stop offset="0.873418" stop-color="#469695"/><stop offset="0.877637" stop-color="#449594"/><stop offset="0.881857" stop-color="#429493"/><stop offset="0.886076" stop-color="#419392"/><stop offset="0.890295" stop-color="#3F9291"/><stop offset="0.894515" stop-color="#3D9190"/><stop offset="0.898734" stop-color="#3C908F"/><stop offset="0.902954" stop-color="#3A8F8E"/><stop offset="0.907173" stop-color="#388E8D"/><stop offset="0.911392" stop-color="#378D8C"/><stop offset="0.915612" stop-color="#358C8B"/><stop offset="0.919831" stop-color="#338B8A"/><stop offset="0.924051" stop-color="#318A89"/><stop offset="0.92827" stop-color="#308988"/><stop offset="0.932489" stop-color="#2E8887"/><stop offset="0.936709" stop-color="#2C8786"/><stop offset="0.940928" stop-color="#2A8685"/><stop offset="0.945148" stop-color="#288584"/><stop offset="0.949367" stop-color="#278483"/><stop offset="0.953587" stop-color="#258382"/><stop offset="0.957806" stop-color="#238281"/><stop offset="0.962025" stop-color="#218180"/><stop offset="0.966245" stop-color="#1F807F"/><stop offset="0.970464" stop-color="#1E7F7E"/><stop offset="0.974684" stop-color="#1C7E7D"/><stop offset="0.978903" stop-color="#1A7D7C"/><stop offset="0.983122" stop-color="#187C7B"/><stop offset="0.987342" stop-color="#167B7A"/><stop offset="0.991561" stop-color="#147A79"/><stop offset="0.995781" stop-color="#127978"/><stop offset="1" stop-color="#117877"/></linearGradient></defs><g clip-path="url(#clip0)" transform="translate(-364 -127)"><path d="M421.5 201.033C465.389 244.901 509.234 292.589 552.567 292.5 595.901 292.411 663.255 218.485 681.5 200.5" stroke="#C35861" stroke-width="1.33333" stroke-miterlimit="8" fill="none" fill-rule="evenodd"/><path d="M0 0 30.6383 164.373" stroke="#C35861" stroke-width="1.33333" stroke-miterlimit="8" fill="none" fill-rule="evenodd" transform="matrix(1 0 0 -1 551.5 329.873)"/><path d="M715 163 549 329 383 163Z" fill="url(#fill1)" fill-rule="evenodd"/><path d="M715 495 549 328.5 715 162Z" fill="url(#fill2)" fill-rule="evenodd"/><path d="M383 162 549 328.5 383 495Z" fill="url(#fill3)" fill-rule="evenodd"/><path d="M378.078 138.413C377.06 138.696 376.551 139.657 376.551 140.391 376.551 141.013 377.004 141.691 377.965 141.691 378.926 141.691 380 140.843 380 139.487 380 137.961 378.474 137 376.777 137 375.138 137 374.12 138.187 373.724 138.696 373.046 137.509 371.463 137 369.823 137 366.318 137 364.396 140.448 364.396 141.409 364.396 141.804 364.792 141.804 365.074 141.804 365.413 141.804 365.583 141.804 365.696 141.409 366.544 138.865 368.579 138.017 369.71 138.017 370.784 138.017 371.293 138.526 371.293 139.43 371.293 139.939 370.898 141.522 370.615 142.539L369.654 146.383C369.258 148.135 368.24 148.983 367.279 148.983 367.166 148.983 366.488 148.983 365.922 148.53 366.94 148.248 367.449 147.287 367.449 146.609 367.449 145.987 366.996 145.309 366.035 145.309 365.074 145.309 364 146.1 364 147.513 364 148.983 365.526 150 367.223 150 368.862 150 369.88 148.757 370.219 148.248 370.954 149.435 372.537 150 374.12 150 377.682 150 379.604 146.496 379.604 145.591 379.604 145.196 379.208 145.196 378.926 145.196 378.587 145.196 378.417 145.196 378.304 145.535 377.456 148.135 375.421 148.983 374.29 148.983 373.216 148.983 372.707 148.474 372.707 147.57 372.707 146.948 373.046 145.478 373.329 144.404 373.498 143.67 374.177 141.013 374.29 140.561 374.742 138.865 375.703 138.017 376.721 138.017 376.834 138.017 377.512 138.017 378.078 138.413" fill-rule="evenodd"/><path d="M397.066 136C397.286 136 398 136 398 135 398 134 397.286 134 397.066 134L383.989 134C383.714 134 383 134 383 135 383 136 383.714 136 383.989 136L397.066 136" fill-rule="evenodd"/><path d="M731.198 138.413C730.244 138.696 729.767 139.657 729.767 140.391 729.767 141.013 730.191 141.691 731.092 141.691 731.993 141.691 733 140.843 733 139.487 733 137.961 731.569 137 729.979 137 728.442 137 727.488 138.187 727.117 138.696 726.481 137.509 724.996 137 723.512 137 720.173 137 718.371 140.448 718.371 141.409 718.371 141.804 718.742 141.804 719.007 141.804 719.325 141.804 719.484 141.804 719.59 141.409 720.385 138.865 722.293 138.017 723.353 138.017 724.36 138.017 724.837 138.526 724.837 139.43 724.837 139.939 724.466 141.522 724.254 142.539L723.353 146.383C722.929 148.135 721.975 148.983 721.074 148.983 720.968 148.983 720.332 148.983 719.802 148.53 720.756 148.248 721.233 147.287 721.233 146.609 721.233 145.987 720.809 145.309 719.908 145.309 719.007 145.309 718 146.1 718 147.513 718 148.983 719.431 150 721.021 150 722.558 150 723.512 148.757 723.883 148.248 724.519 149.435 726.004 150 727.488 150 730.827 150 732.629 146.496 732.629 145.591 732.629 145.196 732.258 145.196 731.993 145.196 731.675 145.196 731.516 145.196 731.41 145.535 730.615 148.135 728.707 148.983 727.647 148.983 726.64 148.983 726.163 148.474 726.163 147.57 726.163 146.948 726.481 145.478 726.746 144.404 726.905 143.67 727.541 141.013 727.647 140.561 728.071 138.865 728.972 138.017 729.926 138.017 730.032 138.017 730.668 138.017 731.198 138.413" fill-rule="evenodd"/><path d="M744.673 135.673 751.138 135.673C751.3 135.673 752 135.673 752 134.973 752 134.273 751.354 134.273 751.138 134.273L744.673 134.273 744.673 127.862C744.673 127.7 744.673 127 744.027 127 743.327 127 743.327 127.646 743.327 127.862L743.327 134.273 736.916 134.273C736.7 134.273 736 134.273 736 134.973 736 135.673 736.7 135.673 736.916 135.673L743.327 135.673 743.327 142.084C743.327 142.3 743.327 143 744.027 143 744.673 143 744.673 142.3 744.673 142.084L744.673 135.673" fill-rule="evenodd"/><path d="M714.385 495.507 385.018 167.414 386.43 165.997 715.796 494.09ZM383.845 170.48 381 162 389.491 164.812Z"/><path d="M0.705736-0.708475 330.074 327.386 328.662 328.803-0.705736 0.708475ZM331.246 324.319 334.09 332.799 325.6 329.987Z" transform="matrix(1 0 0 -1 384 492.799)"/><path d="M514.737 445.922C513.684 447.726 512.684 448.098 511.526 448.151 511.211 448.204 511 448.204 511 448.682 511 448.841 511.105 449 511.316 449 512.053 449 512.842 448.894 513.579 448.894 514.421 448.894 515.368 449 516.211 449 516.368 449 516.684 449 516.684 448.469 516.684 448.204 516.474 448.151 516.263 448.151 515.684 448.098 515.053 447.885 515.053 447.249 515.053 446.93 515.211 446.612 515.421 446.24L517.421 442.897 524 442.897C524.053 443.427 524.421 447.036 524.421 447.302 524.421 448.098 523.053 448.151 522.526 448.151 522.158 448.151 521.895 448.151 521.895 448.682 521.895 449 522.211 449 522.263 449 523.368 449 524.474 448.894 525.526 448.894 526.211 448.894 527.842 449 528.526 449 528.684 449 529 449 529 448.469 529 448.151 528.737 448.151 528.368 448.151 526.737 448.151 526.737 447.992 526.684 447.196L525.105 430.637C525.053 430.106 525.053 430 524.579 430 524.158 430 524.053 430.212 523.895 430.478L514.737 445.922ZM517.895 442.047 523.105 433.29 523.947 442.047 517.895 442.047Z" fill-rule="evenodd"/><path d="M531.096 439.004C531 439.319 531 439.371 531 439.424 531 439.79 531.337 440 531.577 440 532.202 440 532.346 439.371 532.394 439.057 532.442 439.004 532.779 437.537 533.163 435.755 533.692 436.122 534.365 436.279 534.942 436.279 536.385 436.279 537.346 434.969 537.394 434.969 537.683 436.227 538.837 436.279 539.125 436.279 539.702 436.279 540.135 435.86 540.423 435.284 540.808 434.603 541 433.555 541 433.45 541 433.24 540.808 433.24 540.76 433.24 540.519 433.24 540.471 433.293 540.375 433.817 540.183 434.655 539.846 435.755 539.173 435.755 538.692 435.755 538.596 435.336 538.596 434.865 538.596 434.55 538.74 433.869 538.837 433.397 538.981 432.926 539.125 432.192 539.221 431.773L539.606 430.148C539.702 429.677 539.894 428.891 539.894 428.786 539.894 428.419 539.606 428.21 539.317 428.21 539.173 428.21 538.837 428.314 538.644 428.629 538.596 428.734 538.452 429.31 538.404 429.677L538.019 431.197 537.49 433.502C537.394 433.974 537.394 433.974 537.25 434.236 536.721 435.022 536 435.755 535.038 435.755 533.644 435.755 533.644 434.445 533.644 434.131 533.644 433.659 533.692 433.397 533.933 432.402 534.125 431.616 534.125 431.511 534.317 430.777L534.558 429.729C534.606 429.362 534.798 428.681 534.798 428.576 534.798 428.262 534.558 428 534.221 428 533.596 428 533.452 428.681 533.404 428.891L531.096 439.004" fill-rule="evenodd"/><path d="M538 449.58C538 448.671 538 446.477 537.174 444.926 536.245 443.267 534.852 443 533.974 443 533.2 443 531.755 443.267 530.877 444.872 530 446.37 530 448.403 530 449.58 530 450.918 530.052 452.63 530.826 454.074 531.6 455.572 532.942 456 533.974 456 535.781 456 536.761 454.93 537.329 453.753 537.948 452.416 538 450.704 538 449.58ZM533.974 454.77C533.252 454.77 532.374 454.342 531.91 453.004 531.548 451.827 531.548 450.704 531.548 449.313 531.548 447.601 531.548 444.23 533.974 444.23 536.452 444.23 536.452 447.601 536.452 449.313 536.452 450.543 536.452 451.934 535.987 453.165 535.523 454.502 534.594 454.77 533.974 454.77" fill-rule="evenodd"/><path d="M569.13 440.034C569.488 440.034 570 440.034 570 439.517 570 439 569.488 439 569.13 439L553.819 439C553.461 439 553 439 553 439.517 553 440.034 553.461 440.034 553.87 440.034L569.13 440.034ZM569.13 445C569.488 445 570 445 570 444.483 570 443.966 569.488 443.966 569.13 443.966L553.87 443.966C553.461 443.966 553 443.966 553 444.483 553 445 553.461 445 553.819 445L569.13 445" fill-rule="evenodd"/><path d="M592 440.052C592 437.959 591.829 435.866 590.863 433.93 589.555 431.419 587.223 431 586.028 431 584.322 431 582.218 431.68 581.081 434.14 580.171 435.919 580 437.959 580 440.052 580 442.041 580.114 444.343 581.308 446.331 582.502 448.477 584.607 449 585.972 449 587.507 449 589.668 448.424 590.919 445.965 591.829 444.134 592 442.145 592 440.052ZM585.972 448.424C584.891 448.424 583.185 447.744 582.673 445.233 582.389 443.663 582.389 441.308 582.389 439.738 582.389 438.064 582.389 436.337 582.616 434.924 583.128 431.837 585.289 431.576 585.972 431.576 586.938 431.576 588.815 432.047 589.327 434.663 589.611 436.128 589.611 438.116 589.611 439.738 589.611 441.727 589.611 443.453 589.327 445.128 588.872 447.64 587.28 448.424 585.972 448.424" fill-rule="evenodd"/><path d="M506.737 222.922C505.684 224.726 504.684 225.098 503.526 225.151 503.211 225.204 503 225.204 503 225.682 503 225.841 503.105 226 503.316 226 504.053 226 504.842 225.894 505.579 225.894 506.421 225.894 507.368 226 508.211 226 508.368 226 508.684 226 508.684 225.469 508.684 225.204 508.474 225.151 508.263 225.151 507.684 225.098 507.053 224.885 507.053 224.249 507.053 223.93 507.211 223.612 507.421 223.24L509.421 219.897 516 219.897C516.053 220.427 516.421 224.036 516.421 224.302 516.421 225.098 515.053 225.151 514.526 225.151 514.158 225.151 513.895 225.151 513.895 225.682 513.895 226 514.211 226 514.263 226 515.316 226 516.474 225.894 517.526 225.894 518.211 225.894 519.842 226 520.526 226 520.684 226 521 226 521 225.469 521 225.151 520.737 225.151 520.368 225.151 518.737 225.151 518.737 224.992 518.684 224.196L517.053 207.637C517 207.106 517 207 516.579 207 516.158 207 516.053 207.212 515.895 207.478L506.737 222.922ZM509.895 219.047 515.053 210.29 515.895 219.047 509.895 219.047Z" fill-rule="evenodd"/><path d="M523.106 216.004C523 216.319 523 216.371 523 216.424 523 216.79 523.317 217 523.635 217 524.322 217 524.428 216.371 524.534 216.057 524.534 216.004 524.904 214.537 525.38 212.755 525.962 213.122 526.702 213.279 527.337 213.279 528.923 213.279 529.981 211.969 529.981 211.969 530.351 213.227 531.62 213.279 531.885 213.279 532.572 213.279 533.048 212.86 533.365 212.284 533.788 211.603 534 210.555 534 210.45 534 210.24 533.788 210.24 533.683 210.24 533.471 210.24 533.418 210.293 533.313 210.817 533.101 211.655 532.731 212.755 531.938 212.755 531.462 212.755 531.356 212.336 531.356 211.865 531.356 211.55 531.514 210.869 531.62 210.397 531.779 209.926 531.938 209.192 532.043 208.773L532.466 207.148C532.572 206.677 532.784 205.891 532.784 205.786 532.784 205.419 532.466 205.21 532.149 205.21 531.938 205.21 531.62 205.314 531.409 205.629 531.356 205.734 531.197 206.31 531.091 206.677L530.721 208.197 530.139 210.502C530.034 210.974 530.034 210.974 529.875 211.236 529.293 212.022 528.447 212.755 527.442 212.755 525.909 212.755 525.909 211.445 525.909 211.131 525.909 210.659 525.962 210.397 526.226 209.402 526.385 208.616 526.438 208.511 526.649 207.777L526.861 206.729C526.966 206.362 527.178 205.681 527.178 205.576 527.178 205.262 526.913 205 526.543 205 525.856 205 525.697 205.681 525.644 205.891L523.106 216.004" fill-rule="evenodd"/><path d="M524.039 223.815C524.766 222.432 526.065 222.037 526.948 222.037 527.987 222.037 528.818 222.63 528.818 223.617 528.818 224.556 528.143 225.642 526.792 225.889 526.688 225.889 526.636 225.889 525.442 225.988L525.442 227.123 526.844 227.123C528.558 227.123 529.182 228.407 529.182 229.494 529.182 230.827 528.299 231.864 526.896 231.864 525.597 231.864 524.143 231.272 523.26 230.185L523 231.321C524.039 232.407 525.545 233 526.948 233 529.286 233 531 231.321 531 229.494 531 228.111 529.805 226.975 528.403 226.58 529.753 225.889 530.481 224.753 530.481 223.617 530.481 222.136 528.87 221 526.948 221 525.338 221 524.039 221.79 523.26 222.827L524.039 223.815" fill-rule="evenodd"/><path d="M545 231.739C545 231.635 545 231.583 544.586 231.166 541.328 227.884 540.5 222.934 540.5 218.974 540.5 214.441 541.483 209.908 544.69 206.677 545 206.365 545 206.313 545 206.208 545 206.052 544.897 206 544.741 206 544.483 206 542.155 207.719 540.655 211.054 539.31 213.92 539 216.786 539 218.974 539 221.006 539.31 224.132 540.707 227.102 542.259 230.281 544.483 232 544.741 232 544.897 232 545 231.896 545 231.739" fill-rule="evenodd"/><path d="M554.145 215.575 558.657 215.575C559.033 215.575 560 215.575 560 214.652 560 214 559.409 214 558.926 214L551.405 214C550.868 214 549.847 214 548.665 215.249 547.752 216.226 547 217.529 547 217.692 547 217.747 547 217.964 547.322 217.964 547.537 217.964 547.591 217.855 547.752 217.638 549.095 215.575 550.599 215.575 551.136 215.575L553.393 215.575 550.76 224.262C550.653 224.588 550.492 225.131 550.492 225.24 550.492 225.566 550.653 226 551.244 226 552.157 226 552.264 225.24 552.372 224.805L554.145 215.575" fill-rule="evenodd"/><path d="M565 225.792C565 224.02 564.339 223 563.373 223 562.508 223 562 223.644 562 224.396 562 225.148 562.508 225.846 563.373 225.846 563.678 225.846 563.983 225.738 564.237 225.47 564.339 225.416 564.339 225.416 564.39 225.416 564.39 225.416 564.441 225.416 564.441 225.792 564.441 227.779 563.525 229.389 562.712 230.302 562.407 230.57 562.407 230.624 562.407 230.732 562.407 230.893 562.559 231 562.661 231 562.966 231 565 228.96 565 225.792" fill-rule="evenodd"/><path d="M585.611 210.03C585.231 210.333 584.308 211.04 584.308 211.495 584.308 211.747 584.579 212 584.851 212 585.122 212 585.231 211.848 585.394 211.697 585.719 211.293 586.317 210.586 587.511 210.03 587.729 209.929 588 209.828 588 209.525 588 209.273 587.783 209.121 587.62 209.02 587.023 208.616 586.697 208.162 586.48 207.556 586.425 207.354 586.317 207 585.937 207 585.557 207 585.394 207.354 585.394 207.556 585.394 207.657 585.611 208.465 586.045 209.02L576.923 209.02C576.489 209.02 576 209.02 576 209.525 576 210.03 576.489 210.03 576.923 210.03L585.611 210.03" fill-rule="evenodd"/><path d="M580.581 217.717C580.75 217.027 581.427 214.584 583.403 214.584 583.516 214.584 584.194 214.584 584.758 214.956 584.024 215.062 583.46 215.752 583.46 216.389 583.46 216.814 583.742 217.292 584.532 217.292 585.097 217.292 586 216.814 586 215.752 586 214.372 584.363 214 583.403 214 581.766 214 580.806 215.434 580.468 216.018 579.734 214.265 578.21 214 577.419 214 574.484 214 572.903 217.451 572.903 218.089 572.903 218.354 573.185 218.354 573.242 218.354 573.411 218.354 573.524 218.301 573.581 218.089 574.54 215.274 576.403 214.584 577.363 214.584 577.871 214.584 578.887 214.85 578.887 216.389 578.887 217.186 578.379 218.991 577.363 222.655 576.911 224.301 575.895 225.416 574.653 225.416 574.484 225.416 573.863 225.416 573.298 225.097 573.976 224.938 574.597 224.407 574.597 223.664 574.597 222.92 573.976 222.708 573.524 222.708 572.734 222.708 572 223.398 572 224.248 572 225.469 573.411 226 574.653 226 576.516 226 577.532 224.142 577.589 223.982 577.927 224.991 578.944 226 580.637 226 583.573 226 585.153 222.602 585.153 221.911 585.153 221.646 584.871 221.646 584.815 221.646 584.589 221.646 584.532 221.752 584.476 221.965 583.516 224.779 581.597 225.416 580.694 225.416 579.621 225.416 579.169 224.566 579.169 223.664 579.169 223.08 579.339 222.496 579.621 221.327L580.581 217.717" fill-rule="evenodd"/><path d="M595.488 217.749C595.488 217.481 595.488 217 595 217 594.566 217 594.566 217.428 594.566 217.749L594.566 229.037 588.76 229.037C588.488 229.037 588 229.037 588 229.519 588 230 588.434 230 588.76 230L601.24 230C601.566 230 602 230 602 229.519 602 229.037 601.566 229.037 601.24 229.037L595.488 229.037 595.488 217.749" fill-rule="evenodd"/><path d="M612 218.974C612 216.942 611.69 213.816 610.293 210.846 608.741 207.667 606.517 206 606.259 206 606.103 206 606 206.104 606 206.208 606 206.313 606 206.365 606.517 206.834 609.052 209.387 610.5 213.555 610.5 218.974 610.5 223.403 609.569 227.988 606.362 231.271 606 231.583 606 231.635 606 231.739 606 231.896 606.103 232 606.259 232 606.517 232 608.845 230.228 610.345 226.894 611.69 224.028 612 221.162 612 218.974" fill-rule="evenodd"/><path d="M415.679 327.469C415.679 323.327 413.161 322 411.232 322 407.536 322 404 325.77 404 329.54 404 331.982 405.607 334 408.339 334 410.054 334 411.929 333.416 413.964 331.77 414.339 333.204 415.196 334 416.429 334 417.821 334 418.679 332.566 418.679 332.142 418.679 331.929 418.518 331.876 418.357 331.876 418.143 331.876 418.089 331.929 417.982 332.142 417.5 333.416 416.536 333.416 416.482 333.416 415.679 333.416 415.679 331.345 415.679 330.708 415.679 330.177 415.679 330.124 415.946 329.805 418.464 326.673 419 323.593 419 323.593 419 323.54 419 323.327 418.679 323.327 418.411 323.327 418.411 323.381 418.304 323.858 417.821 325.504 416.911 327.522 415.679 329.115L415.679 327.469ZM413.857 331.08C411.5 333.15 409.464 333.416 408.393 333.416 406.786 333.416 405.982 332.248 405.982 330.549 405.982 329.221 406.679 326.354 407.536 325.027 408.821 323.115 410.268 322.584 411.179 322.584 413.804 322.584 413.804 326.035 413.804 328.106 413.804 329.115 413.804 330.655 413.857 331.08" fill-rule="evenodd"/><path d="M426.486 312.722C426.486 312.389 426.257 312 425.686 312 425.171 312 424.6 312.5 424.6 313.056 424.6 313.389 424.829 313.778 425.4 313.778 425.971 313.778 426.486 313.222 426.486 312.722ZM422.429 322.556C422.371 322.778 422.257 323.056 422.257 323.389 422.257 324.278 423.057 325 424.143 325 426.143 325 427 322.333 427 322.056 427 321.778 426.771 321.778 426.714 321.778 426.429 321.778 426.429 321.889 426.314 322.111 425.857 323.667 425 324.444 424.2 324.444 423.8 324.444 423.743 324.222 423.743 323.778 423.743 323.333 423.857 323 424.029 322.556 424.257 322.056 424.429 321.5 424.657 321 424.829 320.556 425.571 318.778 425.629 318.556 425.686 318.333 425.8 318.111 425.8 317.944 425.8 317 425 316.278 423.857 316.278 421.914 316.278 421 318.889 421 319.222 421 319.5 421.286 319.5 421.343 319.5 421.629 319.5 421.629 319.389 421.686 319.167 422.2 317.5 423.057 316.833 423.8 316.833 424.143 316.833 424.314 317 424.314 317.5 424.314 317.944 424.2 318.222 423.686 319.444L422.429 322.556" fill-rule="evenodd"/><path d="M426.444 328 426 328C424.722 329.157 423.167 329.212 422 329.267L422 330.479C422.722 330.479 423.722 330.424 424.667 330.038L424.667 339.788 422.111 339.788 422.111 341 429 341 429 339.788 426.444 339.788 426.444 328" fill-rule="evenodd"/><path d="M440 340.729C440 340.675 440 340.62 439.534 340.133 436.328 336.717 435.5 331.62 435.5 327.5 435.5 322.783 436.483 318.066 439.638 314.705 440 314.38 440 314.325 440 314.271 440 314.054 439.897 314 439.741 314 439.483 314 437.155 315.789 435.603 319.259 434.31 322.241 434 325.223 434 327.5 434 329.614 434.31 332.867 435.707 335.904 437.259 339.265 439.483 341 439.741 341 439.897 341 440 340.946 440 340.729" fill-rule="evenodd"/><path d="M455.85 318.03C455.5 318.333 454.65 319.04 454.65 319.495 454.65 319.747 454.9 320 455.15 320 455.4 320 455.5 319.848 455.65 319.697 455.95 319.293 456.5 318.586 457.6 318.03 457.75 317.929 458 317.828 458 317.525 458 317.273 457.85 317.121 457.65 317.02 457.1 316.616 456.85 316.162 456.65 315.556 456.6 315.354 456.5 315 456.15 315 455.8 315 455.65 315.354 455.65 315.556 455.65 315.657 455.85 316.465 456.25 317.02L447.85 317.02C447.4 317.02 447 317.02 447 317.525 447 318.03 447.4 318.03 447.85 318.03L455.85 318.03" fill-rule="evenodd"/><path d="M450.968 325.717C451.125 325.027 451.702 322.584 453.536 322.584 453.694 322.584 454.323 322.584 454.847 322.956 454.113 323.062 453.589 323.752 453.589 324.336 453.589 324.761 453.903 325.292 454.585 325.292 455.161 325.292 456 324.814 456 323.752 456 322.372 454.48 322 453.589 322 452.069 322 451.125 323.434 450.81 324.018 450.181 322.265 448.766 322 447.98 322 445.306 322 443.786 325.398 443.786 326.089 443.786 326.354 444.048 326.354 444.101 326.354 444.31 326.354 444.415 326.301 444.468 326.035 445.359 323.274 447.036 322.584 447.927 322.584 448.452 322.584 449.343 322.85 449.343 324.336 449.343 325.186 448.923 326.938 447.927 330.655 447.508 332.301 446.617 333.416 445.464 333.416 445.306 333.416 444.73 333.416 444.153 333.097 444.835 332.938 445.411 332.407 445.411 331.664 445.411 330.92 444.835 330.708 444.415 330.708 443.629 330.708 443 331.398 443 332.248 443 333.469 444.31 334 445.464 334 447.141 334 448.085 332.142 448.19 331.982 448.504 332.991 449.448 334 451.02 334 453.694 334 455.214 330.602 455.214 329.911 455.214 329.646 454.952 329.646 454.899 329.646 454.637 329.646 454.585 329.752 454.532 329.965 453.694 332.779 451.911 333.416 451.073 333.416 450.024 333.416 449.605 332.566 449.605 331.664 449.605 331.08 449.762 330.496 450.077 329.327L450.968 325.717" fill-rule="evenodd"/><path d="M465.434 325.752C465.434 325.483 465.434 325 465 325 464.512 325 464.512 325.43 464.512 325.752L464.512 337.087 458.76 337.087C458.488 337.087 458 337.087 458 337.517 458 338 458.434 338 458.76 338L471.24 338C471.512 338 472 338 472 337.57 472 337.087 471.566 337.087 471.24 337.087L465.434 337.087 465.434 325.752" fill-rule="evenodd"/><path d="M483 327.5C483 325.386 482.69 322.133 481.293 319.042 479.741 315.735 477.517 314 477.259 314 477.103 314 477 314.108 477 314.271 477 314.325 477 314.38 477.466 314.867 480 317.524 481.5 321.861 481.5 327.5 481.5 332.108 480.517 336.88 477.31 340.295 477 340.62 477 340.675 477 340.729 477 340.892 477.103 341 477.259 341 477.517 341 479.845 339.157 481.345 335.741 482.69 332.759 483 329.777 483 327.5" fill-rule="evenodd"/><path d="M544.328 287.464C545.072 285.559 546.826 284.579 548.42 284.579 549.802 284.579 551.077 285.395 551.077 287.138 551.077 288.771 550.014 290.35 548.42 290.731 548.261 290.785 548.208 290.785 546.295 290.948L546.295 292.582 548.208 292.582C551.024 292.582 551.609 295.14 551.609 296.501 551.609 298.625 550.386 300.367 548.367 300.367 546.56 300.367 544.435 299.387 543.266 297.536L543 299.169C544.913 301.728 547.357 302 548.42 302 551.662 302 554 299.387 554 296.501 554 294.052 552.14 292.364 550.333 291.765 552.353 290.676 553.256 288.825 553.256 287.138 553.256 284.797 551.077 283 548.473 283 546.401 283 544.488 284.089 543.372 285.994L544.328 287.464" fill-rule="evenodd"/><path d="M555 360.026C555 358.014 554.894 355.642 553.778 353.527 552.662 351.619 550.855 351 549.527 351 547.932 351 546.072 351.671 545.01 353.991 544.106 355.848 544 357.963 544 360.026 544 362.089 544.106 363.946 544.903 365.854 545.966 368.329 547.986 369 549.473 369 551.386 369 553.087 367.968 553.937 366.163 554.734 364.513 555 362.811 555 360.026ZM549.527 367.453C548.145 367.453 547.029 366.473 546.498 364.616 546.072 363.12 546.072 361.728 546.072 359.716 546.072 358.117 546.072 356.57 546.498 355.178 546.657 354.662 547.348 352.547 549.473 352.547 551.546 352.547 552.237 354.507 552.396 354.971 552.928 356.415 552.928 358.117 552.928 359.716 552.928 361.418 552.928 363.069 552.449 364.668 551.758 367.04 550.377 367.453 549.527 367.453" fill-rule="evenodd"/><path d="M513.625 318 513.089 318C511.482 319.646 509.286 319.699 508 319.752L508 321.292C508.857 321.292 510.143 321.239 511.482 320.655L511.482 334.46 508.161 334.46 508.161 336 517 336 517 334.46 513.625 334.46 513.625 318" fill-rule="evenodd"/><path d="M581.576 330.286 578.217 333.395 578.217 335 589 335 589 333.245 584.069 333.245C583.744 333.245 583.419 333.245 583.094 333.245L580.167 333.245C581.034 332.543 583.094 330.687 583.906 329.935 584.448 329.484 585.803 328.431 586.345 327.979 587.537 326.876 589 325.522 589 323.416 589 320.507 586.833 318 583.256 318 580.167 318 578.65 319.956 578 322.112 578.325 322.563 578.433 322.714 578.488 322.764 578.542 322.814 578.813 323.165 579.084 323.516 579.626 321.56 580.384 319.605 582.877 319.605 585.424 319.605 586.778 321.51 586.778 323.466 586.778 325.572 585.261 327.027 583.635 328.531L581.576 330.286" fill-rule="evenodd"/><path d="M628.679 327.469C628.679 323.327 626.161 322 624.232 322 620.536 322 617 325.77 617 329.54 617 331.982 618.607 334 621.339 334 623.054 334 624.929 333.416 626.964 331.77 627.339 333.204 628.196 334 629.429 334 630.821 334 631.679 332.566 631.679 332.142 631.679 331.929 631.518 331.876 631.357 331.876 631.143 331.876 631.089 331.929 630.982 332.142 630.5 333.416 629.536 333.416 629.482 333.416 628.679 333.416 628.679 331.345 628.679 330.708 628.679 330.177 628.679 330.124 628.946 329.805 631.464 326.673 632 323.593 632 323.593 632 323.54 632 323.327 631.679 323.327 631.411 323.327 631.411 323.381 631.304 323.858 630.821 325.504 629.911 327.522 628.679 329.115L628.679 327.469ZM626.857 331.08C624.5 333.15 622.464 333.416 621.393 333.416 619.786 333.416 618.982 332.248 618.982 330.549 618.982 329.221 619.679 326.354 620.536 325.027 621.821 323.115 623.268 322.584 624.179 322.584 626.804 322.584 626.804 326.035 626.804 328.106 626.804 329.115 626.804 330.655 626.857 331.08" fill-rule="evenodd"/><path d="M639.486 312.722C639.486 312.389 639.257 312 638.686 312 638.171 312 637.6 312.5 637.6 313.056 637.6 313.389 637.829 313.778 638.4 313.778 638.971 313.778 639.486 313.222 639.486 312.722ZM635.429 322.556C635.371 322.778 635.257 323.056 635.257 323.389 635.257 324.278 636.057 325 637.143 325 639.143 325 640 322.333 640 322.056 640 321.778 639.771 321.778 639.714 321.778 639.429 321.778 639.429 321.889 639.314 322.111 638.857 323.667 638 324.444 637.2 324.444 636.8 324.444 636.743 324.222 636.743 323.778 636.743 323.333 636.857 323 637.029 322.556 637.257 322.056 637.429 321.5 637.657 321 637.829 320.556 638.571 318.778 638.629 318.556 638.686 318.333 638.8 318.111 638.8 317.944 638.8 317 638 316.278 636.857 316.278 634.914 316.278 634 318.889 634 319.222 634 319.5 634.286 319.5 634.343 319.5 634.629 319.5 634.629 319.389 634.686 319.167 635.2 317.5 636.057 316.833 636.8 316.833 637.143 316.833 637.314 317 637.314 317.5 637.314 317.944 637.2 318.222 636.686 319.444L635.429 322.556" fill-rule="evenodd"/><path d="M638.397 339.513C638.185 339.513 637.974 339.568 637.762 339.568L635.642 339.568 638.503 336.924C638.821 336.593 639.722 335.877 640.093 335.602 640.887 334.831 642 333.839 642 332.131 642 329.983 640.464 328 637.815 328 635.854 328 634.636 329.102 634 331.085L634.848 332.186C635.272 330.589 635.96 329.322 637.55 329.322 639.086 329.322 640.305 330.479 640.305 332.186 640.305 333.784 639.351 334.665 638.291 335.767 637.921 336.153 636.914 337.034 636.49 337.419 635.96 337.915 634.689 339.182 634.159 339.678L634.159 341 642 341 642 339.513 638.397 339.513" fill-rule="evenodd"/><path d="M653 340.729C653 340.675 653 340.62 652.534 340.133 649.328 336.717 648.5 331.62 648.5 327.5 648.5 322.783 649.483 318.066 652.638 314.705 653 314.38 653 314.325 653 314.271 653 314.054 652.897 314 652.741 314 652.483 314 650.155 315.789 648.603 319.259 647.31 322.241 647 325.223 647 327.5 647 329.614 647.31 332.867 648.707 335.904 650.259 339.265 652.483 341 652.741 341 652.897 341 653 340.946 653 340.729" fill-rule="evenodd"/><path d="M668.655 318.03C668.273 318.333 667.345 319.04 667.345 319.495 667.345 319.747 667.618 320 667.891 320 668.164 320 668.273 319.848 668.436 319.697 668.764 319.293 669.364 318.586 670.564 318.03 670.727 317.929 671 317.828 671 317.525 671 317.273 670.836 317.121 670.618 317.02 670.018 316.616 669.745 316.162 669.527 315.556 669.473 315.354 669.364 315 668.982 315 668.6 315 668.436 315.354 668.436 315.556 668.436 315.657 668.655 316.465 669.091 317.02L659.927 317.02C659.436 317.02 659 317.02 659 317.525 659 318.03 659.436 318.03 659.927 318.03L668.655 318.03" fill-rule="evenodd"/><path d="M663.581 325.717C663.75 325.027 664.371 322.584 666.347 322.584 666.516 322.584 667.194 322.584 667.758 322.956 666.968 323.062 666.403 323.752 666.403 324.336 666.403 324.761 666.742 325.292 667.476 325.292 668.097 325.292 669 324.814 669 323.752 669 322.372 667.363 322 666.403 322 664.766 322 663.75 323.434 663.411 324.018 662.734 322.265 661.21 322 660.363 322 657.484 322 655.847 325.398 655.847 326.089 655.847 326.354 656.129 326.354 656.185 326.354 656.411 326.354 656.524 326.301 656.581 326.035 657.54 323.274 659.347 322.584 660.306 322.584 660.871 322.584 661.831 322.85 661.831 324.336 661.831 325.186 661.379 326.938 660.306 330.655 659.855 332.301 658.895 333.416 657.653 333.416 657.484 333.416 656.863 333.416 656.242 333.097 656.976 332.938 657.597 332.407 657.597 331.664 657.597 330.92 656.976 330.708 656.524 330.708 655.677 330.708 655 331.398 655 332.248 655 333.469 656.411 334 657.653 334 659.46 334 660.476 332.142 660.589 331.982 660.927 332.991 661.944 334 663.637 334 666.516 334 668.153 330.602 668.153 329.911 668.153 329.646 667.871 329.646 667.815 329.646 667.532 329.646 667.476 329.752 667.419 329.965 666.516 332.779 664.597 333.416 663.694 333.416 662.565 333.416 662.113 332.566 662.113 331.664 662.113 331.08 662.282 330.496 662.621 329.327L663.581 325.717" fill-rule="evenodd"/><path d="M678.434 325.752C678.434 325.483 678.434 325 678 325 677.512 325 677.512 325.43 677.512 325.752L677.512 337.087 671.76 337.087C671.488 337.087 671 337.087 671 337.517 671 338 671.434 338 671.76 338L684.24 338C684.512 338 685 338 685 337.57 685 337.087 684.566 337.087 684.24 337.087L678.434 337.087 678.434 325.752" fill-rule="evenodd"/><path d="M696 327.5C696 325.386 695.638 322.133 694.009 319.042 692.198 315.735 689.603 314 689.302 314 689.121 314 689 314.108 689 314.271 689 314.325 689 314.38 689.543 314.867 692.5 317.524 694.25 321.861 694.25 327.5 694.25 332.108 693.103 336.88 689.362 340.295 689 340.62 689 340.675 689 340.729 689 340.892 689.121 341 689.302 341 689.603 341 692.319 339.157 694.069 335.741 695.638 332.759 696 329.777 696 327.5" fill-rule="evenodd"/></g></svg>