<svg width="537" height="92" xmlns="http://www.w3.org/2000/svg" xmlns:xlink="http://www.w3.org/1999/xlink" overflow="hidden"><defs><clipPath id="clip0"><path d="M302 289 839 289 839 381 302 381Z" fill-rule="evenodd" clip-rule="evenodd"/></clipPath><linearGradient x1="328" y1="342.5" x2="750" y2="342.5" gradientUnits="userSpaceOnUse" spreadMethod="reflect" id="fill1"><stop offset="0" stop-color="#FFFFFF"/><stop offset="0.3" stop-color="#117877"/><stop offset="0.8" stop-color="#C35861"/><stop offset="1" stop-color="#FFFFFF"/></linearGradient></defs><g clip-path="url(#clip0)" transform="translate(-302 -289)"><rect x="328" y="333" width="422" height="19" fill="url(#fill1)"/><path d="M303.5 342.833 795.5 342.833 795.5 344.167 303.5 344.167ZM794.167 339.5 802.167 343.5 794.167 347.5Z"/><path d="M334.667 318 585.113 318 585.113 320 334.667 320ZM336 323 328 319 336 315ZM583.78 315 591.78 319 583.78 323Z" fill="#117877"/><path d="M596.667 318 743.333 318 743.333 320 596.667 320ZM598 323 590 319 598 315ZM742 315 750 319 742 323Z" fill="#C35861"/><path d="M448.737 305.966C447.684 307.723 446.684 308.095 445.526 308.202 445.211 308.202 445 308.202 445 308.734 445 308.84 445.105 309 445.316 309 446.053 309 446.842 308.894 447.579 308.894 448.421 308.894 449.368 309 450.211 309 450.368 309 450.684 309 450.684 308.521 450.684 308.202 450.474 308.202 450.263 308.202 449.684 308.148 449.053 307.936 449.053 307.244 449.053 306.924 449.211 306.658 449.421 306.286L451.421 302.88 458 302.88C458.053 303.412 458.421 307.031 458.421 307.297 458.421 308.095 457.053 308.202 456.526 308.202 456.158 308.202 455.895 308.202 455.895 308.734 455.895 309 456.211 309 456.263 309 457.316 309 458.474 308.894 459.526 308.894 460.211 308.894 461.842 309 462.526 309 462.684 309 463 309 463 308.468 463 308.202 462.737 308.202 462.368 308.202 460.737 308.202 460.737 307.989 460.684 307.244L459.053 290.585C459 290.106 459 290 458.579 290 458.158 290 458.053 290.16 457.895 290.426L448.737 305.966ZM451.895 302.028 457.053 293.246 457.895 302.028 451.895 302.028Z" fill="#117877" fill-rule="evenodd"/><path d="M465.106 302.004C465 302.266 465 302.371 465 302.371 465 302.79 465.317 303 465.635 303 466.322 303 466.428 302.371 466.534 302.057 466.534 301.952 466.904 300.485 467.38 298.703 467.962 299.122 468.649 299.227 469.337 299.227 470.923 299.227 471.981 297.969 471.981 297.917 472.351 299.175 473.62 299.227 473.885 299.227 474.572 299.227 474.995 298.86 475.365 298.284 475.736 297.55 476 296.502 476 296.45 476 296.188 475.736 296.188 475.683 296.188 475.418 296.188 475.418 296.293 475.313 296.764 475.048 297.655 474.731 298.755 473.938 298.755 473.462 298.755 473.356 298.336 473.356 297.812 473.356 297.498 473.462 296.869 473.62 296.397 473.726 295.873 473.938 295.14 474.043 294.721L474.466 293.096C474.572 292.677 474.784 291.838 474.784 291.786 474.784 291.419 474.466 291.157 474.149 291.157 473.938 291.157 473.62 291.262 473.409 291.629 473.356 291.734 473.197 292.31 473.091 292.677L472.721 294.197 472.139 296.502C472.034 296.921 472.034 296.974 471.822 297.236 471.293 298.022 470.447 298.755 469.389 298.755 467.909 298.755 467.909 297.445 467.909 297.079 467.909 296.607 467.962 296.397 468.226 295.402 468.385 294.616 468.438 294.459 468.596 293.777L468.861 292.729C468.966 292.362 469.178 291.629 469.178 291.576 469.178 291.262 468.913 291 468.543 291 467.856 291 467.697 291.629 467.644 291.838L465.106 302.004" fill="#117877" fill-rule="evenodd"/><path d="M669.589 291.943C669.804 291.08 669.857 290.81 671.304 290.81 671.732 290.81 672 290.81 672 290.324 672 290.054 671.839 290 671.625 290 670.982 290 669.375 290.054 668.679 290.054 667.821 290.054 665.625 290 664.768 290 664.5 290 664.179 290 664.179 290.54 664.179 290.81 664.393 290.81 665.089 290.81 665.732 290.81 666 290.81 666.643 290.864 667.286 290.972 667.5 291.026 667.5 291.403 667.5 291.565 667.446 291.781 667.393 291.997L664.286 304.358C663.643 307.003 661.821 308.406 660.429 308.406 659.732 308.406 658.339 308.136 657.911 306.733 657.964 306.787 658.179 306.787 658.232 306.787 659.25 306.787 659.946 305.869 659.946 305.06 659.946 304.196 659.25 303.926 658.768 303.926 658.286 303.926 657 304.25 657 306.085 657 307.759 658.393 309 660.536 309 663 309 665.786 307.219 666.429 304.574L669.589 291.943" fill="#C35861" fill-rule="evenodd"/><path d="M673.115 301.921C673 302.205 673 302.319 673 302.319 673 302.773 673.404 303 673.692 303 674.442 303 674.615 302.319 674.673 301.978 674.731 301.865 675.135 300.275 675.596 298.345 676.231 298.742 677.038 298.913 677.731 298.913 679.462 298.913 680.615 297.55 680.673 297.493 681.019 298.856 682.404 298.913 682.75 298.913 683.442 298.913 683.962 298.515 684.308 297.891 684.769 297.096 685 295.961 685 295.904 685 295.62 684.769 295.62 684.712 295.62 684.423 295.62 684.423 295.734 684.25 296.245 684.019 297.21 683.615 298.345 682.808 298.345 682.288 298.345 682.115 297.948 682.115 297.38 682.115 297.039 682.288 296.358 682.404 295.847 682.577 295.279 682.75 294.485 682.865 294.031L683.327 292.271C683.442 291.76 683.673 290.908 683.673 290.795 683.673 290.397 683.327 290.17 682.981 290.17 682.808 290.17 682.404 290.284 682.173 290.624 682.115 290.795 681.942 291.419 681.885 291.817L681.423 293.463 680.788 295.904C680.673 296.415 680.673 296.472 680.5 296.699 679.865 297.607 679 298.345 677.846 298.345 676.173 298.345 676.173 296.983 676.173 296.585 676.173 296.074 676.231 295.847 676.519 294.769 676.75 293.86 676.75 293.747 676.981 292.952L677.269 291.873C677.327 291.419 677.558 290.681 677.558 290.624 677.558 290.227 677.269 290 676.865 290 676.115 290 675.942 290.681 675.885 290.908L673.115 301.921" fill="#C35861" fill-rule="evenodd"/><path d="M592.5 333.5 592.5 352.7" stroke="#000000" stroke-width="1.33333" stroke-miterlimit="8" fill="none" fill-rule="evenodd"/><path d="M591.611 362.532C591.459 362.053 591.306 362 591 362 590.592 362 590.541 362.106 590.44 362.532L585.548 378.339C585.293 379.137 584.783 380.202 583 380.202L583 381C583.866 380.947 585.14 380.947 585.395 380.947 586.108 380.947 587.484 381 588.248 381L588.248 380.202C586.873 380.148 586.312 379.457 586.312 378.818 586.312 378.658 586.312 378.605 586.414 378.232L590.236 365.832 594.261 378.924C594.363 379.297 594.363 379.35 594.363 379.403 594.363 380.202 592.885 380.202 592.223 380.202L592.223 381C593.089 380.947 594.924 380.947 595.892 380.947 596.86 380.947 598.032 381 599 381L599 380.202C597.064 380.202 597.013 380.042 596.707 379.031L591.611 362.532" fill-rule="evenodd"/><path d="M810.046 354.075C809.831 354.984 809.777 355.145 808.592 355.145 808.269 355.145 808 355.145 808 355.679 808 355.893 808.108 356 808.323 356 809.077 356 809.831 355.893 810.585 355.893 811.5 355.893 812.415 356 813.277 356 813.385 356 813.762 356 813.762 355.465 813.762 355.145 813.492 355.145 813.115 355.145 811.769 355.145 811.769 354.984 811.769 354.717 811.769 354.396 812.9 350.066 813.062 349.371 813.438 350.173 814.192 351.082 815.538 351.082 818.662 351.082 822 347.179 822 343.277 822 340.764 820.492 339 818.446 339 817.1 339 815.808 339.962 814.946 341.031 814.677 339.588 813.492 339 812.523 339 811.285 339 810.746 340.069 810.531 340.55 810.046 341.459 809.669 343.063 809.669 343.116 809.669 343.384 809.938 343.384 809.992 343.384 810.262 343.384 810.315 343.384 810.477 342.796 810.908 340.871 811.446 339.588 812.415 339.588 812.9 339.588 813.277 339.802 813.277 340.818 813.277 341.459 813.169 341.726 813.062 342.208L810.046 354.075ZM814.785 342.475C815 341.78 815.7 341.031 816.185 340.604 817.1 339.802 817.908 339.588 818.338 339.588 819.415 339.588 820.062 340.55 820.062 342.101 820.062 343.704 819.2 346.752 818.715 347.767 817.8 349.638 816.508 350.494 815.538 350.494 813.762 350.494 813.385 348.302 813.385 348.142 813.385 348.088 813.385 348.035 813.492 347.714L814.785 342.475" fill-rule="evenodd"/><path d="M831.463 336.93 837.292 336.93C837.51 336.93 838 336.93 838 336.525 838 336.07 837.564 336.07 837.292 336.07L831.463 336.07 831.463 330.658C831.463 330.405 831.463 330 831.027 330 830.537 330 830.537 330.405 830.537 330.658L830.537 336.07 824.708 336.07C824.436 336.07 824 336.07 824 336.475 824 336.93 824.436 336.93 824.708 336.93L830.537 336.93 830.537 342.342C830.537 342.595 830.537 343 830.973 343 831.463 343 831.463 342.595 831.463 342.342L831.463 336.93" fill-rule="evenodd"/></g></svg>