<svg width="857" height="521" xmlns="http://www.w3.org/2000/svg" xmlns:xlink="http://www.w3.org/1999/xlink" overflow="hidden"><defs><clipPath id="clip0"><path d="M239 102 1096 102 1096 623 239 623Z" fill-rule="evenodd" clip-rule="evenodd"/></clipPath><clipPath id="clip1"><path d="M278 208 993 208 993 567 278 567Z" fill-rule="evenodd" clip-rule="evenodd"/></clipPath><clipPath id="clip2"><path d="M278 208 993 208 993 567 278 567Z" fill-rule="evenodd" clip-rule="evenodd"/></clipPath><clipPath id="clip3"><path d="M278 208 993 208 993 567 278 567Z" fill-rule="evenodd" clip-rule="evenodd"/></clipPath><linearGradient x1="358.322" y1="357.89" x2="358.322" y2="1.73804" gradientUnits="userSpaceOnUse" spreadMethod="pad" id="fill4"><stop offset="0" stop-color="#C35861"/><stop offset="0.01" stop-color="#C45B64" stop-opacity="0.99"/><stop offset="0.27" stop-color="#DEA3A8" stop-opacity="0.78"/><stop offset="0.52" stop-color="#F0D6D8" stop-opacity="0.62"/><stop offset="0.76" stop-color="#FBF5F5" stop-opacity="0.53"/><stop offset="1" stop-color="#FFFFFF" stop-opacity="0.5"/></linearGradient><linearGradient x1="448.057" y1="415.456" x2="448.057" y2="121.41" gradientUnits="userSpaceOnUse" spreadMethod="pad" id="fill5"><stop offset="0" stop-color="#E2A68E"/><stop offset="0.03" stop-color="#E6B19C" stop-opacity="0.94"/><stop offset="0.1" stop-color="#EEC9BB" stop-opacity="0.8"/><stop offset="0.18" stop-color="#F4DDD4" stop-opacity="0.69"/><stop offset="0.27" stop-color="#F9ECE7" stop-opacity="0.6"/><stop offset="0.39" stop-color="#FCF7F5" stop-opacity="0.54"/><stop offset="0.55" stop-color="#FEFDFD" stop-opacity="0.51"/><stop offset="1" stop-color="#FFFFFF" stop-opacity="0.5"/></linearGradient><linearGradient x1="448.057" y1="364.926" x2="448.057" y2="121.431" gradientUnits="userSpaceOnUse" spreadMethod="pad" id="fill6"><stop offset="0" stop-color="#2484C6"/><stop offset="0" stop-color="#2784C4"/><stop offset="0" stop-color="#2F82BC"/><stop offset="0" stop-color="#3D80AF"/><stop offset="0" stop-color="#527C9D"/><stop offset="0" stop-color="#6C7885"/><stop offset="0" stop-color="#8C7267"/><stop offset="0" stop-color="#B26C45"/><stop offset="0" stop-color="#D36627"/><stop offset="1" stop-color="#FCBA7F" stop-opacity="0"/></linearGradient><linearGradient x1="446.446" y1="364.926" x2="446.446" y2="121.431" gradientUnits="userSpaceOnUse" spreadMethod="pad" id="fill7"><stop offset="0" stop-color="#F8961D"/><stop offset="0" stop-color="#A3C2A3"/><stop offset="0.67" stop-color="#DEE9DE" stop-opacity="0.87"/><stop offset="1" stop-color="#FFFFFF" stop-opacity="0.8"/></linearGradient><linearGradient x1="446.446" y1="300.102" x2="446.446" y2="120.42" gradientUnits="userSpaceOnUse" spreadMethod="pad" id="fill8"><stop offset="0" stop-color="#1D5A68" stop-opacity="0.8"/><stop offset="0.11" stop-color="#3D717D" stop-opacity="0.76"/><stop offset="0.52" stop-color="#A6BEC3" stop-opacity="0.62"/><stop offset="0.83" stop-color="#E7EDEF" stop-opacity="0.53"/><stop offset="1" stop-color="#FFFFFF" stop-opacity="0.5"/></linearGradient><linearGradient x1="448.868" y1="216.75" x2="448.868" y2="119.609" gradientUnits="userSpaceOnUse" spreadMethod="pad" id="fill9"><stop offset="0" stop-color="#1A3C56" stop-opacity="0.8"/><stop offset="0.09" stop-color="#39566D" stop-opacity="0.76"/><stop offset="0.37" stop-color="#8E9FAC" stop-opacity="0.65"/><stop offset="0.62" stop-color="#CCD4D9" stop-opacity="0.57"/><stop offset="0.84" stop-color="#F2F4F5" stop-opacity="0.52"/><stop offset="1" stop-color="#FFFFFF" stop-opacity="0.5"/></linearGradient></defs><g clip-path="url(#clip0)" transform="translate(-239 -102)"><path d="M239.5 564.833 1051.06 564.833 1051.06 568.167 239.5 568.167ZM1049.38 561.5 1059.38 566.5 1049.38 571.5Z" fill="#A7A9AC"/><path d="M1.66667-3.66147e-07 1.66677 469.557-1.66656 469.557-1.66667 3.66147e-07ZM5.0001 467.89 0.000104987 477.89-4.9999 467.89Z" fill="#A7A9AC" transform="matrix(1 0 0 -1 636.5 622.39)"/><path d="M1081.18 560.803C1081.83 560.716 1082.48 560.803 1083.13 560.716 1084.98 560.629 1087.21 560.542 1089.06 560.542 1087.77 561.677 1087.02 562.376 1082.39 565.694 1073.02 572.419 1072 575.214 1072 575.389 1072 576 1072.65 576 1073.02 576 1073.76 576 1073.85 576 1074.13 575.563 1075.8 573.38 1077.56 573.031 1078.31 573.031 1079.51 573.031 1080.63 573.817 1081.27 574.253 1082.76 575.214 1083.87 576 1085.63 576 1090.83 576 1094.26 570.672 1094.26 569.013 1094.26 568.402 1093.42 568.402 1093.15 568.402 1092.77 568.402 1092.31 568.402 1092.13 568.838 1091.75 569.624 1091.29 570.76 1088.14 571.109 1087.86 571.109 1078.86 571.458 1077.84 571.546 1079.14 570.323 1079.88 569.624 1084.61 566.306 1093.98 559.581 1095 556.786 1095 556.611 1095 556 1094.35 556 1093.89 556 1093.24 556 1093.15 556 1092.87 556.437 1091.75 557.921 1090.83 558.969 1089.71 558.969 1088.51 558.969 1087.49 558.271 1086.47 557.572 1085.35 556.786 1084.15 556 1082.48 556 1078.4 556 1075.71 559.843 1075.71 561.153 1075.71 561.764 1076.45 561.764 1076.82 561.764 1077.29 561.764 1077.75 561.764 1077.94 561.24 1078.58 560.891 1078.86 560.891 1080.25 560.803L1081.18 560.803" fill="#A7A9AC" fill-rule="evenodd"/><path d="M638.215 112.84 642.282 112.84C643.186 112.84 643.277 112.84 643.458 112.6 643.729 112.44 643.91 111.88 643.91 111.64 643.91 110.92 643.096 110.92 642.373 110.92L638.757 110.92 640.203 105.8C640.384 105.16 640.384 104.92 640.384 104.76 640.384 103.48 639.209 103 638.305 103 637.582 103 636.407 103.24 635.684 104.36 635.503 104.68 634.96 106.52 634.599 107.64L633.695 110.92 629.627 110.92C628.723 110.92 628 110.92 628 112.12 628 112.84 628.723 112.84 629.537 112.84L633.153 112.84 630.621 121.96C630.26 123 629.808 124.68 629.808 125.08 629.808 127.72 632.701 129 635.503 129 640.927 129 644 123.48 644 122.76 644 122.2 643.277 122.2 642.915 122.2 642.102 122.2 642.102 122.28 641.74 122.84 640.023 126.28 637.492 127.56 635.774 127.56 635.322 127.56 634.689 127.56 634.689 126.12 634.689 125.32 634.78 124.92 634.96 124.36L638.215 112.84" fill="#A7A9AC" fill-rule="evenodd"/><g clip-path="url(#clip1)"><g clip-path="url(#clip2)"><g clip-path="url(#clip3)"><path d="M358.322 357.89 715 1.73804 1.64324 1.73804 358.322 357.89Z" fill="url(#fill4)" transform="matrix(1 0 -0 1.00272 278 208.069)"/><path d="M92.4324 121.41C154.665 179.872 199.148 221.564 228.895 249.404 228.895 249.404 240.672 260.433 273.568 290.749 337.823 349.916 348.241 358.459 358.237 366.074 400.53 398.339 421.681 414.466 446.235 415.414 473.159 416.467 496.796 398.75 543.028 363.283 577.389 336.949 605.661 310.025 660.805 257.315 686.212 233.035 690.014 228.98 720.246 200.075 755.491 166.368 784.501 139.212 803.682 121.41" stroke="#231F20" stroke-width="3.16008" stroke-miterlimit="10" fill="url(#fill5)" transform="matrix(1 0 -0 1.00272 188.169 89.3806)"/><path d="M92.4324 121.431C111.74 136.979 142.098 161.712 178.976 193.06 215.633 224.187 230.37 237.733 266.121 267.28 325.172 316.092 349.336 332.335 379.073 346.355 412.886 362.282 432.794 365.432 450.259 364.895 464.406 364.473 481.112 361.482 513.008 346.355 546.304 330.555 577.263 310.541 632.417 264.867 664.702 238.154 671.391 230.749 705.846 201.118 747.001 165.767 781.446 138.58 803.682 121.452" stroke="#231F20" stroke-width="3.16008" stroke-miterlimit="10" fill="url(#fill6)" transform="matrix(1 0 -0 1.00272 188.169 89.3806)"/><path d="M90.8207 121.431C110.129 136.979 140.487 161.712 177.365 193.06 214.022 224.187 228.758 237.733 264.509 267.28 323.55 316.092 347.725 332.335 377.461 346.355 411.274 362.282 431.183 365.432 448.637 364.895 462.794 364.473 479.49 361.482 511.396 346.355 544.693 330.555 575.651 310.541 630.805 264.867 663.08 238.154 669.779 230.749 704.224 201.118 745.389 165.767 779.834 138.58 802.071 121.452" stroke="#231F20" stroke-width="3.16008" stroke-miterlimit="10" fill="url(#fill7)" transform="matrix(1 0 -0 1.00272 188.169 89.3806)"/><path d="M135.409 120.42C171.382 149.208 197.979 170.592 214.201 183.885 221.09 189.531 236.943 202.498 259.221 219.257L262.297 221.543C290.97 242.726 313.111 259.085 343.353 273.157 368.213 284.744 402.637 300.787 448.689 300.05 482.46 299.513 507.425 290.211 528.671 282.301 561.747 269.987 583.53 255.419 618.923 231.739 646.563 213.253 666.398 197.516 687.549 180.641 716.959 157.182 740.628 136.452 757.44 121.21" stroke="#231F20" stroke-width="3.16008" stroke-miterlimit="10" fill="url(#fill8)" transform="matrix(1 0 -0 1.00272 188.169 89.3806)"/><path d="M204.805 119.609C236.469 144.182 270.976 164.853 307.581 181.178 327.826 190.287 348.736 197.837 370.13 203.762 391.197 209.461 415.814 215.96 449.048 216.666 477.042 217.319 504.972 213.696 531.873 205.921 542.797 202.761 558.07 197.495 593.2 179.587 627.511 161.995 660.821 142.513 692.974 121.231" stroke="#1A3C56" stroke-width="3.16008" stroke-miterlimit="10" fill="url(#fill9)" transform="matrix(1 0 -0 1.00272 188.169 89.3806)"/></g></g></g><path d="M628 566.5C628 562.358 631.358 559 635.5 559 639.642 559 643 562.358 643 566.5 643 570.642 639.642 574 635.5 574 631.358 574 628 570.642 628 566.5Z" fill-rule="evenodd"/><path d="M603.696 595.718 993.598 205.816 996.427 208.644 606.525 598.546ZM989.356 204.401 1002.08 200.159 997.841 212.887Z"/><path d="M664.668 598.546 274.766 208.644 277.594 205.816 667.496 595.718ZM273.351 212.887 269.109 200.159 281.837 204.401Z"/><path d="M1031.36 182.174C1029.96 182.609 1029.26 184.087 1029.26 185.217 1029.26 186.174 1029.88 187.217 1031.2 187.217 1032.52 187.217 1034 185.913 1034 183.826 1034 181.478 1031.9 180 1029.57 180 1027.31 180 1025.92 181.826 1025.37 182.609 1024.44 180.783 1022.26 180 1020.08 180 1015.19 180 1012.54 185.304 1012.54 186.783 1012.54 187.391 1013.09 187.391 1013.48 187.391 1013.94 187.391 1014.18 187.391 1014.33 186.783 1015.5 182.87 1018.3 181.565 1019.85 181.565 1021.33 181.565 1022.03 182.348 1022.03 183.739 1022.03 184.522 1021.48 186.957 1021.17 188.522L1019.85 194.435C1019.23 197.13 1017.83 198.435 1016.51 198.435 1016.35 198.435 1015.42 198.435 1014.64 197.739 1016.04 197.304 1016.74 195.826 1016.74 194.783 1016.74 193.826 1016.12 192.783 1014.8 192.783 1013.48 192.783 1012 194 1012 196.174 1012 198.435 1014.1 200 1016.43 200 1018.69 200 1020.08 198.087 1020.63 197.304 1021.56 199.13 1023.74 200 1025.92 200 1030.81 200 1033.46 194.609 1033.46 193.217 1033.46 192.609 1032.91 192.609 1032.52 192.609 1032.06 192.609 1031.82 192.609 1031.67 193.13 1030.5 197.13 1027.7 198.435 1026.15 198.435 1024.67 198.435 1023.97 197.652 1023.97 196.261 1023.97 195.304 1024.44 193.043 1024.83 191.391 1025.06 190.261 1025.99 186.174 1026.15 185.478 1026.77 182.87 1028.09 181.565 1029.49 181.565 1029.65 181.565 1030.58 181.565 1031.36 182.174" fill-rule="evenodd"/><path d="M1049.93 177.094 1058.81 177.094C1059.04 177.094 1060 177.094 1060 175.956 1060 174.818 1059.11 174.818 1058.81 174.818L1049.93 174.818 1049.93 164.401C1049.93 164.138 1049.93 163 1049.04 163 1048.07 163 1048.07 164.051 1048.07 164.401L1048.07 174.818 1039.26 174.818C1038.96 174.818 1038 174.818 1038 175.956 1038 177.094 1038.96 177.094 1039.26 177.094L1048.07 177.094 1048.07 187.512C1048.07 187.862 1048.07 189 1049.04 189 1049.93 189 1049.93 187.862 1049.93 187.512L1049.93 177.094" fill-rule="evenodd"/><path d="M258.477 182.174C257.141 182.609 256.474 184.087 256.474 185.217 256.474 186.174 257.067 187.217 258.329 187.217 259.59 187.217 261 185.913 261 183.826 261 181.478 258.996 180 256.77 180 254.618 180 253.283 181.826 252.763 182.609 251.873 180.783 249.795 180 247.643 180 243.042 180 240.519 185.304 240.519 186.783 240.519 187.391 241.039 187.391 241.41 187.391 241.855 187.391 242.078 187.391 242.226 186.783 243.339 182.87 246.011 181.565 247.495 181.565 248.905 181.565 249.572 182.348 249.572 183.739 249.572 184.522 249.053 186.957 248.682 188.522L247.421 194.435C246.901 197.13 245.565 198.435 244.304 198.435 244.155 198.435 243.265 198.435 242.523 197.739 243.859 197.304 244.527 195.826 244.527 194.783 244.527 193.826 243.933 192.783 242.671 192.783 241.41 192.783 240 194 240 196.174 240 198.435 242.004 200 244.23 200 246.382 200 247.717 198.087 248.163 197.304 249.127 199.13 251.205 200 253.283 200 257.958 200 260.481 194.609 260.481 193.217 260.481 192.609 259.961 192.609 259.59 192.609 259.145 192.609 258.922 192.609 258.774 193.13 257.661 197.13 254.989 198.435 253.505 198.435 252.095 198.435 251.428 197.652 251.428 196.261 251.428 195.304 251.873 193.043 252.244 191.391 252.466 190.261 253.357 186.174 253.505 185.478 254.099 182.87 255.36 181.565 256.696 181.565 256.845 181.565 257.735 181.565 258.477 182.174" fill-rule="evenodd"/><path d="M284.755 178C285.048 178 286 178 286 176.5 286 175 285.048 175 284.755 175L267.319 175C266.952 175 266 175 266 176.5 266 178 266.952 178 267.319 178L284.755 178" fill-rule="evenodd"/></g></svg>